<svg width="25" height="24" viewBox="0 0 25 24" fill="none" xmlns="http://www.w3.org/2000/svg">
<path d="M12.5 2C10.5222 2 8.58879 2.58649 6.9443 3.6853C5.29981 4.78412 4.01808 6.3459 3.2612 8.17317C2.50433 10.0004 2.30629 12.0111 2.69215 13.9509C3.078 15.8907 4.03041 17.6725 5.42893 19.0711C6.82746 20.4696 8.60929 21.422 10.5491 21.8079C12.4889 22.1937 14.4996 21.9957 16.3268 21.2388C18.1541 20.4819 19.7159 19.2002 20.8147 17.5557C21.9135 15.9112 22.5 13.9778 22.5 12C22.5 10.6868 22.2413 9.38642 21.7388 8.17317C21.2362 6.95991 20.4997 5.85752 19.5711 4.92893C18.6425 4.00035 17.5401 3.26375 16.3268 2.7612C15.1136 2.25866 13.8132 2 12.5 2ZM18.176 10.237L12.176 15.737C11.986 15.9112 11.7362 16.0053 11.4785 15.9997C11.2208 15.9941 10.9752 15.8893 10.793 15.707L7.793 12.707C7.69749 12.6148 7.62131 12.5044 7.5689 12.3824C7.51649 12.2604 7.4889 12.1292 7.48775 11.9964C7.4866 11.8636 7.5119 11.7319 7.56218 11.609C7.61246 11.4861 7.68671 11.3745 7.7806 11.2806C7.8745 11.1867 7.98615 11.1125 8.10905 11.0622C8.23194 11.0119 8.36362 10.9866 8.4964 10.9877C8.62918 10.9889 8.7604 11.0165 8.8824 11.0689C9.00441 11.1213 9.11475 11.1975 9.207 11.293L11.53 13.616L16.824 8.763C17.0195 8.58371 17.2781 8.48942 17.5431 8.50086C17.8081 8.5123 18.0577 8.62854 18.237 8.824C18.4163 9.01946 18.5106 9.27814 18.4991 9.54313C18.4877 9.80812 18.3715 10.0577 18.176 10.237Z" fill="#2BDAFF"/>
</svg>
