<svg width="12" height="7" viewBox="0 0 12 7" fill="none" xmlns="http://www.w3.org/2000/svg">
<path d="M10.9998 0.0833336C10.8902 0.0826996 10.7814 0.103721 10.6799 0.145191C10.5784 0.186662 10.486 0.247765 10.4082 0.325L6.5915 4.14999C6.51403 4.2281 6.42186 4.29009 6.32031 4.3324C6.21876 4.37471 6.10984 4.39649 5.99983 4.39649C5.88982 4.39649 5.7809 4.37471 5.67935 4.3324C5.5778 4.29009 5.48563 4.2281 5.40816 4.14999L1.5915 0.325C1.43458 0.16808 1.22175 0.0799243 0.999829 0.0799243C0.777911 0.0799243 0.565082 0.16808 0.408162 0.325C0.251243 0.481919 0.163086 0.694748 0.163086 0.916665C0.163086 1.02655 0.184729 1.13535 0.226779 1.23687C0.26883 1.33839 0.330464 1.43063 0.408162 1.50833L4.23316 5.32499C4.70811 5.78129 5.3412 6.03613 5.99983 6.03613C6.65846 6.03613 7.29154 5.78129 7.7665 5.32499L11.5915 1.50833C11.6696 1.43086 11.7316 1.33869 11.7739 1.23715C11.8162 1.1356 11.838 1.02667 11.838 0.916665C11.838 0.806656 11.8162 0.697734 11.7739 0.596185C11.7316 0.494636 11.6696 0.402469 11.5915 0.325C11.5136 0.247765 11.4213 0.186662 11.3198 0.145191C11.2182 0.103721 11.1095 0.0826996 10.9998 0.0833336Z" fill="#1A2D52"/>
</svg>
