<svg width="12" height="7" viewBox="0 0 12 7" fill="none" xmlns="http://www.w3.org/2000/svg">
<path d="M10.9998 6.91667C10.8902 6.9173 10.7814 6.89628 10.6799 6.85481C10.5784 6.81334 10.486 6.75223 10.4082 6.675L6.5915 2.85001C6.51403 2.7719 6.42186 2.70991 6.32031 2.6676C6.21876 2.62529 6.10984 2.60351 5.99983 2.60351C5.88982 2.60351 5.7809 2.62529 5.67935 2.6676C5.5778 2.70991 5.48563 2.7719 5.40816 2.85001L1.5915 6.675C1.43458 6.83192 1.22175 6.92008 0.999829 6.92008C0.777911 6.92008 0.565082 6.83192 0.408162 6.675C0.251243 6.51808 0.163086 6.30525 0.163086 6.08333C0.163086 5.97345 0.184729 5.86465 0.226779 5.76313C0.26883 5.66161 0.330464 5.56937 0.408162 5.49167L4.23316 1.67501C4.70811 1.21871 5.3412 0.963867 5.99983 0.963867C6.65846 0.963867 7.29154 1.21871 7.7665 1.67501L11.5915 5.49167C11.6696 5.56914 11.7316 5.66131 11.7739 5.76285C11.8162 5.8644 11.838 5.97333 11.838 6.08333C11.838 6.19334 11.8162 6.30227 11.7739 6.40381C11.7316 6.50536 11.6696 6.59753 11.5915 6.675C11.5136 6.75223 11.4213 6.81334 11.3198 6.85481C11.2182 6.89628 11.1095 6.9173 10.9998 6.91667Z" fill="#1A2D52"/>
</svg>
