<svg width="50" height="56" viewBox="0 0 50 56" fill="none" xmlns="http://www.w3.org/2000/svg">
<path d="M42.6777 10.3221C37.9557 5.6003 31.6778 2.99982 25 2.99982C18.3222 2.99982 12.0442 5.6003 7.32232 10.3221C2.60049 15.044 0 21.322 0 27.9998C0 34.6776 2.60049 40.9557 7.32232 45.6775C12.0442 50.3993 18.3222 52.9998 25 52.9998C31.6778 52.9998 37.9557 50.3993 42.6777 45.6775C47.3995 40.9557 50 34.6776 50 27.9998C50 21.322 47.3995 15.044 42.6777 10.3221ZM41.575 44.5748C37.1477 49.0022 31.2612 51.4404 25 51.4404C18.7388 51.4404 12.8523 49.0022 8.42505 44.5748C3.99766 40.1475 1.55945 34.261 1.55945 27.9998C1.55945 21.7386 3.99766 15.8522 8.42505 11.4249C12.8523 6.99758 18.7388 4.55927 25 4.55927C31.2612 4.55927 37.1477 6.99758 41.575 11.4249C46.0023 15.8522 48.4405 21.7386 48.4405 27.9998C48.4405 34.261 46.0023 40.1475 41.575 44.5748Z" fill="white"/>
<path d="M11.7163 27.9998C11.7163 27.793 11.6341 27.5947 11.4879 27.4485C11.3417 27.3022 11.1433 27.2201 10.9365 27.2201H7.03012C6.82332 27.2201 6.62499 27.3022 6.47877 27.4485C6.33254 27.5947 6.25039 27.793 6.25039 27.9998C6.25039 28.2066 6.33254 28.4049 6.47877 28.5512C6.62499 28.6974 6.82332 28.7796 7.03012 28.7796H10.9366C11.1434 28.7795 11.3417 28.6974 11.4879 28.5511C11.6341 28.4049 11.7163 28.2066 11.7163 27.9998ZM43.7496 27.9998C43.7496 27.793 43.6675 27.5947 43.5212 27.4485C43.375 27.3022 43.1767 27.2201 42.9699 27.2201H39.0634C38.8566 27.2201 38.6582 27.3022 38.512 27.4485C38.3658 27.5947 38.2836 27.793 38.2836 27.9998C38.2836 28.2066 38.3658 28.4049 38.512 28.5512C38.6582 28.6974 38.8566 28.7796 39.0634 28.7796H42.9699C43.1767 28.7796 43.375 28.6974 43.5212 28.5512C43.6675 28.4049 43.7496 28.2066 43.7496 27.9998ZM25.7797 13.9365V10.0299C25.7797 9.82314 25.6976 9.62482 25.5513 9.47859C25.4051 9.33236 25.2068 9.25021 25 9.25021C24.7932 9.25021 24.5949 9.33236 24.4486 9.47859C24.3024 9.62482 24.2203 9.82314 24.2203 10.0299V13.9365C24.2203 14.1433 24.3024 14.3416 24.4486 14.4878C24.5949 14.634 24.7932 14.7162 25 14.7162C25.2068 14.7162 25.4051 14.634 25.5513 14.4878C25.6976 14.3416 25.7797 14.1433 25.7797 13.9365ZM32.4216 15.9238C32.5586 15.9239 32.6933 15.888 32.812 15.8195C32.9306 15.751 33.0292 15.6525 33.0977 15.5338L34.6602 12.8273C34.762 12.6483 34.7888 12.4363 34.7349 12.2376C34.6809 12.0389 34.5506 11.8696 34.3723 11.7667C34.194 11.6637 33.9822 11.6355 33.7831 11.6881C33.584 11.7407 33.4139 11.87 33.3097 12.0476L31.7472 14.7541C31.6787 14.8726 31.6427 15.007 31.6427 15.1438C31.6426 15.2806 31.6786 15.415 31.7469 15.5336C31.8152 15.6521 31.9136 15.7505 32.032 15.819C32.1504 15.8875 32.2848 15.9237 32.4216 15.9238ZM17.5784 15.9238C17.7152 15.9237 17.8496 15.8876 17.968 15.8191C18.0865 15.7506 18.1848 15.6521 18.2532 15.5336C18.3215 15.4151 18.3575 15.2807 18.3574 15.1438C18.3574 15.007 18.3214 14.8726 18.2529 14.7541L16.6903 12.0476C16.6395 11.9582 16.5715 11.8797 16.4903 11.8167C16.409 11.7537 16.3161 11.7074 16.2168 11.6805C16.1176 11.6535 16.014 11.6465 15.912 11.6597C15.81 11.673 15.7117 11.7063 15.6226 11.7577C15.5336 11.8091 15.4556 11.8776 15.3931 11.9593C15.3307 12.041 15.285 12.1343 15.2587 12.2337C15.2324 12.3331 15.2261 12.4367 15.24 12.5386C15.2539 12.6405 15.2879 12.7386 15.3399 12.8273L16.9024 15.5338C16.9709 15.6525 17.0694 15.7511 17.1881 15.8195C17.3067 15.888 17.4414 15.924 17.5784 15.9238ZM12.1434 21.3573C12.3151 21.3575 12.4821 21.301 12.6184 21.1966C12.7548 21.0922 12.8528 20.9456 12.8973 20.7798C12.9419 20.6139 12.9304 20.438 12.8647 20.2793C12.799 20.1206 12.6828 19.9881 12.534 19.9023L9.82749 18.3397C9.64849 18.2379 9.43651 18.2111 9.2378 18.265C9.0391 18.319 8.86979 18.4493 8.76684 18.6276C8.66389 18.806 8.63565 19.0178 8.68827 19.2168C8.7409 19.4159 8.87013 19.586 9.04776 19.6902L11.7543 21.2527C11.8725 21.3212 12.0067 21.3573 12.1434 21.3573ZM38.2457 34.7469C38.0667 34.6451 37.8547 34.6183 37.656 34.6722C37.4573 34.7262 37.288 34.8565 37.1851 35.0349C37.0821 35.2132 37.0539 35.425 37.1065 35.624C37.1591 35.8231 37.2884 35.9933 37.466 36.0974L40.1725 37.66C40.2612 37.7112 40.3591 37.7445 40.4606 37.7578C40.5621 37.7712 40.6653 37.7645 40.7642 37.738C40.8632 37.7115 40.9559 37.6657 41.0371 37.6034C41.1184 37.541 41.1865 37.4633 41.2377 37.3746C41.3411 37.1955 41.3691 36.9827 41.3156 36.7829C41.2621 36.5832 41.1314 36.4129 40.9523 36.3095L38.2457 34.7469ZM12.8194 35.0323C12.716 34.8532 12.5457 34.7225 12.3459 34.669C12.1462 34.6155 11.9334 34.6435 11.7543 34.7469L9.04776 36.3095C8.95908 36.3607 8.88136 36.4288 8.81903 36.5101C8.7567 36.5913 8.71099 36.684 8.68449 36.783C8.658 36.8819 8.65124 36.985 8.66461 37.0865C8.67799 37.1881 8.71122 37.286 8.76243 37.3746C8.86584 37.5537 9.03615 37.6844 9.23591 37.7379C9.33482 37.7644 9.43798 37.7711 9.5395 37.7578C9.64102 37.7444 9.73891 37.7112 9.82758 37.66L12.5341 36.0974C12.7132 35.994 12.8438 35.8237 12.8973 35.6239C12.9508 35.4242 12.9228 35.2114 12.8194 35.0323ZM40.1725 18.3396L37.466 19.9022C37.2869 20.0056 37.1562 20.1759 37.1027 20.3756C37.0492 20.5754 37.0772 20.7882 37.1807 20.9673C37.2841 21.1464 37.4544 21.2771 37.6541 21.3306C37.8539 21.3841 38.0667 21.3561 38.2458 21.2527L40.9523 19.6901C41.1314 19.5867 41.2621 19.4163 41.3156 19.2166C41.3691 19.0168 41.3411 18.804 41.2377 18.6249C41.1343 18.4458 40.9639 18.3152 40.7642 18.2617C40.5644 18.2081 40.3516 18.2362 40.1725 18.3396ZM8.95 31.4932L7.44064 31.8976C7.34174 31.9241 7.24902 31.9698 7.16778 32.0321C7.08654 32.0945 7.01838 32.1722 6.96718 32.2609C6.91598 32.3496 6.88275 32.4474 6.86938 32.549C6.85601 32.6505 6.86278 32.7536 6.88928 32.8526C6.9337 33.0183 7.03152 33.1648 7.1676 33.2693C7.30368 33.3738 7.47042 33.4305 7.64201 33.4307C7.7103 33.4307 7.77829 33.4217 7.84425 33.404L9.35361 32.9996C9.76959 32.8881 10.0165 32.4606 9.90497 32.0447C9.87848 31.9457 9.83277 31.853 9.77044 31.7718C9.70811 31.6905 9.63038 31.6223 9.5417 31.5711C9.45303 31.5199 9.35513 31.4867 9.2536 31.4733C9.15208 31.4599 9.04891 31.4667 8.95 31.4932ZM42.1558 22.5957L40.6465 23.0001C40.5476 23.0266 40.4549 23.0723 40.3736 23.1347C40.2924 23.197 40.2242 23.2747 40.173 23.3634C40.1218 23.4521 40.0886 23.55 40.0752 23.6515C40.0619 23.753 40.0686 23.8562 40.0951 23.9551C40.1395 24.1208 40.2374 24.2673 40.3734 24.3718C40.5095 24.4763 40.6763 24.5331 40.8479 24.5333C40.9161 24.5332 40.9841 24.5242 41.0501 24.5065L42.5595 24.1022C42.9754 23.9907 43.2223 23.5632 43.1108 23.1472C42.9993 22.7312 42.5719 22.4841 42.1558 22.5957ZM20.753 12.9315C20.8213 12.9315 20.8893 12.9225 20.9553 12.9047C21.0542 12.8782 21.1469 12.8325 21.2281 12.7701C21.3094 12.7078 21.3775 12.6301 21.4287 12.5414C21.4799 12.4527 21.5132 12.3548 21.5265 12.2533C21.5399 12.1518 21.5331 12.0486 21.5066 11.9497L21.1022 10.4404C21.0757 10.3415 21.03 10.2487 20.9677 10.1675C20.9053 10.0863 20.8276 10.0181 20.7389 9.96691C20.6503 9.91571 20.5524 9.88248 20.4509 9.86911C20.3493 9.85574 20.2462 9.8625 20.1473 9.88901C20.0484 9.91551 19.9556 9.96123 19.8744 10.0236C19.7932 10.0859 19.725 10.1636 19.6738 10.2523C19.6226 10.341 19.5894 10.4389 19.576 10.5404C19.5626 10.6419 19.5694 10.7451 19.5959 10.844L20.0003 12.3533C20.0447 12.5191 20.1425 12.6656 20.2786 12.7701C20.4147 12.8746 20.5814 12.9313 20.753 12.9315ZM29.247 12.9315C29.4186 12.9313 29.5853 12.8746 29.7214 12.7701C29.8575 12.6655 29.9553 12.5191 29.9997 12.3533L30.4041 10.844C30.4306 10.7451 30.4374 10.6419 30.424 10.5404C30.4106 10.4389 30.3774 10.341 30.3262 10.2523C30.275 10.1636 30.2068 10.0859 30.1256 10.0236C30.0444 9.96123 29.9516 9.91551 29.8527 9.88901C29.437 9.77741 29.0093 10.0244 28.8978 10.4404L28.4934 11.9497C28.4669 12.0486 28.4601 12.1518 28.4735 12.2533C28.4868 12.3548 28.5201 12.4527 28.5713 12.5414C28.6225 12.6301 28.6906 12.7078 28.7719 12.7701C28.8531 12.8325 28.9458 12.8782 29.0447 12.9047C29.1123 12.9229 29.1802 12.9315 29.247 12.9315ZM7.44064 24.1021L8.95 24.5065C9.01754 24.5246 9.08548 24.5332 9.15224 24.5332C9.32383 24.533 9.49057 24.4762 9.62665 24.3717C9.76273 24.2672 9.86055 24.1207 9.90497 23.955C9.93147 23.8561 9.93823 23.7529 9.92487 23.6514C9.9115 23.5499 9.87827 23.452 9.82707 23.3633C9.77587 23.2746 9.70771 23.1969 9.62647 23.1346C9.54523 23.0722 9.45251 23.0265 9.35361 23L7.84425 22.5956C7.64529 22.5446 7.43422 22.574 7.25688 22.6777C7.07954 22.7813 6.95025 22.9507 6.89709 23.1492C6.84393 23.3476 6.8712 23.5589 6.97297 23.7373C7.07475 23.9158 7.2428 24.0468 7.44064 24.1021ZM42.3581 33.4307C42.5297 33.4305 42.6964 33.3738 42.8325 33.2693C42.9686 33.1648 43.0664 33.0183 43.1108 32.8526C43.1373 32.7536 43.1441 32.6505 43.1307 32.549C43.1174 32.4474 43.0841 32.3496 43.0329 32.2609C42.9817 32.1722 42.9136 32.0945 42.8323 32.0321C42.7511 31.9698 42.6584 31.9241 42.5595 31.8976L41.0501 31.4932C40.9512 31.4667 40.848 31.4599 40.7465 31.4733C40.645 31.4867 40.5471 31.5199 40.4584 31.5711C40.3697 31.6223 40.292 31.6905 40.2297 31.7717C40.1674 31.8529 40.1216 31.9457 40.0951 32.0446C40.0686 32.1435 40.0619 32.2466 40.0752 32.3481C40.0886 32.4497 40.1218 32.5476 40.173 32.6362C40.2242 32.7249 40.2924 32.8026 40.3736 32.865C40.4549 32.9273 40.5476 32.973 40.6465 32.9995L42.1558 33.4039C42.2218 33.4217 42.2898 33.4307 42.3581 33.4307ZM13.9497 16.9494C14.0221 16.877 14.0795 16.7911 14.1187 16.6965C14.1579 16.6019 14.1781 16.5005 14.1781 16.3981C14.1781 16.2957 14.1579 16.1943 14.1187 16.0997C14.0795 16.0051 14.0221 15.9192 13.9497 15.8468L12.8447 14.7419C12.7726 14.6682 12.6866 14.6095 12.5917 14.5692C12.4967 14.529 12.3947 14.5079 12.2916 14.5074C12.1885 14.5068 12.0863 14.5267 11.9909 14.5659C11.8955 14.6051 11.8088 14.6628 11.7359 14.7357C11.663 14.8086 11.6052 14.8953 11.566 14.9907C11.5268 15.0861 11.507 15.1883 11.5075 15.2914C11.5081 15.3946 11.5291 15.4966 11.5694 15.5915C11.6097 15.6864 11.6684 15.7725 11.7421 15.8446L12.8471 16.9494C12.9993 17.1017 13.1988 17.1778 13.3984 17.1778C13.5981 17.1778 13.7975 17.1018 13.9497 16.9494ZM38.258 15.8446C38.3317 15.7725 38.3904 15.6864 38.4307 15.5915C38.471 15.4966 38.492 15.3946 38.4926 15.2914C38.4931 15.1883 38.4733 15.0861 38.4341 14.9907C38.3949 14.8953 38.3371 14.8086 38.2642 14.7357C38.1913 14.6628 38.1046 14.6051 38.0092 14.5659C37.9138 14.5267 37.8116 14.5068 37.7085 14.5074C37.6054 14.5079 37.5034 14.529 37.4084 14.5692C37.3135 14.6095 37.2275 14.6682 37.1554 14.7419L36.0504 15.8468C35.978 15.9192 35.9205 16.0051 35.8814 16.0997C35.8422 16.1943 35.822 16.2957 35.822 16.3981C35.822 16.5005 35.8422 16.6019 35.8814 16.6965C35.9205 16.7911 35.978 16.877 36.0504 16.9494C36.1227 17.022 36.2086 17.0795 36.3033 17.1187C36.3979 17.1579 36.4993 17.178 36.6018 17.1779C36.7042 17.178 36.8056 17.1579 36.9002 17.1187C36.9948 17.0795 37.0808 17.022 37.1531 16.9495L38.258 15.8446Z" fill="white"/>
<path d="M4.69981 27.2934C4.87612 22.1364 6.98392 17.2857 10.6349 13.6347C14.2859 9.98385 19.1366 7.87605 24.2936 7.69964C29.4242 7.52381 34.3834 9.26932 38.2569 12.6137C38.4134 12.7488 38.6173 12.8162 38.8235 12.8011C39.0297 12.786 39.2215 12.6895 39.3567 12.533C39.4918 12.3765 39.5592 12.1727 39.5441 11.9664C39.529 11.7602 39.4326 11.5684 39.276 11.4333C35.1045 7.83161 29.7641 5.95188 24.2403 6.14106C18.687 6.33102 13.4635 8.60061 9.53216 12.532C5.60078 16.4633 3.33109 21.6868 3.14123 27.2401C2.95234 32.7646 4.83177 38.1044 8.43343 42.2758C8.50658 42.3608 8.59723 42.4289 8.69916 42.4755C8.80108 42.5222 8.91189 42.5462 9.02398 42.546C9.17331 42.546 9.31948 42.503 9.44511 42.4223C9.57075 42.3416 9.67056 42.2265 9.73269 42.0907C9.79481 41.9549 9.81664 41.8041 9.79557 41.6563C9.7745 41.5085 9.71143 41.3698 9.61384 41.2567C6.26959 37.3833 4.52437 32.4244 4.69981 27.2934ZM41.5665 13.7238C41.4313 13.5673 41.2395 13.4709 41.0333 13.4558C40.8271 13.4406 40.6233 13.5081 40.4668 13.6432C40.3102 13.7783 40.2138 13.9701 40.1987 14.1764C40.1836 14.3826 40.251 14.5864 40.3862 14.7429C43.7305 18.6163 45.4756 23.5753 45.3002 28.7063C45.1239 33.8633 43.0161 38.714 39.3651 42.3649C35.7141 46.0158 30.8633 48.1236 25.7064 48.3C20.5755 48.4759 15.6166 46.7303 11.7431 43.386C11.5865 43.2509 11.3827 43.1835 11.1765 43.1986C10.9703 43.2137 10.7785 43.3102 10.6434 43.4667C10.5082 43.6232 10.4408 43.827 10.4559 44.0332C10.471 44.2395 10.5675 44.4313 10.724 44.5664C14.7045 48.0031 19.7479 49.8716 25.0013 49.8716C25.2533 49.8716 25.5068 49.8673 25.7597 49.8586C31.3131 49.6687 36.5365 47.399 40.4678 43.4677C44.3992 39.5364 46.6689 34.3129 46.8588 28.7596C47.0476 23.235 45.1681 17.8952 41.5665 13.7238Z" fill="white"/>
<path d="M34.9269 18.0728C34.7958 17.9417 34.6222 17.8616 34.4373 17.8469C34.2524 17.8322 34.0683 17.8839 33.9181 17.9927L25.4533 24.124C24.3082 23.9912 23.1153 24.362 22.2388 25.2386C20.7163 26.7611 20.7163 29.2385 22.2388 30.761C23.0001 31.5223 24 31.9029 25 31.9029C26 31.9029 26.9999 31.5223 27.7612 30.761C28.6377 29.8845 29.0086 28.6916 28.8758 27.5465L35.0071 19.0816C35.1159 18.9314 35.1676 18.7473 35.1529 18.5624C35.1382 18.3775 35.0581 18.2039 34.9269 18.0728ZM26.6585 29.6583C25.744 30.5728 24.256 30.5728 23.3415 29.6583C22.427 28.7439 22.427 27.2557 23.3415 26.3413C23.7987 25.8841 24.3994 25.6555 25 25.6555C25.6006 25.6555 26.2013 25.8841 26.6585 26.3413C27.573 27.2557 27.573 28.7439 26.6585 29.6583ZM28.2205 25.7928C28.0847 25.5943 27.931 25.4088 27.7611 25.2386C27.5909 25.0688 27.4054 24.9151 27.207 24.7793L30.8832 22.1166L28.2205 25.7928ZM17.187 42.0616H32.813C33.6738 42.0616 34.374 41.3613 34.374 40.5005V37.3753C34.374 36.5146 33.6737 35.8143 32.813 35.8143H31.2504C31.0436 35.8143 30.8453 35.8965 30.699 36.0427C30.5528 36.1889 30.4707 36.3873 30.4707 36.5941C30.4707 36.8008 30.5528 36.9992 30.699 37.1454C30.8453 37.2916 31.0436 37.3738 31.2504 37.3738L32.8145 37.3753L32.813 40.5021L17.1855 40.5005L17.187 37.3738H28.125C28.3317 37.3738 28.5301 37.2916 28.6763 37.1454C28.8225 36.9992 28.9047 36.8008 28.9047 36.5941C28.9047 36.3873 28.8225 36.1889 28.6763 36.0427C28.5301 35.8965 28.3317 35.8143 28.125 35.8143H17.187C16.3262 35.8143 15.626 36.5146 15.626 37.3753V40.5005C15.626 41.3613 16.3262 42.0616 17.187 42.0616Z" fill="white"/>
</svg>
