<svg width="50" height="50" viewBox="0 0 50 50" fill="none" xmlns="http://www.w3.org/2000/svg">
<path d="M9.86111 40.7431C10.1458 40.7431 10.3819 40.507 10.3819 40.2223V39.0487C10.3819 38.7639 10.1458 38.5278 9.86111 38.5278C9.57639 38.5278 9.34028 38.7639 9.34028 39.0487V40.2223C9.34028 40.5139 9.57639 40.7431 9.86111 40.7431ZM12.5278 40.7431C12.8125 40.7431 13.0486 40.507 13.0486 40.2223V39.0487C13.0486 38.7639 12.8125 38.5278 12.5278 38.5278C12.2431 38.5278 12.0069 38.7639 12.0069 39.0487V40.2223C12.0069 40.5139 12.2431 40.7431 12.5278 40.7431ZM15.2014 40.7431C15.4861 40.7431 15.7222 40.507 15.7222 40.2223V39.0487C15.7222 38.7639 15.4861 38.5278 15.2014 38.5278C14.9167 38.5278 14.6806 38.7639 14.6806 39.0487V40.2223C14.6806 40.5139 14.9167 40.7431 15.2014 40.7431ZM17.875 40.7431C18.1597 40.7431 18.3958 40.507 18.3958 40.2223V39.0487C18.3958 38.7639 18.1597 38.5278 17.875 38.5278C17.5903 38.5278 17.3542 38.7639 17.3542 39.0487V40.2223C17.3542 40.5139 17.5833 40.7431 17.875 40.7431ZM9.86111 44.3334C10.1458 44.3334 10.3819 44.0973 10.3819 43.8126V42.632C10.3819 42.3473 10.1458 42.1112 9.86111 42.1112C9.57639 42.1112 9.34028 42.3473 9.34028 42.632V43.8126C9.34028 44.1042 9.57639 44.3334 9.86111 44.3334ZM12.5278 44.3334C12.8125 44.3334 13.0486 44.0973 13.0486 43.8126V42.632C13.0486 42.3473 12.8125 42.1112 12.5278 42.1112C12.2431 42.1112 12.0069 42.3473 12.0069 42.632V43.8126C12.0069 44.1042 12.2431 44.3334 12.5278 44.3334ZM15.2014 44.3334C15.4861 44.3334 15.7222 44.0973 15.7222 43.8126V42.632C15.7222 42.3473 15.4861 42.1112 15.2014 42.1112C14.9167 42.1112 14.6806 42.3473 14.6806 42.632V43.8126C14.6806 44.1042 14.9167 44.3334 15.2014 44.3334ZM17.875 44.3334C18.1597 44.3334 18.3958 44.0973 18.3958 43.8126V42.632C18.3958 42.3473 18.1597 42.1112 17.875 42.1112C17.5903 42.1112 17.3542 42.3473 17.3542 42.632V43.8126C17.3542 44.1042 17.5833 44.3334 17.875 44.3334ZM21.8819 44.3334H39.3056C39.5903 44.3334 39.8264 44.0973 39.8264 43.8126V39.0487C39.8264 38.7639 39.5903 38.5278 39.3056 38.5278H21.8819C21.5972 38.5278 21.3611 38.7639 21.3611 39.0487V43.8126C21.3611 44.1042 21.5903 44.3334 21.8819 44.3334ZM22.4028 39.5695H38.7847V43.2917H22.4028V39.5695Z" fill="white"/>
<path d="M27.7083 40.9097H26.9514C26.6667 40.9097 26.4306 41.1458 26.4306 41.4306C26.4306 41.7153 26.6667 41.9514 26.9514 41.9514H27.7083C27.8465 41.9514 27.9789 41.8965 28.0766 41.7988C28.1743 41.7012 28.2292 41.5687 28.2292 41.4306C28.2292 41.2924 28.1743 41.16 28.0766 41.0623C27.9789 40.9646 27.8465 40.9097 27.7083 40.9097ZM30.9722 40.9097H30.2083C29.9236 40.9097 29.6875 41.1458 29.6875 41.4306C29.6875 41.7153 29.9236 41.9514 30.2083 41.9514H30.9653C31.25 41.9514 31.4861 41.7153 31.4861 41.4306C31.4861 41.1458 31.2569 40.9097 30.9722 40.9097ZM34.2292 40.9097H33.4722C33.1875 40.9097 32.9514 41.1458 32.9514 41.4306C32.9514 41.7153 33.1875 41.9514 33.4722 41.9514H34.2292C34.3673 41.9514 34.4998 41.8965 34.5975 41.7988C34.6951 41.7012 34.75 41.5687 34.75 41.4306C34.75 41.2924 34.6951 41.16 34.5975 41.0623C34.4998 40.9646 34.3673 40.9097 34.2292 40.9097Z" fill="white"/>
<path d="M42.4931 23.3889C42.2083 23.3889 41.9722 23.625 41.9722 23.9097V31.7778C41.9722 32.132 41.6806 32.4167 41.3264 32.4167H17.6111C17.3264 32.4167 17.0903 32.6528 17.0903 32.9375C17.0903 33.2222 17.3264 33.4583 17.6111 33.4583H39.3681V35.8125H9.92361V33.4583H11.8056C12.0903 33.4583 12.3264 33.2222 12.3264 32.9375C12.3264 32.6528 12.0903 32.4167 11.8056 32.4167H7.96528C7.61111 32.4167 7.31945 32.132 7.31945 31.7778V23.9097C7.31945 23.5556 7.61111 23.2708 7.96528 23.2708H9.58333C9.86806 23.2708 10.1042 23.0347 10.1042 22.75C10.1042 22.4653 9.86806 22.2222 9.58333 22.2222H7.96528C7.51893 22.2222 7.09075 22.3991 6.77448 22.714C6.45822 23.029 6.27962 23.4564 6.27778 23.9028V31.7708C6.27778 32.7014 7.03472 33.4514 7.96528 33.4514H8.88195V35.8125H7.96528C7.03472 35.8125 6.27778 36.5695 6.27778 37.5V45.3611C6.27778 46.2917 7.03472 47.0486 7.96528 47.0486H41.3264C42.2569 47.0486 43.0139 46.2917 43.0139 45.3611V37.5C43.0139 36.5695 42.2569 35.8125 41.3264 35.8125H40.4097V33.4514H41.3264C41.7727 33.4514 42.2009 33.2746 42.5172 32.9596C42.8335 32.6446 43.0121 32.2172 43.0139 31.7708V23.9097C43.0139 23.6181 42.7778 23.3889 42.4931 23.3889ZM41.9653 37.5V45.3611C41.9653 45.7153 41.6736 46.007 41.3194 46.007H7.96528C7.61111 46.007 7.31945 45.7153 7.31945 45.3611V37.5C7.31945 37.1458 7.61111 36.8542 7.96528 36.8542H41.3264C41.6806 36.8542 41.9653 37.1458 41.9653 37.5Z" fill="white"/>
<path d="M31.5278 22.2222H21.4583C21.1736 22.2222 20.9375 22.4583 20.9375 22.7431C20.9375 23.0278 21.1736 23.2639 21.4583 23.2639H31.5278C31.8125 23.2639 32.0486 23.0278 32.0486 22.7431C32.0486 22.4583 31.8125 22.2222 31.5278 22.2222ZM32.4514 24.9375H21.8819C21.5972 24.9375 21.3611 25.1736 21.3611 25.4583V30.2292C21.3611 30.5139 21.5972 30.75 21.8819 30.75H39.3056C39.5903 30.75 39.8264 30.5139 39.8264 30.2292V27.5C39.8264 27.2153 39.5903 26.9792 39.3056 26.9792C39.0208 26.9792 38.7847 27.2153 38.7847 27.5V29.7083H22.4028V25.9792H32.4514C32.5895 25.9792 32.722 25.9243 32.8197 25.8266C32.9173 25.7289 32.9722 25.5965 32.9722 25.4583C32.9722 25.3202 32.9173 25.1877 32.8197 25.0901C32.722 24.9924 32.5895 24.9375 32.4514 24.9375Z" fill="white"/>
<path d="M26.9514 27.3195C26.6667 27.3195 26.4306 27.5556 26.4306 27.8403C26.4306 28.125 26.6667 28.3611 26.9514 28.3611H27.7083C27.9931 28.3611 28.2292 28.125 28.2292 27.8403C28.2292 27.5556 27.9931 27.3195 27.7083 27.3195H26.9514ZM30.2083 27.3195C29.9236 27.3195 29.6875 27.5556 29.6875 27.8403C29.6875 28.125 29.9236 28.3611 30.2083 28.3611H30.9653C31.25 28.3611 31.4861 28.125 31.4861 27.8403C31.4861 27.5556 31.25 27.3195 30.9653 27.3195H30.2083ZM33.4722 28.3611H34.2292C34.5139 28.3611 34.75 28.125 34.75 27.8403C34.75 27.5556 34.5139 27.3195 34.2292 27.3195H33.4722C33.1875 27.3195 32.9514 27.5556 32.9514 27.8403C32.9514 28.125 33.1875 28.3611 33.4722 28.3611ZM43.5208 9.20835C43.5139 9.0139 43.3958 8.84029 43.2222 8.75696C43.0486 8.67362 42.8403 8.7014 42.6806 8.81946L40.4722 10.5417L40.3472 8.59029C40.3379 8.45844 40.279 8.335 40.1824 8.24482C40.0858 8.15463 39.9586 8.10438 39.8264 8.10418H39.1042V6.02779C39.1042 5.74307 38.8681 5.50696 38.5833 5.50696H35.4167C35.1319 5.50696 34.8958 5.74307 34.8958 6.02779V8.09724H34.1736C33.8958 8.09724 33.6736 8.31251 33.6528 8.58335L33.5347 10.4445L31.4444 8.81251C31.3685 8.75356 31.2779 8.71657 31.1823 8.70555C31.0868 8.69453 30.9901 8.70991 30.9028 8.75001C30.7292 8.83335 30.6111 9.00696 30.6042 9.2014L30.3958 13.9722C30.3889 14.1389 30.4583 14.2986 30.5903 14.4028L33.1458 16.4445L33.0625 17.7639C32.8125 17.7778 32.6111 17.9653 32.5764 18.2153C32.5417 18.5139 31.7014 25.5972 36.8264 27.3333C36.8819 27.3542 36.9375 27.3611 36.9931 27.3611C37.0486 27.3611 37.1042 27.3542 37.1597 27.3333C42.2847 25.5972 41.4514 18.5139 41.4097 18.2153C41.3929 18.0956 41.3354 17.9855 41.2469 17.9032C41.1583 17.821 41.0442 17.7718 40.9236 17.7639L40.8472 16.5347L43.5208 14.4028C43.6528 14.2986 43.7222 14.1389 43.7153 13.9722L43.5208 9.20835ZM35.9375 6.54862H38.0625V8.09724H35.9375V6.54862ZM35.4167 9.1389H39.3333L39.8889 17.7639H34.1111L34.6667 9.1389H35.4167ZM31.4444 13.757L31.5972 10.257L33.4514 11.7014L33.2292 15.1806L31.4444 13.757ZM37 26.2847C33.5208 24.9653 33.4931 20.2847 33.5764 18.7986H40.4167C40.5 20.2847 40.4792 24.9653 37 26.2847ZM40.7708 15.2708L40.5486 11.7917L42.5208 10.257L42.6736 13.757L40.7708 15.2708Z" fill="white"/>
<path d="M37 16.7292C37.2847 16.7292 37.5208 16.4931 37.5208 16.2084V10.5C37.5208 10.2153 37.2847 9.97919 37 9.97919C36.7153 9.97919 36.4792 10.2153 36.4792 10.5V16.2084C36.4792 16.4931 36.7083 16.7292 37 16.7292ZM38.0972 4.60419C38.3819 4.60419 38.6181 4.36808 38.6181 4.08336V3.47225C38.6181 3.18753 38.3819 2.95142 38.0972 2.95142C37.8125 2.95142 37.5764 3.18753 37.5764 3.47225V4.08336C37.5764 4.36808 37.8125 4.60419 38.0972 4.60419ZM35.8958 4.60419C36.1806 4.60419 36.4167 4.36808 36.4167 4.08336V3.47225C36.4167 3.18753 36.1806 2.95142 35.8958 2.95142C35.6111 2.95142 35.375 3.18753 35.375 3.47225V4.08336C35.375 4.36808 35.6111 4.60419 35.8958 4.60419ZM11.3333 22.0417L11.25 23.3611C11 23.375 10.7986 23.5625 10.7639 23.8125C10.7292 24.1111 9.88889 31.1945 15.0139 32.9306C15.0694 32.9514 15.125 32.9584 15.1806 32.9584C15.2361 32.9584 15.2917 32.9514 15.3472 32.9306C20.4722 31.1945 19.6389 24.1181 19.5972 23.8125C19.5804 23.6929 19.5229 23.5827 19.4344 23.5005C19.3458 23.4183 19.2317 23.3691 19.1111 23.3611L19.0347 22.132L21.7083 20C21.8403 19.8959 21.9097 19.7361 21.9028 19.5695L21.6944 14.7986C21.6904 14.7034 21.6604 14.611 21.6078 14.5315C21.5552 14.452 21.4819 14.3883 21.3958 14.3472C21.3084 14.3074 21.2118 14.2921 21.1163 14.3031C21.0209 14.3141 20.9302 14.351 20.8542 14.4097L18.6458 16.132L18.5208 14.1806C18.5115 14.0487 18.4526 13.9253 18.356 13.8351C18.2594 13.7449 18.1322 13.6947 18 13.6945H17.2917V11.625C17.2917 11.3403 17.0556 11.1042 16.7708 11.1042H13.6042C13.3194 11.1042 13.0833 11.3403 13.0833 11.625V13.6945H12.3611C12.0833 13.6945 11.8611 13.9097 11.8403 14.1806L11.7222 16.0417L9.63195 14.4167C9.55601 14.3577 9.46535 14.3207 9.36985 14.3097C9.27435 14.2987 9.17765 14.3141 9.09028 14.3542C8.91667 14.4375 8.79862 14.6111 8.79167 14.8056L8.58334 19.5764C8.57639 19.7431 8.64584 19.9028 8.77778 20.007L11.3333 22.0417ZM15.1875 31.875C11.7083 30.5556 11.6806 25.875 11.7639 24.3959H18.6042C18.6875 25.882 18.6667 30.5556 15.1875 31.875ZM20.7083 15.8472L20.8611 19.3472L18.9583 20.8611L18.7361 17.382L20.7083 15.8472ZM14.125 12.1389H16.25V13.6875H14.125V12.1389ZM13.6042 14.7292H17.5208L18.0764 23.3542H12.2917L12.8472 14.7292H13.6042ZM9.78473 15.8472L11.6389 17.2917L11.4167 20.7709L9.63195 19.3472L9.78473 15.8472Z" fill="white"/>
<path d="M15.1875 22.3195C15.4722 22.3195 15.7083 22.0834 15.7083 21.7986V16.0903C15.7083 15.8056 15.4722 15.5695 15.1875 15.5695C14.9028 15.5695 14.6667 15.8056 14.6667 16.0903V21.7986C14.6667 22.0903 14.8958 22.3195 15.1875 22.3195ZM16.2847 10.1945C16.5694 10.1945 16.8056 9.95835 16.8056 9.67363V9.06252C16.8056 8.7778 16.5694 8.54169 16.2847 8.54169C16 8.54169 15.7639 8.7778 15.7639 9.06252V9.67363C15.7639 9.95835 16 10.1945 16.2847 10.1945ZM14.0833 10.1945C14.3681 10.1945 14.6042 9.95835 14.6042 9.67363V9.06252C14.6042 8.7778 14.3681 8.54169 14.0833 8.54169C13.7986 8.54169 13.5625 8.7778 13.5625 9.06252V9.67363C13.5625 9.95835 13.7917 10.1945 14.0833 10.1945Z" fill="white"/>
</svg>
