<svg width="50" height="50" viewBox="0 0 50 50" fill="none" xmlns="http://www.w3.org/2000/svg">
<path d="M4.6875 38.2812H6.25V39.8438H4.6875V38.2812ZM7.8125 39.0625H9.375V40.625H7.8125V39.0625ZM4.6875 43.75H6.25V45.3125H4.6875V43.75ZM7.8125 44.5312H9.375V46.0938H7.8125V44.5312ZM21.0938 38.2812H22.6562V39.8438H21.0938V38.2812ZM24.2188 39.0625H25.7812V40.625H24.2188V39.0625ZM21.0938 43.75H22.6562V45.3125H21.0938V43.75ZM24.2188 44.5312H25.7812V46.0938H24.2188V44.5312Z" fill="white"/>
<path d="M42.1875 31.2734V27.3437C42.1875 27.1365 42.1052 26.9378 41.9587 26.7913C41.8122 26.6448 41.6134 26.5625 41.4062 26.5625H27.2031C27.0848 26.2358 26.8961 25.9391 26.6504 25.6934C26.4047 25.4476 26.108 25.259 25.7812 25.1406V22.6562H35.1562C36.8139 22.6562 38.4036 21.9978 39.5757 20.8257C40.7478 19.6536 41.4062 18.0638 41.4062 16.4062C41.4062 14.7486 40.7478 13.1589 39.5757 11.9868C38.4036 10.8147 36.8139 10.1562 35.1562 10.1562H35.0938C35.1343 9.89777 35.1552 9.63661 35.1562 9.37499C35.1562 8.13179 34.6624 6.9395 33.7833 6.06043C32.9042 5.18135 31.712 4.68749 30.4688 4.68749C29.991 4.68897 29.5165 4.76542 29.0625 4.91405C28.1132 3.54848 26.7527 2.5217 25.1791 1.98332C23.6055 1.44494 21.9012 1.42308 20.3143 1.92094C18.7274 2.41879 17.341 3.41034 16.357 4.75112C15.373 6.09191 14.8428 7.71187 14.8438 9.37499C14.8438 9.6328 14.8594 9.89061 14.8828 10.1562H14.8438C13.1861 10.1562 11.5964 10.8147 10.4243 11.9868C9.25223 13.1589 8.59375 14.7486 8.59375 16.4062C8.59375 18.0638 9.25223 19.6536 10.4243 20.8257C11.5964 21.9978 13.1861 22.6562 14.8438 22.6562H24.2188V25.1406C23.892 25.259 23.5953 25.4476 23.3496 25.6934C23.1039 25.9391 22.9152 26.2358 22.7969 26.5625H8.59375C8.38655 26.5625 8.18784 26.6448 8.04132 26.7913C7.89481 26.9378 7.8125 27.1365 7.8125 27.3437V31.2734C4.59375 31.414 1.5625 32.4766 1.5625 34.375V45.3125C1.5625 47.3672 5.10156 48.4375 8.59375 48.4375C12.0859 48.4375 15.625 47.3672 15.625 45.3125V34.375C15.625 32.4766 12.5938 31.414 9.375 31.2734V28.125H22.7969C22.9152 28.4517 23.1039 28.7484 23.3496 28.9941C23.5953 29.2398 23.892 29.4285 24.2188 29.5469V31.2734C21 31.414 17.9688 32.4766 17.9688 34.375V45.3125C17.9688 47.3672 21.5078 48.4375 25 48.4375C28.4922 48.4375 32.0312 47.3672 32.0312 45.3125V34.375C32.0312 32.4766 29 31.414 25.7812 31.2734V29.5469C26.108 29.4285 26.4047 29.2398 26.6504 28.9941C26.8961 28.7484 27.0848 28.4517 27.2031 28.125H40.625V31.2734C37.4062 31.414 34.375 32.4766 34.375 34.375V45.3125C34.375 47.3672 37.9141 48.4375 41.4062 48.4375C44.8984 48.4375 48.4375 47.3672 48.4375 45.3125V34.375C48.4375 32.4766 45.4062 31.414 42.1875 31.2734ZM14.0625 45.3125C14.0625 45.7656 12.1484 46.875 8.59375 46.875C5.03906 46.875 3.125 45.7656 3.125 45.3125V41.875C4.84145 42.6494 6.7115 43.0234 8.59375 42.9687C10.476 43.0234 12.346 42.6494 14.0625 41.875V45.3125ZM14.0625 39.8437C14.0625 40.2969 12.1484 41.4062 8.59375 41.4062C5.03906 41.4062 3.125 40.2969 3.125 39.8437V36.4062C4.84145 37.1806 6.7115 37.5546 8.59375 37.5C10.476 37.5546 12.346 37.1806 14.0625 36.4062V39.8437ZM14.0625 34.375C14.0625 34.8281 12.1484 35.9375 8.59375 35.9375C5.03906 35.9375 3.125 34.8281 3.125 34.375C3.125 33.9219 5.03906 32.8125 8.59375 32.8125C12.1484 32.8125 14.0625 33.9219 14.0625 34.375ZM14.8438 21.0937C13.6005 21.0937 12.4083 20.5999 11.5292 19.7208C10.6501 18.8417 10.1562 17.6494 10.1562 16.4062C10.1562 15.163 10.6501 13.9708 11.5292 13.0917C12.4083 12.2126 13.6005 11.7187 14.8438 11.7187H15.8047C15.922 11.7182 16.0378 11.6912 16.1432 11.6398C16.2487 11.5884 16.3413 11.5139 16.4141 11.4219C16.4868 11.3307 16.5384 11.2246 16.5655 11.1112C16.5925 10.9978 16.5941 10.8798 16.5703 10.7656C16.4628 10.3098 16.4077 9.84327 16.4062 9.37499C16.4079 7.9982 16.8641 6.66048 17.704 5.56957C18.5439 4.47866 19.7205 3.69561 21.0511 3.34203C22.3817 2.98844 23.7919 3.08412 25.0625 3.61419C26.3332 4.14426 27.3933 5.07906 28.0781 6.27343C28.1781 6.44472 28.339 6.57202 28.5287 6.62994C28.7184 6.68786 28.9229 6.67214 29.1016 6.58593C29.5241 6.36686 29.9928 6.2517 30.4688 6.24999C31.2976 6.24999 32.0924 6.57923 32.6785 7.16528C33.2645 7.75133 33.5938 8.54619 33.5938 9.37499C33.5954 9.80583 33.5048 10.232 33.3281 10.625C33.2782 10.7446 33.2579 10.8745 33.2687 11.0037C33.2796 11.1329 33.3214 11.2576 33.3906 11.3672C33.4628 11.4751 33.5604 11.5636 33.6748 11.6249C33.7893 11.6863 33.917 11.7185 34.0469 11.7187H35.1562C36.3995 11.7187 37.5917 12.2126 38.4708 13.0917C39.3499 13.9708 39.8438 15.163 39.8438 16.4062C39.8438 17.6494 39.3499 18.8417 38.4708 19.7208C37.5917 20.5999 36.3995 21.0937 35.1562 21.0937H14.8438ZM30.4688 45.3125C30.4688 45.7656 28.5547 46.875 25 46.875C21.4453 46.875 19.5312 45.7656 19.5312 45.3125V41.875C21.2477 42.6494 23.1177 43.0234 25 42.9687C26.8823 43.0234 28.7523 42.6494 30.4688 41.875V45.3125ZM30.4688 39.8437C30.4688 40.2969 28.5547 41.4062 25 41.4062C21.4453 41.4062 19.5312 40.2969 19.5312 39.8437V36.4062C21.2477 37.1806 23.1177 37.5546 25 37.5C26.8823 37.5546 28.7523 37.1806 30.4688 36.4062V39.8437ZM30.4688 34.375C30.4688 34.8281 28.5547 35.9375 25 35.9375C21.4453 35.9375 19.5312 34.8281 19.5312 34.375C19.5312 33.9219 21.4453 32.8125 25 32.8125C28.5547 32.8125 30.4688 33.9219 30.4688 34.375ZM25 28.125C24.8455 28.125 24.6944 28.0792 24.566 27.9933C24.4375 27.9075 24.3374 27.7855 24.2782 27.6427C24.2191 27.5 24.2036 27.3429 24.2338 27.1913C24.2639 27.0398 24.3383 26.9006 24.4476 26.7913C24.5568 26.6821 24.696 26.6076 24.8476 26.5775C24.9991 26.5474 25.1562 26.5628 25.299 26.622C25.4417 26.6811 25.5637 26.7812 25.6496 26.9097C25.7354 27.0382 25.7812 27.1892 25.7812 27.3437C25.7812 27.5509 25.6989 27.7497 25.5524 27.8962C25.4059 28.0427 25.2072 28.125 25 28.125ZM46.875 45.3125C46.875 45.7656 44.9609 46.875 41.4062 46.875C37.8516 46.875 35.9375 45.7656 35.9375 45.3125V41.875C37.654 42.6494 39.524 43.0234 41.4062 42.9687C43.2885 43.0234 45.1585 42.6494 46.875 41.875V45.3125ZM46.875 39.8437C46.875 40.2969 44.9609 41.4062 41.4062 41.4062C37.8516 41.4062 35.9375 40.2969 35.9375 39.8437V36.4062C37.654 37.1806 39.524 37.5546 41.4062 37.5C43.2885 37.5546 45.1585 37.1806 46.875 36.4062V39.8437ZM41.4062 35.9375C37.8516 35.9375 35.9375 34.8281 35.9375 34.375C35.9375 33.9219 37.8516 32.8125 41.4062 32.8125C44.9609 32.8125 46.875 33.9219 46.875 34.375C46.875 34.8281 44.9609 35.9375 41.4062 35.9375Z" fill="white"/>
<path d="M37.5 38.2812H39.0625V39.8438H37.5V38.2812ZM40.625 39.0625H42.1875V40.625H40.625V39.0625ZM37.5 43.75H39.0625V45.3125H37.5V43.75ZM40.625 44.5312H42.1875V46.0938H40.625V44.5312ZM17.9688 9.375H19.5312C19.5312 8.5462 19.8605 7.75134 20.4465 7.16529C21.0326 6.57924 21.8274 6.25 22.6562 6.25V4.6875C21.4134 4.68874 20.2219 5.183 19.3431 6.06181C18.4642 6.94062 17.97 8.13218 17.9688 9.375ZM38.2812 16.4062H36.7188C36.7188 16.8207 36.5541 17.2181 36.2611 17.5111C35.9681 17.8041 35.5707 17.9688 35.1562 17.9688V19.5312C35.9851 19.5312 36.7799 19.202 37.366 18.616C37.952 18.0299 38.2812 17.2351 38.2812 16.4062Z" fill="white"/>
</svg>
