<svg width="50" height="50" viewBox="0 0 50 50" fill="none" xmlns="http://www.w3.org/2000/svg">
<path fill-rule="evenodd" clip-rule="evenodd" d="M40.11 38.22C39.8 38.22 39.55 37.97 39.55 37.66V18.26H35.15C34.84 18.26 34.59 18.01 34.59 17.7C34.59 17.39 34.84 17.14 35.15 17.14H39.92C40.33 17.14 40.67 17.48 40.67 17.92V37.66C40.67 37.97 40.42 38.22 40.11 38.22ZM9.79999 38.22C9.48999 38.22 9.23999 37.97 9.23999 37.66V17.95C9.23999 17.54 9.60999 17.17 10.02 17.17H14.76C15.07 17.17 15.32 17.42 15.32 17.73C15.32 18.04 15.07 18.29 14.76 18.29H10.33V37.69C10.33 37.97 10.11 38.22 9.79999 38.22Z" fill="white"/>
<path fill-rule="evenodd" clip-rule="evenodd" d="M40.92 42.43H9.01999C7.23999 42.43 5.79999 41 5.79999 39.22V37.66C5.79999 37.35 6.04999 37.1 6.35999 37.1H43.63C43.94 37.1 44.19 37.35 44.19 37.66V39.22C44.16 41 42.7 42.43 40.92 42.43ZM6.89999 38.22V39.22C6.89999 40.41 7.86999 41.34 9.01999 41.34H40.92C42.11 41.34 43.07 40.37 43.07 39.22V38.22H6.89999Z" fill="white"/>
<path fill-rule="evenodd" clip-rule="evenodd" d="M30.1 40.31H19.84C19.53 40.31 19.28 40.06 19.28 39.75V37.63C19.28 37.32 19.53 37.07 19.84 37.07C20.15 37.07 20.4 37.38 20.4 37.66V39.22H29.54V37.66C29.54 37.35 29.79 37.1 30.1 37.1C30.41 37.1 30.66 37.35 30.66 37.66V39.78C30.63 40.09 30.38 40.31 30.1 40.31ZM35.62 35.42H14.32C14.01 35.42 13.76 35.17 13.76 34.86C13.76 34.55 14.01 34.3 14.32 34.3H35.59C35.9 34.3 36.15 34.55 36.15 34.86C36.15 35.17 35.9 35.42 35.62 35.42ZM34.68 29.09H15.22C14.66 29.09 14.19 28.62 14.19 28.06V21.76C14.19 21.45 14.44 21.2 14.75 21.2H35.15C35.46 21.2 35.71 21.45 35.71 21.76V28.06C35.71 28.65 35.24 29.09 34.68 29.09ZM15.29 27.99H34.59V22.28H15.29V27.99Z" fill="white"/>
<path fill-rule="evenodd" clip-rule="evenodd" d="M35.15 22.29C34.84 22.29 34.59 22.04 34.59 21.73V14.93C34.59 14.62 34.84 14.37 35.15 14.37C35.46 14.37 35.71 14.62 35.71 14.93V21.76C35.71 22.07 35.46 22.29 35.15 22.29ZM14.75 22.29C14.44 22.29 14.19 22.04 14.19 21.73V14.93C14.19 14.62 14.44 14.37 14.75 14.37C15.06 14.37 15.31 14.62 15.31 14.93V21.76C15.29 22.07 15.07 22.29 14.75 22.29Z" fill="white"/>
<path fill-rule="evenodd" clip-rule="evenodd" d="M35.18 15.49H14.75C14.44 15.49 14.19 15.24 14.19 14.93V8.13001C14.19 7.82001 14.44 7.57001 14.75 7.57001H35.18C35.49 7.57001 35.74 7.82001 35.74 8.13001V14.93C35.74 15.24 35.49 15.49 35.18 15.49ZM15.29 14.4H34.63V8.66001H15.29V14.4Z" fill="white"/>
<path fill-rule="evenodd" clip-rule="evenodd" d="M17.9 13.46C16.87 13.46 16 12.59 16 11.56C16 10.53 16.87 9.63 17.9 9.63C18.96 9.63 19.8 10.5 19.8 11.53C19.81 12.56 18.97 13.46 17.9 13.46ZM17.9 10.72C17.46 10.72 17.09 11.09 17.09 11.53C17.09 11.97 17.46 12.34 17.9 12.34C18.37 12.34 18.71 11.97 18.71 11.53C18.75 11.09 18.37 10.72 17.9 10.72ZM22.11 13.46C21.08 13.46 20.21 12.59 20.21 11.56C20.21 10.53 21.08 9.63 22.11 9.63C23.17 9.63 24.01 10.5 24.01 11.53C24.02 12.56 23.18 13.46 22.11 13.46ZM22.11 10.72C21.67 10.72 21.3 11.09 21.3 11.53C21.3 11.97 21.67 12.34 22.11 12.34C22.58 12.34 22.92 11.97 22.92 11.53C22.96 11.09 22.58 10.72 22.11 10.72ZM33.37 12.09H26.42C26.11 12.09 25.86 11.84 25.86 11.53C25.86 11.22 26.11 10.97 26.42 10.97H33.37C33.68 10.97 33.93 11.22 33.93 11.53C33.93 11.84 33.65 12.09 33.37 12.09ZM17.9 20.26C16.87 20.26 16 19.39 16 18.36C16 17.33 16.84 16.46 17.9 16.46C18.96 16.46 19.8 17.33 19.8 18.36C19.81 19.39 18.97 20.26 17.9 20.26ZM17.9 17.52C17.46 17.52 17.09 17.89 17.09 18.33C17.09 18.8 17.46 19.14 17.9 19.14C18.37 19.14 18.71 18.77 18.71 18.33C18.75 17.89 18.37 17.52 17.9 17.52ZM22.11 20.26C21.08 20.26 20.21 19.39 20.21 18.36C20.21 17.33 21.05 16.46 22.11 16.46C23.17 16.46 24.01 17.33 24.01 18.36C24.02 19.39 23.18 20.26 22.11 20.26ZM22.11 17.52C21.67 17.52 21.3 17.89 21.3 18.33C21.3 18.8 21.67 19.14 22.11 19.14C22.58 19.14 22.92 18.77 22.92 18.33C22.96 17.89 22.58 17.52 22.11 17.52ZM33.37 18.89H26.42C26.11 18.89 25.86 18.64 25.86 18.33C25.86 18.02 26.11 17.77 26.42 17.77H33.37C33.68 17.77 33.93 18.02 33.93 18.33C33.93 18.64 33.65 18.89 33.37 18.89ZM17.9 27.06C16.87 27.06 16 26.19 16 25.16C16 24.13 16.84 23.26 17.9 23.26C18.96 23.26 19.8 24.1 19.8 25.16C19.84 26.19 18.97 27.06 17.9 27.06ZM17.9 24.35C17.46 24.35 17.09 24.72 17.09 25.16C17.09 25.63 17.46 25.97 17.9 25.97C18.37 25.97 18.71 25.6 18.71 25.16C18.75 24.69 18.37 24.35 17.9 24.35ZM22.11 27.06C21.08 27.06 20.21 26.19 20.21 25.16C20.21 24.13 21.05 23.26 22.11 23.26C23.17 23.26 24.01 24.1 24.01 25.16C24.05 26.19 23.18 27.06 22.11 27.06ZM22.11 24.35C21.67 24.35 21.3 24.72 21.3 25.16C21.3 25.63 21.67 25.97 22.11 25.97C22.58 25.97 22.92 25.6 22.92 25.16C22.96 24.69 22.58 24.35 22.11 24.35ZM33.37 25.69H26.42C26.11 25.69 25.86 25.44 25.86 25.13C25.86 24.82 26.11 24.57 26.42 24.57H33.37C33.68 24.57 33.93 24.82 33.93 25.13C33.93 25.44 33.65 25.69 33.37 25.69ZM24.98 32.58C24.67 32.58 24.42 32.33 24.42 32.02V28.56C24.42 28.25 24.67 28 24.98 28C25.29 28 25.54 28.25 25.54 28.56V32.05C25.51 32.33 25.26 32.58 24.98 32.58ZM17.69 33.95C17.53 33.95 17.41 33.89 17.32 33.79L15.95 32.42C15.86 32.33 15.79 32.17 15.79 32.05C15.79 31.93 15.85 31.77 15.95 31.68L17.32 30.31C17.54 30.09 17.88 30.09 18.1 30.31L19.47 31.68C19.56 31.77 19.63 31.93 19.63 32.05C19.63 32.17 19.57 32.33 19.47 32.42L18.1 33.79C17.97 33.89 17.84 33.95 17.69 33.95ZM17.09 32.05L17.68 32.64L18.27 32.05L17.68 31.46L17.09 32.05Z" fill="white"/>
<path fill-rule="evenodd" clip-rule="evenodd" d="M30.85 32.58H19.06C18.75 32.58 18.5 32.33 18.5 32.02C18.5 31.71 18.75 31.46 19.06 31.46H30.85C31.16 31.46 31.41 31.71 31.41 32.02C31.41 32.33 31.16 32.58 30.85 32.58Z" fill="white"/>
<path fill-rule="evenodd" clip-rule="evenodd" d="M32.22 33.95C32.06 33.95 31.94 33.89 31.85 33.79L30.48 32.42C30.39 32.33 30.32 32.17 30.32 32.05C30.32 31.93 30.38 31.77 30.48 31.68L31.85 30.31C32.07 30.09 32.41 30.09 32.63 30.31L34 31.68C34.22 31.9 34.22 32.24 34 32.46L32.63 33.83C32.5 33.89 32.38 33.95 32.22 33.95ZM31.63 32.05L32.22 32.64L32.81 32.05L32.22 31.46L31.63 32.05Z" fill="white"/>
</svg>
