<svg width="50" height="50" viewBox="0 0 50 50" fill="none" xmlns="http://www.w3.org/2000/svg">
<g clip-path="url(#clip0_225_655)">
<path d="M6.79932 11.3495H9.83281M6.79932 20.4498H9.83281M6.79932 29.5502H9.83281M34.6924 35.6171H15.3076C13.9593 35.6171 12.8662 34.524 12.8662 33.1757V3.17383C12.8662 1.82549 13.9593 0.732422 15.3076 0.732422H34.6924C36.0407 0.732422 37.1338 1.82549 37.1338 3.17383V33.1757C37.1338 34.524 36.0407 35.6171 34.6924 35.6171Z" stroke="white" stroke-width="1.2" stroke-miterlimit="10" stroke-linecap="round" stroke-linejoin="round"/>
<path d="M24.4769 3.76581H33.368C33.5622 3.76581 33.7485 3.84297 33.8859 3.98033C34.0232 4.11769 34.1004 4.30398 34.1004 4.49823V9.10028C34.1004 9.29453 34.0232 9.48083 33.8859 9.61818C33.7485 9.75554 33.5622 9.8327 33.368 9.8327H16.6321C16.4379 9.8327 16.2516 9.75554 16.1142 9.61818C15.9769 9.48083 15.8997 9.29453 15.8997 9.10028V4.49823C15.8997 4.30398 15.9769 4.11769 16.1142 3.98033C16.2516 3.84297 16.4379 3.76581 16.6321 3.76581H21.0589M18.9331 6.7993H21.9666M18.9331 15.8996H21.9666M18.9331 25H21.9666M20.4498 32.5836H23.4833M12.8662 8.316H4.49835C4.3041 8.316 4.11781 8.39317 3.98045 8.53052C3.8431 8.66788 3.76593 8.85417 3.76593 9.04842V13.6505C3.76593 13.8447 3.8431 14.031 3.98045 14.1684C4.11781 14.3057 4.3041 14.3829 4.49835 14.3829H12.8662M12.8662 17.4164H4.49835C4.3041 17.4164 4.11781 17.4936 3.98045 17.6309C3.8431 17.7683 3.76593 17.9546 3.76593 18.1488V22.7509C3.76593 22.847 3.78487 22.9423 3.82168 23.0312C3.85849 23.12 3.91244 23.2008 3.98045 23.2688C4.04846 23.3368 4.1292 23.3907 4.21807 23.4275C4.30693 23.4643 4.40217 23.4833 4.49835 23.4833H12.8662M12.8662 26.5167H4.49835C4.3041 26.5167 4.11781 26.5939 3.98045 26.7312C3.8431 26.8686 3.76593 27.0549 3.76593 27.2491V31.8512C3.76593 32.0454 3.8431 32.2317 3.98045 32.3691C4.11781 32.5064 4.3041 32.5836 4.49835 32.5836H12.8662M37.1338 32.5836H45.5018C45.696 32.5836 45.8823 32.5064 46.0197 32.3691C46.157 32.2317 46.2342 32.0454 46.2342 31.8512V27.2491C46.2342 27.0549 46.157 26.8686 46.0197 26.7312C45.8823 26.5939 45.696 26.5167 45.5018 26.5167H37.1338M37.1338 23.4833H45.5018C45.598 23.4833 45.6932 23.4643 45.7821 23.4275C45.8709 23.3907 45.9517 23.3368 46.0197 23.2688C46.0877 23.2008 46.1416 23.12 46.1784 23.0312C46.2152 22.9423 46.2342 22.847 46.2342 22.7509V18.1488C46.2342 17.9546 46.157 17.7683 46.0197 17.6309C45.8823 17.4936 45.696 17.4164 45.5018 17.4164H37.1338M37.1338 14.3829H45.5018C45.696 14.3829 45.8823 14.3057 46.0197 14.1684C46.157 14.031 46.2342 13.8447 46.2342 13.6505V9.04842C46.2342 8.85417 46.157 8.66788 46.0197 8.53052C45.8823 8.39317 45.696 8.316 45.5018 8.316H37.1338M33.368 18.9331H16.6321C16.4379 18.9331 16.2516 18.8559 16.1142 18.7186C15.9769 18.5812 15.8997 18.3949 15.8997 18.2007V13.5986C15.8997 13.4044 15.9769 13.2181 16.1142 13.0807C16.2516 12.9434 16.4379 12.8662 16.6321 12.8662H33.368C33.5622 12.8662 33.7485 12.9434 33.8859 13.0807C34.0232 13.2181 34.1004 13.4044 34.1004 13.5986V18.2007C34.1004 18.3949 34.0232 18.5812 33.8859 18.7186C33.7485 18.8559 33.5622 18.9331 33.368 18.9331ZM33.368 28.0334H16.6321C16.4379 28.0334 16.2516 27.9562 16.1142 27.8189C15.9769 27.6815 15.8997 27.4952 15.8997 27.301V22.6989C15.8997 22.5047 15.9769 22.3184 16.1142 22.181C16.2516 22.0437 16.4379 21.9665 16.6321 21.9665H33.368C33.5622 21.9665 33.7485 22.0437 33.8859 22.181C34.0232 22.3184 34.1004 22.5047 34.1004 22.6989V27.301C34.1004 27.4952 34.0232 27.6815 33.8859 27.8189C33.7485 27.9562 33.5622 28.0334 33.368 28.0334ZM28.0334 42.7124V41.388C28.0334 40.7138 27.4869 40.1673 26.8127 40.1673H23.1872C22.513 40.1673 21.9665 40.7138 21.9665 41.388V42.7124C21.9665 42.8419 21.9151 42.9661 21.8235 43.0577C21.7319 43.1492 21.6077 43.2007 21.4782 43.2007H20.1537C19.4795 43.2007 18.933 43.7472 18.933 44.4214V48.0469C18.933 48.7211 19.4795 49.2676 20.1537 49.2676H29.8461C30.5203 49.2676 31.0668 48.7211 31.0668 48.0469V44.4214C31.0668 43.7472 30.5203 43.2007 29.8461 43.2007H28.5217C28.3922 43.2007 28.268 43.1492 28.1764 43.0577C28.0849 42.9661 28.0334 42.8419 28.0334 42.7124Z" stroke="white" stroke-width="1.2" stroke-miterlimit="10" stroke-linecap="round" stroke-linejoin="round"/>
<path d="M43.2007 35.6171H46.8262C48.1745 35.6171 49.2676 34.524 49.2676 33.1757V7.724C49.2676 6.37566 48.1745 5.28259 46.8262 5.28259H37.1338M34.6924 35.6171H39.7827M12.8662 5.28259H3.17383C1.82549 5.28259 0.732422 6.37566 0.732422 7.724V33.1757C0.732422 34.524 1.82549 35.6171 3.17383 35.6171H15.3076M5.24922 44.7174H1.95312C1.27891 44.7174 0.732422 45.2638 0.732422 45.9381V46.5301C0.732422 47.2043 1.27891 47.7508 1.95312 47.7508H18.9331M18.9331 44.7174H8.66719M23.4833 35.6171V40.1672M26.5167 40.1672V35.6171M31.0669 47.7509H48.0469C48.7211 47.7509 49.2676 47.2044 49.2676 46.5302V45.9382C49.2676 45.2639 48.7211 44.7175 48.0469 44.7175H31.0669" stroke="white" stroke-width="1.2" stroke-miterlimit="10" stroke-linecap="round" stroke-linejoin="round"/>
</g>
<defs>
<clipPath id="clip0_225_655">
<rect width="50" height="50" fill="white"/>
</clipPath>
</defs>
</svg>
