<svg width="25" height="24" viewBox="0 0 25 24" fill="none" xmlns="http://www.w3.org/2000/svg">
<path fill-rule="evenodd" clip-rule="evenodd" d="M12.6 3.53846C7.9268 3.53846 4.13844 7.32682 4.13844 12C4.13844 16.6732 7.9268 20.4615 12.6 20.4615C17.2732 20.4615 21.0615 16.6732 21.0615 12C21.0615 7.32682 17.2732 3.53846 12.6 3.53846ZM2.59998 12C2.59998 6.47715 7.07713 2 12.6 2C18.1228 2 22.6 6.47715 22.6 12C22.6 17.5228 18.1228 22 12.6 22C7.07713 22 2.59998 17.5228 2.59998 12Z" fill="white"/>
<path fill-rule="evenodd" clip-rule="evenodd" d="M12.6 16.359C13.0248 16.359 13.3692 16.0146 13.3692 15.5897V11.4872C13.3692 11.0623 13.0248 10.7179 12.6 10.7179C12.1751 10.7179 11.8307 11.0623 11.8307 11.4872V15.5897C11.8307 16.0146 12.1751 16.359 12.6 16.359Z" fill="white"/>
<path d="M13.6256 8.41026C13.6256 7.84381 13.1664 7.38462 12.6 7.38462C12.0335 7.38462 11.5743 7.84381 11.5743 8.41026C11.5743 8.9767 12.0335 9.4359 12.6 9.4359C13.1664 9.4359 13.6256 8.9767 13.6256 8.41026Z" fill="white"/>
</svg>
