<svg width="300" height="61" viewBox="0 0 300 61" fill="none" xmlns="http://www.w3.org/2000/svg">
<path d="M58.3936 36.8099C58.3936 36.3614 58.5034 35.9431 58.6827 35.5665C54.184 31.8988 50.5543 28.0516 47.6483 24.3389C47.6245 24.3646 47.6026 24.3901 47.5786 24.4158C45.8475 26.288 43.7587 28.2257 41.2625 30.1205C41.3671 30.4204 41.4333 30.7394 41.4333 31.0768C41.4333 32.635 40.219 33.8981 38.7211 33.8981C38.0001 33.8981 37.349 33.6006 36.863 33.1232C34.8044 34.3865 32.5362 35.6015 30.0254 36.728C31.2068 39.2646 32.308 42.1008 33.2755 45.2712C33.3522 45.2644 33.4261 45.2471 33.5045 45.2471C34.7575 45.2471 35.8018 46.136 36.113 47.337C41.556 46.8452 47.7915 47.0056 54.4942 48.4756C54.9319 47.529 55.8543 46.8707 56.9317 46.8707C56.9593 46.8707 56.9852 46.8783 57.0128 46.8791C57.6087 44.3606 58.3889 41.7074 59.4032 38.9894C58.7922 38.4721 58.3936 37.6933 58.3936 36.8099" fill="#3AAEE0"/>
<path d="M77.0515 59.9789C71.0031 55.7525 65.0267 52.8084 59.3169 51.0129C58.8907 51.8442 58.0836 52.4211 57.1326 52.4946C56.696 55.3371 56.4899 57.9929 56.4033 60.0986L77.0515 59.9789Z" fill="#3AAEE0"/>
<path d="M77.8309 14.9355C77.0596 15.576 76.3057 16.223 75.5877 16.8823C75.7848 17.2736 75.907 17.7121 75.907 18.1845C75.907 19.7427 74.6929 21.0058 73.1949 21.0058C72.7081 21.0058 72.258 20.8616 71.8626 20.6279C67.835 25.0767 64.8404 29.8029 62.6162 34.4641C63.3414 34.9707 63.8193 35.8309 63.8193 36.8077C63.8193 37.1617 63.7494 37.497 63.6349 37.8092C69.8812 42.19 77.5712 46.1419 87.0148 49.0424C87.4843 48.2009 88.3505 47.6284 89.3528 47.6284C90.8508 47.6284 92.0642 48.8906 92.0649 50.4483C92.6178 50.5865 93.1861 50.7149 93.7484 50.8467C96.4611 47.1825 98.0659 42.6724 98.0659 37.7904C98.0659 26.4329 89.4023 17.073 78.227 15.7509C78.1048 15.4738 77.9665 15.2055 77.8309 14.9355" fill="#3AAEE0"/>
<path d="M41.1462 11.7365C41.3747 11.6716 41.6105 11.6257 41.8588 11.6257C43.3567 11.6257 44.5711 12.8884 44.5711 14.4466C44.5711 15.252 44.2426 15.9739 43.7225 16.488C43.9977 16.9512 44.2789 17.4157 44.5719 17.8828C45.4989 19.3612 46.5443 20.8965 47.7184 22.4629C53.8936 15.3226 56.1278 8.2601 56.8506 5.24008C55.0149 5.69275 53.283 6.40961 51.7081 7.3649C47.8222 3.50776 42.6263 1.04998 36.876 0.781627C37.7585 3.80636 39.1025 7.58761 41.1462 11.7365" fill="#3AAEE0"/>
<path d="M48.46 23.4355C51.3329 27.1282 54.9339 30.9631 59.4162 34.6196C59.8808 34.2318 60.4628 33.9902 61.1047 33.9902C61.2402 33.9902 61.3701 34.0117 61.5002 34.0317C63.7747 29.2434 66.8443 24.3858 70.9835 19.8155C70.6689 19.3549 70.4806 18.7956 70.4806 18.1879C70.4806 16.63 71.6947 15.3669 73.1926 15.3669C73.811 15.3669 74.374 15.5905 74.8301 15.9528C75.6021 15.2459 76.4135 14.5532 77.2449 13.8679C74.0247 8.38241 68.0885 4.69332 61.2816 4.69332C60.2103 4.69332 59.1639 4.79496 58.1424 4.97007C57.5491 7.78501 55.3845 15.5227 48.46 23.4355Z" fill="#3AAEE0"/>
<path d="M36.1706 48.5408C36.0232 49.4497 35.4605 50.2041 34.6904 50.5966C35.3606 53.5179 35.9184 56.6813 36.3365 60.0986H55.2434C55.3307 57.9428 55.5082 55.2318 55.9553 52.3195C54.941 51.9112 54.2189 50.8934 54.2189 49.6944C54.2189 49.6805 54.2226 49.6679 54.2229 49.6543C47.6352 48.2105 41.5108 48.0556 36.1706 48.5408Z" fill="#3AAEE0"/>
<path d="M33.5396 50.8859C33.5287 50.8859 33.5185 50.8893 33.5078 50.8893C32.4069 50.8893 31.4642 50.2042 31.039 49.2245C27.0574 49.9272 23.4305 50.9544 20.2675 52.0757C20.2745 52.1597 20.2917 52.2406 20.2917 52.3264C20.2917 53.8844 19.0774 55.1474 17.5795 55.1474C16.6879 55.1474 15.9037 54.6939 15.4094 54.0031C12.5148 55.2792 10.2716 56.5029 8.81934 57.3587C11.667 59.159 15.0248 60.2012 18.623 60.2012L35.1384 60.1027C34.7287 56.7902 34.1881 53.72 33.5396 50.8859Z" fill="#3AAEE0"/>
<path d="M91.8087 51.6253C91.38 52.5955 90.443 53.2728 89.3491 53.2728C87.8512 53.2728 86.6371 52.0097 86.6371 50.4515C86.6371 50.3633 86.6545 50.28 86.6618 50.1937C77.1107 47.2605 69.3252 43.2629 62.9934 38.8286C62.5048 39.3236 61.8393 39.6308 61.1034 39.6308C60.8822 39.6308 60.6703 39.5959 60.4645 39.5439C59.4876 42.1782 58.7347 44.7492 58.1582 47.1902C59.0352 47.6576 59.6415 48.5963 59.6415 49.6916C59.6415 49.7441 59.6292 49.7929 59.6266 49.8447C65.8368 51.7928 72.3538 54.9349 78.9371 59.7329C84.5488 58.889 89.4807 56.0144 92.93 51.8902C92.5573 51.8009 92.1767 51.7172 91.8087 51.6253" fill="#3AAEE0"/>
<path d="M28.4201 36.1155C26.9022 33.0314 25.2702 30.4326 23.6356 28.2521C23.2824 28.4272 22.8916 28.5333 22.4742 28.5333C20.9764 28.5333 19.762 27.2703 19.762 25.7123C19.762 25.1575 19.9214 24.6441 20.1872 24.2077C17.5874 21.5382 15.2073 19.8716 13.5364 18.8879C13.2147 20.2718 13.0058 21.701 12.9307 23.1674C5.43047 25.6175 0 32.777 0 41.2309C0 41.5988 0.0127825 41.9636 0.0331301 42.3262C11.7917 41.592 21.0966 39.2342 28.4201 36.1155Z" fill="#3AAEE0"/>
<path d="M21.0038 23.3495C21.428 23.0636 21.9312 22.8934 22.4743 22.8934C23.9722 22.8934 25.1866 24.1564 25.1866 25.7146C25.1866 26.3979 24.9434 27.016 24.555 27.5041C26.2498 29.7606 27.9389 32.4508 29.5063 35.6396C31.9623 34.5391 34.1948 33.3575 36.2087 32.1241C36.0837 31.8 36.0109 31.4485 36.0109 31.0779C36.0109 29.52 37.2253 28.257 38.7232 28.257C39.4737 28.257 40.1528 28.5742 40.6437 29.0868C43.0351 27.2625 45.0419 25.3997 46.7076 23.5985C46.7769 23.5233 46.8417 23.4485 46.91 23.3734C45.6448 21.6967 44.5207 20.0529 43.5323 18.4738C43.2472 18.0185 42.9728 17.5655 42.7043 17.1141C42.4369 17.2057 42.1568 17.2675 41.8599 17.2675C40.362 17.2675 39.1476 16.0047 39.1476 14.4465C39.1476 13.5905 39.522 12.8329 40.1006 12.3156C37.9328 7.9204 36.5272 3.91254 35.6268 0.75988C25.3225 0.851571 16.6429 7.96107 13.8467 17.6891C15.606 18.6975 18.188 20.4634 21.0038 23.3495Z" fill="#3AAEE0"/>
<path d="M14.9267 52.9081C14.8889 52.7206 14.868 52.5268 14.868 52.3277C14.868 50.7699 16.0823 49.5066 17.5803 49.5066C18.5856 49.5066 19.4533 50.0821 19.9215 50.9274C23.1211 49.7954 26.7833 48.76 30.7981 48.0492C30.8054 47.0172 31.3493 46.1263 32.1505 45.6407C31.1949 42.5018 30.1063 39.7008 28.9405 37.1996C21.499 40.3774 12.0624 42.783 0.142578 43.5295C0.780134 48.9083 3.62541 53.5919 7.73092 56.6143C9.18109 55.7377 11.6453 54.355 14.9267 52.9081" fill="#3AAEE0"/>
<path d="M109.428 30.6525H113.371L113.845 32.7561C115.698 31.2874 117.828 30.1759 120.115 30.1759C122.402 30.1759 124.177 31.2081 125.083 33.0738C127.331 31.1684 129.697 30.1759 131.788 30.1759C135.061 30.1759 137.979 32.0017 137.979 36.964V49.4282H133.286V38.2736C133.286 36.0507 132.853 34.304 130.447 34.304C128.948 34.304 127.371 35.0582 126.03 36.1697C126.069 36.3685 126.069 36.6069 126.069 36.8845V49.4282H121.337V38.3137C121.337 36.1303 120.982 34.304 118.577 34.304C117.078 34.304 115.501 35.0582 114.121 36.1697V49.4282H109.428V30.6525" fill="#3AAEE0"/>
<path d="M163.54 47.7649C160.661 49.3531 157.901 49.8296 155.298 49.8296C146.78 49.8296 142.166 44.3118 142.166 36.6504C142.166 29.0684 147.529 23.035 155.89 23.035C158.729 23.035 161.095 23.5906 162.713 24.3051V28.751C160.701 27.6791 158.532 27.0438 156.009 27.0438C150.25 27.0438 147.214 31.4104 147.214 36.5314C147.214 42.009 150.527 45.8199 155.85 45.8199C158.414 45.8199 160.385 45.0655 162.239 43.9942L163.54 47.7649" fill="#3AAEE0"/>
<path d="M167.25 21.325H171.942V43.9122C171.942 45.2218 172.454 45.6191 173.322 45.6191C173.56 45.6191 174.111 45.5395 174.506 45.3806L175.413 49.0327C174.309 49.5093 173.007 49.7075 171.942 49.7075C168.827 49.7075 167.25 48.1596 167.25 45.1824V21.325" fill="#3AAEE0"/>
<path d="M191.26 39.9844C191.26 36.5314 189.722 33.9909 186.764 33.9909C183.807 33.9909 182.269 36.5314 182.269 39.9844C182.269 43.4782 183.807 46.0187 186.764 46.0187C189.722 46.0187 191.26 43.4782 191.26 39.9844V39.9844ZM177.457 39.9844C177.457 34.348 181.204 30.18 186.764 30.18C192.325 30.18 196.111 34.348 196.111 39.9844C196.111 45.6217 192.325 49.8296 186.764 49.8296C181.204 49.8296 177.457 45.6217 177.457 39.9844Z" fill="#3AAEE0"/>
<path d="M200.257 46.1377C199.824 45.1057 199.627 43.9542 199.627 42.208V30.6566H204.32V41.7315C204.32 42.724 204.438 43.4782 204.714 44.0737C205.187 45.185 206.094 45.7805 207.514 45.7805C209.052 45.7805 210.511 45.0261 211.339 44.1131V30.6566H216.071V44.7879C216.071 46.8125 216.111 48.4398 216.387 49.4323H212.364L211.655 47.4874C210.235 48.7575 208.303 49.8296 205.858 49.8296C204.043 49.8296 201.401 49.0752 200.257 46.1377" fill="#3AAEE0"/>
<path d="M232.673 45.5823V34.348C231.963 34.1891 231.371 34.0705 230.425 34.0705C227.152 34.0705 224.746 36.2932 224.746 40.1433C224.746 43.7954 227.072 45.8992 230.464 45.8992C231.095 45.8992 232.041 45.8199 232.673 45.5823V45.5823ZM219.935 40.2229C219.935 34.2687 224.233 30.18 230.149 30.18C230.858 30.18 231.923 30.2592 232.673 30.4181V21.3276H237.405V48.4398C235.551 49.3531 232.83 49.8296 230.544 49.8296C224.47 49.8296 219.935 46.4152 219.935 40.2229Z" fill="#3AAEE0"/>
<path d="M242.063 44.5495C243.482 45.4628 245.257 46.0983 247.15 46.0983C249.043 46.0983 250.423 45.5421 250.423 44.1131C250.423 40.9376 241.668 42.1285 241.668 35.8566C241.668 32.5217 244.35 30.18 248.727 30.18C250.817 30.18 252.671 30.5373 254.209 31.093V35.1024C252.632 34.4276 250.896 33.9116 248.925 33.9116C247.347 33.9116 246.282 34.3874 246.282 35.6184C246.282 38.5953 255.037 37.4439 255.037 43.9942C255.037 48.1228 251.488 49.8296 247.465 49.8296C244.547 49.8296 242.142 48.9557 240.604 48.0033L242.063 44.5495" fill="#3AAEE0"/>
<path d="M258.899 47.0483C258.899 45.5003 260.083 44.3489 261.502 44.3489C262.962 44.3489 264.144 45.5003 264.144 47.0483C264.144 48.5963 262.962 49.7871 261.502 49.7871C260.083 49.7871 258.899 48.5963 258.899 47.0483" fill="#3AAEE0"/>
<path d="M268.885 30.6525H272.868L273.38 32.7561C275.075 31.0492 276.614 30.1759 278.507 30.1759C279.374 30.1759 280.4 30.4141 281.149 30.9301L279.493 34.9395C278.664 34.4235 277.915 34.304 277.363 34.304C276.141 34.304 275.116 34.82 273.578 36.1697V49.4282H268.885V30.6525Z" fill="#3AAEE0"/>
<path d="M283.871 46.1377C283.437 45.1057 283.24 43.9542 283.24 42.208V30.6566H287.933V41.7315C287.933 42.724 288.051 43.4782 288.327 44.0737C288.8 45.185 289.708 45.7805 291.128 45.7805C292.665 45.7805 294.124 45.0261 294.952 44.1131V30.6566H299.685V44.7879C299.685 46.8125 299.725 48.4398 300 49.4323H295.978L295.268 47.4874C293.849 48.7575 291.916 49.8296 289.471 49.8296C287.657 49.8296 285.015 49.0752 283.871 46.1377" fill="#3AAEE0"/>
</svg>