<svg width="94" height="84" viewBox="0 0 94 84" fill="none" xmlns="http://www.w3.org/2000/svg">
<path d="M92.9898 25.8695C78.4844 10.9148 81.1609 12.7672 79.318 12.1242H51.1031L40.3805 0.861719C40.1183 0.596909 39.7632 0.444731 39.3906 0.4375H5.875C4.4769 0.439154 3.13655 0.995278 2.14794 1.98388C1.15934 2.97248 0.603217 4.31284 0.601562 5.71094V66.6016C0.603217 67.9997 1.15934 69.34 2.14794 70.3286C3.13655 71.3172 4.4769 71.8733 5.875 71.875H40.5312V78.2891C40.5329 79.6871 41.089 81.0275 42.0776 82.0161C43.0662 83.0047 44.4066 83.5608 45.8047 83.5625H88.125C89.5231 83.5608 90.8634 83.0047 91.8521 82.0161C92.8407 81.0275 93.3968 79.6871 93.3984 78.2891V26.8438C93.3913 26.4788 93.2452 26.1304 92.9898 25.8695ZM80.6875 16.9141L88.8391 25.4766H80.6875V16.9141ZM58.5469 49.8828H43.2656V45.8047H58.5469C58.9095 45.8047 59.2572 45.6606 59.5136 45.4042C59.77 45.1479 59.9141 44.8001 59.9141 44.4375V40.1117L69.9141 47.8359L59.9141 55.5648V51.25C59.9141 50.8874 59.77 50.5396 59.5136 50.2833C59.2572 50.0269 58.9095 49.8828 58.5469 49.8828ZM35.4555 34.1133H50.7344V38.1992H35.4555C35.2759 38.1991 35.0981 38.2344 34.9321 38.3031C34.7662 38.3718 34.6155 38.4725 34.4885 38.5994C34.3615 38.7264 34.2608 38.8772 34.1921 39.0431C34.1235 39.209 34.0882 39.3868 34.0883 39.5664V43.882L24.0883 36.1523L34.0883 28.4281V32.7461C34.0882 32.9257 34.1235 33.1035 34.1921 33.2694C34.2608 33.4353 34.3615 33.5861 34.4885 33.7131C34.6155 33.84 34.7662 33.9408 34.9321 34.0094C35.0981 34.0781 35.2759 34.1134 35.4555 34.1133ZM48.9102 13.7891H40.7578V5.22422L48.9102 13.7891ZM3.33594 66.6016V5.71094C3.33676 5.03779 3.60454 4.39245 4.08053 3.91646C4.55651 3.44047 5.20185 3.1727 5.875 3.17188H38.0234V15.1562C38.0234 15.5189 38.1675 15.8666 38.4239 16.123C38.6803 16.3794 39.028 16.5234 39.3906 16.5234H50.7344V31.3789H36.8227V25.6445C36.8191 25.3905 36.7452 25.1424 36.6094 24.9277C36.4735 24.713 36.2808 24.5401 36.0527 24.4282C35.8246 24.3163 35.57 24.2696 35.3171 24.2935C35.0641 24.3173 34.8227 24.4107 34.6195 24.5633L21.018 35.0703C20.8541 35.199 20.7215 35.3632 20.6304 35.5506C20.5393 35.7379 20.4919 35.9436 20.4919 36.152C20.4919 36.3603 20.5393 36.566 20.6304 36.7533C20.7215 36.9407 20.8541 37.1049 21.018 37.2336L34.6188 47.7492C34.8579 47.9353 35.1524 48.0362 35.4555 48.0359C35.8174 48.0337 36.1638 47.8889 36.4197 47.633C36.6756 47.3771 36.8204 47.0307 36.8227 46.6688V40.9336H50.7344V43.0703H41.8984C41.5358 43.0703 41.1881 43.2144 40.9317 43.4708C40.6753 43.7271 40.5312 44.0749 40.5312 44.4375V51.25C40.5312 51.6126 40.6753 51.9604 40.9317 52.2167C41.1881 52.4731 41.5358 52.6172 41.8984 52.6172H50.7344V66.6016C50.7335 67.2747 50.4658 67.92 49.9898 68.396C49.5138 68.872 48.8685 69.1398 48.1953 69.1406H5.875C5.20185 69.1398 4.55651 68.872 4.08053 68.396C3.60454 67.92 3.33676 67.2747 3.33594 66.6016ZM90.6641 78.2891C90.6632 78.9622 90.3955 79.6075 89.9195 80.0835C89.4435 80.5595 88.7981 80.8273 88.125 80.8281H45.8047C45.1315 80.8273 44.4862 80.5595 44.0102 80.0835C43.5342 79.6075 43.2665 78.9622 43.2656 78.2891V71.875H48.1953C49.5934 71.8733 50.9338 71.3172 51.9224 70.3286C52.911 69.34 53.4671 67.9997 53.4688 66.6016V52.6172H57.1797V58.3516C57.1797 58.6072 57.2514 58.8577 57.3866 59.0746C57.5217 59.2916 57.7151 59.4663 57.9445 59.5789C58.1754 59.686 58.4309 59.729 58.6841 59.7033C58.9373 59.6776 59.1789 59.5841 59.3836 59.4328L72.9844 48.9172C73.148 48.7884 73.2803 48.6241 73.3713 48.4367C73.4622 48.2494 73.5095 48.0438 73.5095 47.8355C73.5095 47.6273 73.4622 47.4217 73.3713 47.2344C73.2803 47.047 73.148 46.8827 72.9844 46.7539L59.3828 36.2461C59.1806 36.0898 58.9386 35.9934 58.6843 35.9677C58.43 35.942 58.1736 35.9881 57.9442 36.1008C57.7148 36.2135 57.5215 36.3882 57.3864 36.6051C57.2513 36.8221 57.1797 37.0725 57.1797 37.3281V43.0703H53.4688C53.4688 40.8445 53.4734 35.0406 53.4688 32.7461C53.4609 32.7219 53.4688 15.1828 53.4688 15.1555C53.4633 15.0562 53.4524 14.9574 53.4359 14.8594H77.9508V26.8438C77.9508 27.0235 77.9862 27.2015 78.0551 27.3675C78.1239 27.5335 78.2248 27.6843 78.3521 27.8113C78.4793 27.9383 78.6302 28.039 78.7964 28.1075C78.9625 28.1761 79.1406 28.2112 79.3203 28.2109H90.6641V78.2891Z" fill="#004CBF"/>
<path d="M69.3493 37.3312C69.3493 37.6939 69.4933 38.0416 69.7497 38.298C70.0061 38.5544 70.3538 38.6984 70.7164 38.6984H83.5407C83.9033 38.6984 84.251 38.5544 84.5074 38.298C84.7638 38.0416 84.9078 37.6939 84.9078 37.3312C84.9078 36.9686 84.7638 36.6209 84.5074 36.3645C84.251 36.1081 83.9033 35.9641 83.5407 35.9641H70.7164C70.3539 35.9643 70.0063 36.1084 69.7499 36.3647C69.4936 36.6211 69.3495 36.9687 69.3493 37.3312ZM83.5407 46.4758H77.1289C76.7663 46.4758 76.4186 46.6198 76.1622 46.8762C75.9058 47.1326 75.7617 47.4804 75.7617 47.843C75.7617 48.2056 75.9058 48.5533 76.1622 48.8097C76.4186 49.0661 76.7663 49.2102 77.1289 49.2102H83.5407C83.9033 49.2102 84.251 49.0661 84.5074 48.8097C84.7638 48.5533 84.9078 48.2056 84.9078 47.843C84.9078 47.4804 84.7638 47.1326 84.5074 46.8762C84.251 46.6198 83.9033 46.4758 83.5407 46.4758ZM83.5407 56.9883H70.7164C70.3538 56.9883 70.0061 57.1323 69.7497 57.3887C69.4933 57.6451 69.3493 57.9929 69.3493 58.3555C69.3493 58.7181 69.4933 59.0658 69.7497 59.3222C70.0061 59.5786 70.3538 59.7227 70.7164 59.7227H83.5407C83.9033 59.7227 84.251 59.5786 84.5074 59.3222C84.7638 59.0658 84.9078 58.7181 84.9078 58.3555C84.9078 57.9929 84.7638 57.6451 84.5074 57.3887C84.251 57.1323 83.9033 56.9883 83.5407 56.9883ZM10.4586 27.0117H23.2836C23.6462 27.0117 23.994 26.8677 24.2504 26.6113C24.5068 26.3549 24.6508 26.0071 24.6508 25.6445C24.6508 25.2819 24.5068 24.9342 24.2504 24.6778C23.994 24.4214 23.6462 24.2773 23.2836 24.2773H10.4586C10.096 24.2773 9.74827 24.4214 9.49187 24.6778C9.23547 24.9342 9.09143 25.2819 9.09143 25.6445C9.09143 26.0071 9.23547 26.3549 9.49187 26.6113C9.74827 26.8677 10.096 27.0117 10.4586 27.0117ZM10.4586 37.5234H16.8711C17.2337 37.5234 17.5815 37.3794 17.8379 37.123C18.0943 36.8666 18.2383 36.5189 18.2383 36.1563C18.2383 35.7937 18.0943 35.4459 17.8379 35.1895C17.5815 34.9331 17.2337 34.7891 16.8711 34.7891H10.4586C10.096 34.7891 9.74827 34.9331 9.49187 35.1895C9.23547 35.4459 9.09143 35.7937 9.09143 36.1563C9.09143 36.5189 9.23547 36.8666 9.49187 37.123C9.74827 37.3794 10.096 37.5234 10.4586 37.5234ZM23.2836 45.3016H10.4586C10.096 45.3016 9.74827 45.4456 9.49187 45.702C9.23547 45.9584 9.09143 46.3061 9.09143 46.6687C9.09143 47.0313 9.23547 47.3791 9.49187 47.6355C9.74827 47.8919 10.096 48.0359 10.4586 48.0359H23.2836C23.6462 48.0359 23.994 47.8919 24.2504 47.6355C24.5068 47.3791 24.6508 47.0313 24.6508 46.6687C24.6508 46.3061 24.5068 45.9584 24.2504 45.702C23.994 45.4456 23.6462 45.3016 23.2836 45.3016Z" fill="#004CBF"/>
</svg>
