<svg width="92" height="92" viewBox="0 0 92 92" fill="none" xmlns="http://www.w3.org/2000/svg">
<path d="M63.5781 59.0843C64.4584 59.0833 65.3023 58.7331 65.9248 58.1107C66.5473 57.4882 66.8974 56.6443 66.8984 55.764V51.2734H75.7969C79.8377 51.2739 83.731 49.7548 86.7038 47.0178C89.6765 44.2809 91.5114 40.5261 91.8441 36.499C92.1768 32.4718 90.983 28.4669 88.4997 25.2791C86.0164 22.0914 82.4252 19.954 78.4391 19.2913C78.2063 17.4481 77.5787 15.6767 76.5991 14.0979C75.6195 12.5192 74.311 11.1704 72.7627 10.1433C71.2144 9.11631 69.4629 8.43527 67.6275 8.14667C65.7921 7.85808 63.9161 7.96872 62.1273 8.47104C60.307 5.88525 57.8917 3.77508 55.0849 2.31845C52.2781 0.861815 49.1622 0.10144 46 0.10144C42.8378 0.10144 39.7219 0.861815 36.9151 2.31845C34.1083 3.77508 31.693 5.88525 29.8727 8.47104C28.0839 7.96872 26.2078 7.85808 24.3724 8.14668C22.5369 8.43527 20.7853 9.11629 19.237 10.1433C17.6887 11.1703 16.3801 12.5192 15.4004 14.0979C14.4207 15.6766 13.793 17.448 13.5602 19.2913C9.57395 19.954 5.98269 22.0915 3.49939 25.2793C1.01608 28.4671 -0.177674 32.4722 0.155129 36.4994C0.487933 40.5265 2.32296 44.2813 5.29588 47.0182C8.2688 49.7552 12.1622 51.2741 16.2031 51.2734H25.1016V55.7656C25.1026 56.6459 25.4527 57.4898 26.0752 58.1122C26.6977 58.7347 27.5416 59.0848 28.4219 59.0859H34.8672V67.6796H20.2648C19.9275 66.1255 19.0274 64.7509 17.7378 63.8202C16.4482 62.8896 14.86 62.4686 13.2787 62.6383C11.6974 62.8079 10.2347 63.5562 9.17176 64.7392C8.10887 65.9222 7.52089 67.4565 7.52089 69.0468C7.52089 70.6372 8.10887 72.1714 9.17176 73.3544C10.2347 74.5374 11.6974 75.2857 13.2787 75.4554C14.86 75.625 16.4482 75.204 17.7378 74.2734C19.0274 73.3428 19.9275 71.9682 20.2648 70.414H36.2344C36.597 70.414 36.9447 70.27 37.2011 70.0136C37.4575 69.7572 37.6016 69.4094 37.6016 69.0468V59.0843H44.6328V79.157C43.0786 79.4943 41.7041 80.3944 40.7734 81.684C39.8428 82.9737 39.4218 84.5618 39.5915 86.1431C39.7611 87.7244 40.5094 89.1872 41.6924 90.2501C42.8754 91.3129 44.4096 91.9009 46 91.9009C47.5904 91.9009 49.1246 91.3129 50.3076 90.2501C51.4906 89.1872 52.2389 87.7244 52.4085 86.1431C52.5782 84.5618 52.1572 82.9737 51.2266 81.684C50.2959 80.3944 48.9214 79.4943 47.3672 79.157V59.0843H54.3984V69.0468C54.3984 69.4094 54.5425 69.7572 54.7989 70.0136C55.0553 70.27 55.403 70.414 55.7656 70.414H71.7352C72.0725 71.9682 72.9725 73.3428 74.2622 74.2734C75.5518 75.204 77.14 75.625 78.7213 75.4554C80.3026 75.2857 81.7653 74.5374 82.8282 73.3544C83.8911 72.1714 84.4791 70.6372 84.4791 69.0468C84.4791 67.4565 83.8911 65.9222 82.8282 64.7392C81.7653 63.5562 80.3026 62.8079 78.7213 62.6383C77.14 62.4686 75.5518 62.8896 74.2622 63.8202C72.9725 64.7509 72.0725 66.1255 71.7352 67.6796H57.1328V59.0859L63.5781 59.0843ZM13.9687 72.757C13.2348 72.757 12.5173 72.5393 11.9071 72.1316C11.2968 71.7238 10.8212 71.1442 10.5403 70.4662C10.2594 69.7881 10.1859 69.0419 10.3291 68.3221C10.4723 67.6022 10.8257 66.941 11.3447 66.422C11.8637 65.903 12.5249 65.5496 13.2448 65.4064C13.9646 65.2632 14.7108 65.3367 15.3889 65.6176C16.0669 65.8985 16.6465 66.3741 17.0543 66.9844C17.462 67.5946 17.6797 68.3121 17.6797 69.046C17.6784 70.0299 17.2871 70.973 16.5914 71.6687C15.8957 72.3644 14.9526 72.7557 13.9687 72.757ZM49.7109 85.4531C49.7109 86.187 49.4933 86.9045 49.0855 87.5148C48.6778 88.125 48.0982 88.6007 47.4201 88.8815C46.742 89.1624 45.9959 89.2359 45.276 89.0927C44.5562 88.9495 43.895 88.5961 43.376 88.0771C42.857 87.5581 42.5036 86.8969 42.3604 86.177C42.2172 85.4572 42.2907 84.711 42.5715 84.033C42.8524 83.3549 43.3281 82.7753 43.9383 82.3675C44.5486 81.9598 45.266 81.7421 46 81.7421C46.9838 81.7434 47.927 82.1347 48.6227 82.8304C49.3183 83.5261 49.7097 84.4692 49.7109 85.4531ZM78.0312 65.3351C78.7652 65.3351 79.4827 65.5527 80.0929 65.9605C80.7032 66.3683 81.1788 66.9478 81.4597 67.6259C81.7406 68.304 81.8141 69.0502 81.6709 69.77C81.5277 70.4899 81.1743 71.1511 80.6553 71.6701C80.1363 72.189 79.4751 72.5425 78.7552 72.6857C78.0354 72.8289 77.2892 72.7554 76.6111 72.4745C75.933 72.1936 75.3535 71.718 74.9457 71.1077C74.538 70.4975 74.3203 69.78 74.3203 69.046C74.3215 68.0622 74.7129 67.119 75.4086 66.4234C76.1043 65.7277 77.0474 65.3363 78.0312 65.3351ZM16.2031 48.539C12.7658 48.5401 9.46016 47.2168 6.97313 44.844C4.48611 42.4713 3.00892 39.2315 2.8485 35.7979C2.68808 32.3643 3.85678 29.0009 6.11174 26.4066C8.36671 23.8123 11.5346 22.1865 14.957 21.8671C15.2874 21.8368 15.5954 21.6873 15.8235 21.4465C16.0517 21.2057 16.1844 20.89 16.1969 20.5585C16.2534 18.9429 16.6934 17.3638 17.4807 15.9519C18.268 14.5399 19.3799 13.3354 20.7246 12.4381C22.0694 11.5407 23.6083 10.9761 25.2143 10.791C26.8203 10.6059 28.4473 10.8055 29.9609 11.3734C30.2557 11.4825 30.5791 11.4869 30.8767 11.3858C31.1744 11.2846 31.4281 11.0841 31.5953 10.8179C33.1225 8.37516 35.2459 6.36092 37.7657 4.96455C40.2856 3.56818 43.1191 2.83556 46 2.83556C48.8809 2.83556 51.7144 3.56818 54.2343 4.96455C56.7541 6.36092 58.8775 8.37516 60.4047 10.8179C60.5718 11.0842 60.8255 11.2848 61.1232 11.386C61.4209 11.4871 61.7443 11.4827 62.0391 11.3734C63.5527 10.8055 65.1797 10.6059 66.7857 10.791C68.3917 10.9761 69.9306 11.5407 71.2753 12.4381C72.6201 13.3354 73.732 14.5399 74.5193 15.9519C75.3066 17.3638 75.7466 18.9429 75.8031 20.5585C75.8156 20.89 75.9483 21.2057 76.1765 21.4465C76.4046 21.6873 76.7126 21.8368 77.043 21.8671C80.4654 22.1865 83.6333 23.8123 85.8882 26.4066C88.1432 29.0009 89.3119 32.3643 89.1515 35.7979C88.9911 39.2315 87.5139 42.4713 85.0269 44.844C82.5398 47.2168 79.2342 48.5401 75.7969 48.539H66.8984V44.0468C66.8974 43.1665 66.5473 42.3226 65.9248 41.7001C65.3023 41.0777 64.4584 40.7275 63.5781 40.7265H28.4219C27.5416 40.7275 26.6977 41.0777 26.0752 41.7001C25.4527 42.3226 25.1026 43.1665 25.1016 44.0468V48.539H16.2031ZM27.8359 55.7656V44.0468C27.8361 43.8915 27.8979 43.7426 28.0078 43.6327C28.1176 43.5229 28.2665 43.4611 28.4219 43.4609H63.5781C63.7335 43.4611 63.8824 43.5229 63.9922 43.6327C64.1021 43.7426 64.1638 43.8915 64.1641 44.0468V55.7656C64.1638 55.9209 64.1021 56.0698 63.9922 56.1797C63.8824 56.2895 63.7335 56.3513 63.5781 56.3515H28.4219C28.2665 56.3513 28.1176 56.2895 28.0078 56.1797C27.8979 56.0698 27.8361 55.9209 27.8359 55.7656Z" fill="#004CBF"/>
<path d="M36.2344 51.8594C37.3131 51.8594 38.1875 50.9849 38.1875 49.9062C38.1875 48.8276 37.3131 47.9531 36.2344 47.9531C35.1557 47.9531 34.2812 48.8276 34.2812 49.9062C34.2812 50.9849 35.1557 51.8594 36.2344 51.8594Z" fill="#004CBF"/>
</svg>
