<svg width="24" height="25" viewBox="0 0 24 25" fill="none" xmlns="http://www.w3.org/2000/svg">
<g clip-path="url(#clip0_225_517)">
<path d="M23.9999 24.1868H12.0179C9.67684 24.1857 7.38728 23.4998 5.43117 22.2137C3.47506 20.9277 1.93785 19.0975 1.00886 16.9487C0.0798767 14.7999 -0.200302 12.4263 0.202835 10.1203C0.605972 7.81425 1.67482 5.67649 3.27772 3.97031C4.88062 2.26413 6.94758 1.06406 9.22399 0.517906C11.5004 -0.0282476 13.8869 0.103372 16.0894 0.896553C18.2919 1.68973 20.2144 3.10983 21.6199 4.98194C23.0255 6.85404 23.8528 9.09638 23.9999 11.4328V11.4958V24.1868ZM12.0179 2.18677C9.36569 2.18677 6.82215 3.24034 4.94679 5.1157C3.07142 6.99106 2.01785 9.5346 2.01785 12.1868C2.01785 14.8389 3.07142 17.3825 4.94679 19.2578C6.82215 21.1332 9.36569 22.1868 12.0179 22.1868H21.9999V11.5278C21.8284 8.99608 20.7026 6.6238 18.8498 4.89C16.997 3.1562 14.5553 2.19009 12.0179 2.18677Z" fill="white"/>
<path d="M13.0003 7.18652H7.00031V9.18652H13.0003V7.18652Z" fill="white"/>
<path d="M17.0003 11.187H7.00031V13.187H17.0003V11.187Z" fill="white"/>
<path d="M17.0003 15.1868H7.00031V17.1868H17.0003V15.1868Z" fill="white"/>
</g>
<defs>
<clipPath id="clip0_225_517">
<rect width="24" height="24" fill="white" transform="translate(0 0.186768)"/>
</clipPath>
</defs>
</svg>
