<svg width="33" height="32" viewBox="0 0 33 32" fill="none" xmlns="http://www.w3.org/2000/svg">
<g clip-path="url(#clip0_225_1903)">
<path d="M24.8975 28.0003H18.8975V24.9553L16.8615 23.8813L14.8975 24.9323V28.0003H8.89746C8.36703 28.0003 7.85832 28.2111 7.48325 28.5861C7.10817 28.9612 6.89746 29.4699 6.89746 30.0003V31.0003C6.89746 31.2656 7.00282 31.5199 7.19035 31.7075C7.37789 31.895 7.63224 32.0003 7.89746 32.0003H25.8975C26.1627 32.0003 26.417 31.895 26.6046 31.7075C26.7921 31.5199 26.8975 31.2656 26.8975 31.0003V30.0003C26.8975 29.4699 26.6867 28.9612 26.3117 28.5861C25.9366 28.2111 25.4279 28.0003 24.8975 28.0003Z" fill="#FFB800"/>
<path d="M29.3125 11.3912C30.4575 10.2712 29.8255 8.32023 28.2435 8.08923L22.6025 7.26723C22.2926 7.22163 21.9985 7.10142 21.7454 6.91694C21.4923 6.73247 21.2878 6.48925 21.1495 6.20823L18.6275 1.08023C17.9195 -0.358773 15.8745 -0.358773 15.1675 1.08023L12.6455 6.20823C12.5074 6.48936 12.3029 6.73266 12.0498 6.91715C11.7966 7.10165 11.5024 7.22179 11.1925 7.26723L5.55149 8.08923C3.96949 8.32023 3.33749 10.2712 4.48249 11.3912L8.56449 15.3832C9.01949 15.8282 9.22649 16.4692 9.11949 17.0972L8.15549 22.7342C7.88549 24.3152 9.53949 25.5212 10.9545 24.7752L15.9995 22.1142C16.2764 21.9684 16.5846 21.8922 16.8975 21.8922C17.2104 21.8922 17.5186 21.9684 17.7955 22.1142L22.8405 24.7752C24.2555 25.5222 25.9105 24.3162 25.6395 22.7342L24.6755 17.0972C24.5685 16.4692 24.7755 15.8282 25.2305 15.3832L29.3125 11.3912ZM18.3975 17.0002H15.3975C15.1323 17.0002 14.8779 16.8949 14.6904 16.7073C14.5028 16.5198 14.3975 16.2654 14.3975 16.0002C14.3975 15.735 14.5028 15.4807 14.6904 15.2931C14.8779 15.1056 15.1323 15.0002 15.3975 15.0002H18.3975C18.6627 15.0002 18.9171 15.1056 19.1046 15.2931C19.2921 15.4807 19.3975 15.735 19.3975 16.0002C19.3975 16.2654 19.2921 16.5198 19.1046 16.7073C18.9171 16.8949 18.6627 17.0002 18.3975 17.0002ZM20.3975 13.0002H13.3975C13.1323 13.0002 12.8779 12.8949 12.6904 12.7073C12.5028 12.5198 12.3975 12.2654 12.3975 12.0002C12.3975 11.735 12.5028 11.4807 12.6904 11.2931C12.8779 11.1056 13.1323 11.0002 13.3975 11.0002H20.3975C20.6627 11.0002 20.9171 11.1056 21.1046 11.2931C21.2921 11.4807 21.3975 11.735 21.3975 12.0002C21.3975 12.2654 21.2921 12.5198 21.1046 12.7073C20.9171 12.8949 20.6627 13.0002 20.3975 13.0002Z" fill="#FFB800"/>
</g>
<defs>
<clipPath id="clip0_225_1903">
<rect width="32" height="32" fill="white" transform="translate(0.897461)"/>
</clipPath>
</defs>
</svg>
