<svg width="50" height="50" viewBox="0 0 50 50" fill="none" xmlns="http://www.w3.org/2000/svg">
<path fill-rule="evenodd" clip-rule="evenodd" d="M46.2239 36.0199H3.82907C3.41337 36.0199 3.07513 35.6829 3.07513 35.266C3.07513 34.8503 3.41208 34.512 3.82907 34.512H46.2239C46.6396 34.512 46.9778 34.849 46.9778 35.266C46.9778 35.6817 46.6408 36.0199 46.2239 36.0199ZM33.607 38.5347H32.4193C32.0036 38.5347 31.6654 38.1978 31.6654 37.7808C31.6654 37.3651 32.0023 37.0269 32.4193 37.0269H33.607C34.0227 37.0269 34.361 37.3638 34.361 37.7808C34.361 38.1965 34.0227 38.5347 33.607 38.5347ZM37.9202 38.5347H36.7325C36.3168 38.5347 35.9786 38.1978 35.9786 37.7808C35.9786 37.3651 36.3155 37.0269 36.7325 37.0269H37.9202C38.3359 37.0269 38.6742 37.3638 38.6742 37.7808C38.6742 38.1965 38.3359 38.5347 37.9202 38.5347ZM42.2321 38.5347H40.9605C40.5448 38.5347 40.2066 38.1978 40.2066 37.7808C40.2066 37.3651 40.5435 37.0269 40.9605 37.0269H42.2321C42.6478 37.0269 42.9861 37.3638 42.9861 37.7808C42.9861 38.1965 42.6491 38.5347 42.2321 38.5347ZM19.9109 47.0049C19.5056 46.9081 19.2564 46.5014 19.3532 46.0961L20.7862 40.1201C20.883 39.7147 21.2897 39.4668 21.6951 39.5624C22.1004 39.6592 22.3496 40.0659 22.2528 40.4712L20.8198 46.4472C20.7217 46.8539 20.3124 47.1017 19.9109 47.0049ZM29.228 46.4227L28.0106 40.4467C27.928 40.0387 28.1913 39.6411 28.5993 39.5585C29.0072 39.4746 29.4049 39.7392 29.4875 40.1472L30.7049 46.1232C30.7875 46.5311 30.5241 46.9288 30.1162 47.0114C29.7121 47.0927 29.3119 46.8332 29.228 46.4227Z" fill="#004CBF"/>
<path fill-rule="evenodd" clip-rule="evenodd" d="M33.3772 47.0256H16.6202C16.2045 47.0256 15.8663 46.6886 15.8663 46.2716C15.8663 45.8546 16.2032 45.5177 16.6202 45.5177H33.3759C33.7916 45.5177 34.1299 45.8546 34.1299 46.2716C34.1299 46.6886 33.7929 47.0256 33.3772 47.0256ZM44.7431 41.0496H5.31113C4.01626 41.0496 3.07642 40.1097 3.07642 38.8149V14.7057C3.07642 13.4289 4.05887 12.4284 5.31113 12.4284H11.0909C11.5066 12.4284 11.8448 12.7653 11.8448 13.1823C11.8448 13.598 11.5079 13.9362 11.0909 13.9362H5.31113C4.81151 13.9362 4.58301 14.3351 4.58301 14.7069V38.8162C4.58301 39.2719 4.85541 39.5443 5.31113 39.5443H44.7431C45.1575 39.5443 45.4712 39.2319 45.4712 38.8162V14.7057C45.4712 14.2887 45.1381 13.9349 44.7431 13.9349H38.962C38.5463 13.9349 38.2081 13.598 38.2081 13.181C38.2081 12.7653 38.5451 12.4271 38.962 12.4271H44.7418C45.9747 12.4271 46.9765 13.4482 46.9765 14.7044V38.8136C46.9778 40.0671 45.9953 41.0496 44.7431 41.0496Z" fill="#004CBF"/>
<path fill-rule="evenodd" clip-rule="evenodd" d="M16.4485 22.3638C12.551 22.3638 9.71082 19.2667 9.71082 15.7811C9.71082 12.347 12.4141 9.53008 15.8146 9.31965C15.9928 5.874 18.8407 3.12549 22.316 3.12549C23.2714 3.12549 24.1699 3.41596 24.8257 3.62897C24.8541 3.63801 24.8812 3.64834 24.9083 3.66125C26.3904 4.3416 27.5755 5.53964 28.2417 7.00878C28.6109 6.9352 28.962 6.92229 29.259 6.92229C31.038 6.92229 32.622 7.8234 33.5115 9.30803C33.6483 9.30674 33.7155 9.30932 33.8304 9.30932C37.7911 9.30932 40.9515 12.8466 40.2401 16.9507C39.6747 20.0516 37.1508 22.347 33.1035 22.2863L17.0423 22.3419C16.8435 22.3561 16.646 22.3638 16.4485 22.3638ZM16.3594 10.8004C16.3142 10.8095 16.2677 10.8133 16.2213 10.8133C13.4624 10.8133 11.2187 13.0416 11.2187 15.7798C11.2187 18.6006 13.6419 21.1103 16.9481 20.8353C16.9894 20.8314 33.1177 20.7772 33.119 20.7772C36.1761 20.8198 38.2817 19.29 38.7568 16.6835C39.3067 13.5309 36.8784 10.8133 33.8304 10.8133C33.598 10.8133 33.403 10.803 33.2701 10.8366C32.9176 10.9256 32.551 10.7514 32.3999 10.4222C31.8319 9.19184 30.6287 8.42629 29.259 8.42629C28.7452 8.42629 28.4018 8.48309 28.1126 8.61865C27.7033 8.80842 27.2179 8.59799 27.0785 8.16809C26.6331 6.79706 25.6287 5.66228 24.3196 5.04777C23.7348 4.85929 23.017 4.63207 22.3173 4.63207C19.5624 4.63207 17.3186 6.88227 17.3134 9.65144C17.316 9.76375 17.3044 9.88123 17.3109 9.91996C17.4038 10.4092 17.001 10.9153 16.3594 10.8004Z" fill="#004CBF"/>
<path fill-rule="evenodd" clip-rule="evenodd" d="M25.0258 28.6639C24.6101 28.6639 24.2719 28.3269 24.2719 27.9099V21.5583C24.2719 21.1426 24.6088 20.8043 25.0258 20.8043C25.4428 20.8043 25.7798 21.1413 25.7798 21.5583V27.9099C25.7798 28.3269 25.4428 28.6639 25.0258 28.6639Z" fill="#004CBF"/>
<path fill-rule="evenodd" clip-rule="evenodd" d="M25.0258 31.6847C23.7774 31.6847 22.7614 30.6687 22.7614 29.4203C22.7614 28.1719 23.7774 27.1559 25.0258 27.1559C26.2742 27.1559 27.2902 28.1719 27.2902 29.4203C27.2902 30.6687 26.2755 31.6847 25.0258 31.6847ZM25.0258 28.6638C24.6088 28.6638 24.2693 29.0033 24.2693 29.4203C24.2693 29.8373 24.6088 30.1768 25.0258 30.1768C25.4428 30.1768 25.7823 29.8373 25.7823 29.4203C25.7823 29.0033 25.4441 28.6638 25.0258 28.6638ZM37.2721 28.4198H30.905C30.4893 28.4198 30.151 28.0829 30.151 27.6659V21.5401C30.151 21.1244 30.488 20.7862 30.905 20.7862C31.322 20.7862 31.6589 21.1231 31.6589 21.5401V26.9119H37.2721C37.6878 26.9119 38.0261 27.2489 38.0261 27.6659C38.0261 28.0816 37.6891 28.4198 37.2721 28.4198Z" fill="#004CBF"/>
<path fill-rule="evenodd" clip-rule="evenodd" d="M38.7826 29.9303C37.5342 29.9303 36.5182 28.9143 36.5182 27.6659C36.5182 26.4175 37.5342 25.4015 38.7826 25.4015C40.031 25.4015 41.047 26.4175 41.047 27.6659C41.047 28.9143 40.031 29.9303 38.7826 29.9303ZM38.7826 26.9094C38.3656 26.9094 38.0261 27.2489 38.0261 27.6659C38.0261 28.0829 38.3656 28.4224 38.7826 28.4224C39.1996 28.4224 39.5391 28.0829 39.5391 27.6659C39.5391 27.2489 39.1996 26.9094 38.7826 26.9094ZM19.1479 28.4198H12.7808C12.3651 28.4198 12.0268 28.0829 12.0268 27.6659C12.0268 27.2502 12.3638 26.912 12.7808 26.912H18.394V21.5789C18.394 21.1632 18.731 20.825 19.1479 20.825C19.5636 20.825 19.9019 21.1619 19.9019 21.5789V27.6659C19.9019 28.0816 19.5649 28.4198 19.1479 28.4198Z" fill="#004CBF"/>
<path fill-rule="evenodd" clip-rule="evenodd" d="M11.2703 29.9303C10.0219 29.9303 9.00594 28.9143 9.00594 27.6659C9.00594 26.4175 10.0219 25.4015 11.2703 25.4015C12.5187 25.4015 13.5347 26.4175 13.5347 27.6659C13.5347 28.9143 12.5187 29.9303 11.2703 29.9303ZM11.2703 26.9094C10.8533 26.9094 10.5138 27.2489 10.5138 27.6659C10.5138 28.0829 10.8533 28.4224 11.2703 28.4224C11.6873 28.4224 12.0268 28.0829 12.0268 27.6659C12.0268 27.2489 11.6873 26.9094 11.2703 26.9094Z" fill="#004CBF"/>
</svg>
