<svg width="50" height="50" viewBox="0 0 50 50" fill="none" xmlns="http://www.w3.org/2000/svg">
<path d="M36.8297 22.4219L34.3375 22.0656C34.1646 21.5148 33.9431 20.9804 33.6758 20.4688L35.1859 18.4555C35.2987 18.305 35.3535 18.1189 35.3401 17.9314C35.3268 17.7438 35.2463 17.5673 35.1133 17.4344L32.5641 14.8852C32.4311 14.7522 32.2546 14.6716 32.0671 14.6583C31.8795 14.6449 31.6934 14.6997 31.543 14.8125L29.5312 16.3281C29.0196 16.0601 28.4849 15.8387 27.9336 15.6664L27.5773 13.1742C27.5515 12.9873 27.4588 12.816 27.3165 12.6921C27.1742 12.5682 26.9918 12.4999 26.8031 12.5H23.1969C23.009 12.5002 22.8275 12.568 22.6856 12.6911C22.5437 12.8142 22.4509 12.9844 22.4242 13.1703L22.068 15.6625C21.516 15.8359 20.9808 16.0587 20.4688 16.3281L18.4555 14.818C18.305 14.7052 18.1189 14.6504 17.9314 14.6638C17.7438 14.6771 17.5673 14.7577 17.4344 14.8906L14.8852 17.4398C14.7522 17.5728 14.6716 17.7493 14.6583 17.9368C14.6449 18.1244 14.6997 18.3105 14.8125 18.4609L16.3281 20.4688C16.0608 20.9804 15.8393 21.5148 15.6664 22.0656L13.1742 22.4219C12.9881 22.4486 12.8179 22.5415 12.6948 22.6835C12.5716 22.8256 12.5039 23.0073 12.5039 23.1953V26.8016C12.5039 26.9896 12.5716 27.1713 12.6948 27.3133C12.8179 27.4554 12.9881 27.5483 13.1742 27.575L15.6664 27.9312C15.8392 28.4831 16.0606 29.0186 16.3281 29.5312L14.818 31.5445C14.7052 31.695 14.6504 31.8811 14.6638 32.0686C14.6771 32.2562 14.7577 32.4327 14.8906 32.5656L17.4398 35.1148C17.5728 35.2478 17.7493 35.3284 17.9368 35.3417C18.1244 35.3551 18.3105 35.3003 18.4609 35.1875L20.4688 33.6758C20.9804 33.9438 21.5151 34.1652 22.0664 34.3375L22.4227 36.8297C22.4493 37.0156 22.5421 37.1858 22.684 37.3089C22.8259 37.432 23.0075 37.4998 23.1953 37.5H26.8016C26.9894 37.4998 27.1709 37.432 27.3128 37.3089C27.4548 37.1858 27.5475 37.0156 27.5742 36.8297L27.9305 34.3375C28.4818 34.1652 29.0165 33.9438 29.5281 33.6758L31.5414 35.1859C31.6919 35.2987 31.8779 35.3535 32.0655 35.3401C32.2531 35.3268 32.4295 35.2462 32.5625 35.1133L35.1117 32.5641C35.2447 32.4311 35.3252 32.2546 35.3386 32.0671C35.3519 31.8795 35.2972 31.6934 35.1844 31.543L33.6758 29.5312C33.9431 29.0196 34.1646 28.4852 34.3375 27.9344L36.8297 27.5781C37.0158 27.5514 37.186 27.4585 37.3091 27.3165C37.4323 27.1744 37.5 26.9927 37.5 26.8047V23.1969C37.5004 23.0086 37.4328 22.8265 37.3096 22.6841C37.1865 22.5417 37.016 22.4486 36.8297 22.4219ZM35.9375 26.125L33.6141 26.457C33.461 26.479 33.3179 26.5459 33.2029 26.6492C33.0879 26.7525 33.0061 26.8877 32.968 27.0375C32.7752 27.7951 32.4745 28.521 32.075 29.193C31.996 29.326 31.9582 29.4795 31.9666 29.6341C31.9749 29.7886 32.029 29.9372 32.1219 30.0609L33.5281 31.9359L31.9367 33.5273L30.0617 32.1211C29.9379 32.0283 29.7893 31.9744 29.6347 31.9662C29.4802 31.958 29.3267 31.9959 29.1938 32.075C28.5211 32.4735 27.7951 32.774 27.0375 32.9672C26.8877 33.0054 26.7525 33.0871 26.6492 33.2021C26.5459 33.3171 26.479 33.4602 26.457 33.6133L26.125 35.9375H23.875L23.543 33.6141C23.521 33.461 23.4541 33.3179 23.3508 33.2029C23.2475 33.0879 23.1123 33.0061 22.9625 32.968C22.2049 32.7747 21.4789 32.4743 20.8063 32.0758C20.6733 31.9966 20.5198 31.9588 20.3653 31.967C20.2107 31.9752 20.0621 32.0291 19.9383 32.1219L18.0633 33.5281L16.4719 31.9367L17.8781 30.0617C17.971 29.938 18.0251 29.7894 18.0334 29.6349C18.0418 29.4803 18.004 29.3268 17.925 29.1938C17.5252 28.5216 17.2242 27.7954 17.0312 27.0375C16.9931 26.8877 16.9113 26.7525 16.7963 26.6492C16.6813 26.5459 16.5382 26.479 16.3852 26.457L14.0625 26.125V23.875L16.3859 23.543C16.539 23.521 16.6821 23.4541 16.7971 23.3508C16.9121 23.2475 16.9939 23.1123 17.032 22.9625C17.2248 22.2049 17.5255 21.479 17.925 20.807C18.004 20.674 18.0418 20.5205 18.0334 20.3659C18.0251 20.2114 17.971 20.0628 17.8781 19.9391L16.4719 18.0641L18.0633 16.4727L19.9383 17.8789C20.0621 17.9717 20.2107 18.0256 20.3653 18.0338C20.5198 18.042 20.6733 18.0041 20.8063 17.925C21.4789 17.5265 22.2049 17.226 22.9625 17.0328C23.1123 16.9946 23.2475 16.9129 23.3508 16.7979C23.4541 16.6829 23.521 16.5398 23.543 16.3867L23.875 14.0625H26.125L26.457 16.3859C26.479 16.539 26.5459 16.6821 26.6492 16.7971C26.7525 16.9121 26.8877 16.9939 27.0375 17.032C27.7951 17.2253 28.5211 17.5257 29.1938 17.9242C29.3267 18.0034 29.4802 18.0412 29.6347 18.033C29.7893 18.0248 29.9379 17.9709 30.0617 17.8781L31.9367 16.4719L33.5281 18.0633L32.1219 19.9383C32.029 20.062 31.9749 20.2106 31.9666 20.3651C31.9582 20.5197 31.996 20.6732 32.075 20.8062C32.4748 21.4784 32.7758 22.2046 32.9688 22.9625C33.0069 23.1123 33.0887 23.2475 33.2037 23.3508C33.3187 23.4541 33.4618 23.521 33.6148 23.543L35.9375 23.875V26.125Z" fill="#004CBF"/>
<path d="M48.3672 24.6719C48.3044 24.5363 48.2041 24.4215 48.0781 24.3412C47.9521 24.2609 47.8057 24.2184 47.6562 24.2187H46.0781C45.9127 20.0443 44.5169 16.012 42.0662 12.6286C39.6156 9.24524 36.2194 6.66182 32.3047 5.20311L31.7578 6.67186C35.4991 8.06406 38.7264 10.5647 41.0089 13.8397C43.2913 17.1147 44.5202 21.0081 44.5312 25C44.5312 25.2072 44.6135 25.4059 44.7601 25.5524C44.9066 25.6989 45.1053 25.7812 45.3125 25.7812H45.9844L43.75 28.4687L41.5156 25.7812H42.1875C42.3947 25.7812 42.5934 25.6989 42.7399 25.5524C42.8864 25.4059 42.9687 25.2072 42.9687 25C42.9475 20.9934 41.5975 17.1071 39.1304 13.9501C36.6634 10.793 33.2186 8.54375 29.3359 7.55468L30.1875 6.85155C30.276 6.77824 30.3472 6.68632 30.396 6.58235C30.4449 6.47836 30.4703 6.36488 30.4703 6.24999C30.4703 6.13509 30.4449 6.02161 30.396 5.91763C30.3472 5.81365 30.276 5.72174 30.1875 5.64843L25.5 1.74218C25.3858 1.64708 25.2469 1.58652 25.0995 1.56759C24.9522 1.54865 24.8025 1.57214 24.668 1.63529C24.5335 1.69843 24.4198 1.79862 24.3402 1.92411C24.2606 2.04959 24.2185 2.19516 24.2187 2.34374V3.92186C19.3681 4.12857 14.7349 5.99148 11.0913 9.20009C7.44764 12.4087 5.01376 16.7692 4.1953 21.5547L1.74218 24.5C1.64708 24.6142 1.58652 24.7531 1.56759 24.9004C1.54865 25.0478 1.57214 25.1975 1.63529 25.332C1.69843 25.4665 1.79862 25.5802 1.92411 25.6598C2.04959 25.7393 2.19516 25.7815 2.34374 25.7812H3.92186C4.08731 29.9556 5.48309 33.988 7.93374 37.3714C10.3844 40.7547 13.7806 43.3382 17.6953 44.7969L18.2422 43.3281C14.5009 41.9359 11.2735 39.4353 8.99109 36.1603C6.70865 32.8853 5.47982 28.9919 5.46874 25C5.46874 24.7928 5.38643 24.5941 5.23992 24.4476C5.0934 24.301 4.89469 24.2187 4.68749 24.2187H4.01561L6.24999 21.5312L8.48436 24.2187H7.81249C7.60529 24.2187 7.40658 24.301 7.26006 24.4476C7.11355 24.5941 7.03124 24.7928 7.03124 25C7.0525 29.0066 8.40244 32.8929 10.8695 36.0499C13.3366 39.2069 16.7814 41.4562 20.6641 42.4453L19.8125 43.1484C19.724 43.2217 19.6528 43.3137 19.6039 43.4176C19.5551 43.5216 19.5297 43.6351 19.5297 43.75C19.5297 43.8649 19.5551 43.9784 19.6039 44.0823C19.6528 44.1863 19.724 44.2782 19.8125 44.3516L24.5 48.2578C24.6405 48.3743 24.8174 48.4378 25 48.4375C25.1131 48.4375 25.2249 48.4136 25.3281 48.3672C25.4637 48.3044 25.5785 48.2041 25.6588 48.0781C25.7391 47.9521 25.7816 47.8057 25.7812 47.6562V46.0781C30.6318 45.8714 35.2651 44.0085 38.9087 40.7999C42.5523 37.5913 44.9862 33.2308 45.8047 28.4453L48.2578 25.5C48.3525 25.3865 48.4131 25.2484 48.4325 25.1018C48.4518 24.9552 48.4292 24.8061 48.3672 24.6719ZM25 44.5312C24.7928 44.5312 24.5941 44.6135 24.4476 44.7601C24.301 44.9066 24.2187 45.1053 24.2187 45.3125V45.9922L21.5312 43.75L24.2187 41.5078V42.1875C24.2187 42.3947 24.301 42.5934 24.4476 42.7399C24.5941 42.8864 24.7928 42.9687 25 42.9687C28.7671 42.9723 32.44 41.7914 35.4991 39.5931C38.5583 37.3947 40.8488 34.2903 42.0469 30.7187L40.5625 30.2187C39.5122 33.354 37.5387 36.0986 34.9009 38.0923C32.2631 40.086 29.0841 41.2358 25.7812 41.3906V39.8437C25.7815 39.6952 25.7393 39.5496 25.6598 39.4241C25.5802 39.2986 25.4665 39.1984 25.332 39.1353C25.1975 39.0721 25.0478 39.0487 24.9004 39.0676C24.7531 39.0865 24.6142 39.1471 24.5 39.2422L22.1953 41.1641C18.5282 40.5069 15.1908 38.6299 12.7247 35.8375C10.2585 33.0452 8.80829 29.5014 8.60936 25.7812H10.1562C10.3048 25.7815 10.4504 25.7393 10.5759 25.6598C10.7014 25.5802 10.8015 25.4665 10.8647 25.332C10.9278 25.1975 10.9513 25.0478 10.9324 24.9004C10.9135 24.7531 10.8529 24.6142 10.7578 24.5L6.85155 19.8125C6.77735 19.7304 6.68703 19.6644 6.58622 19.6187C6.48542 19.573 6.37628 19.5485 6.26561 19.5469C7.46443 15.5007 9.93305 11.9475 13.3067 9.41236C16.6804 6.8772 20.7801 5.49456 25 5.46874C25.2072 5.46874 25.4059 5.38643 25.5524 5.23992C25.6989 5.0934 25.7812 4.89469 25.7812 4.68749V4.0078L28.4687 6.24999L25.7812 8.49218V7.81249C25.7812 7.60529 25.6989 7.40658 25.5524 7.26006C25.4059 7.11355 25.2072 7.03124 25 7.03124C21.2329 7.02769 17.56 8.20859 14.5009 10.4069C11.4417 12.6052 9.15114 15.7097 7.95311 19.2812L9.43749 19.7812C10.4877 16.6459 12.4612 13.9014 15.0991 11.9077C17.7369 9.91394 20.9158 8.76422 24.2187 8.60936V10.1562C24.2185 10.3048 24.2606 10.4504 24.3402 10.5759C24.4198 10.7014 24.5335 10.8015 24.668 10.8647C24.8025 10.9278 24.9522 10.9513 25.0995 10.9324C25.2469 10.9135 25.3858 10.8529 25.5 10.7578L27.8047 8.83593C31.4717 9.49306 34.8091 11.3701 37.2753 14.1624C39.7415 16.9548 41.1917 20.4986 41.3906 24.2187H39.8437C39.6952 24.2185 39.5496 24.2606 39.4241 24.3402C39.2986 24.4198 39.1984 24.5335 39.1353 24.668C39.0721 24.8025 39.0487 24.9522 39.0676 25.0995C39.0865 25.2469 39.1471 25.3858 39.2422 25.5L43.1484 30.1875C43.2213 30.2724 43.311 30.3412 43.4119 30.3896C43.5127 30.438 43.6226 30.4649 43.7344 30.4687C42.5313 34.5111 40.0611 38.06 36.688 40.5919C33.315 43.1238 29.2175 44.5048 25 44.5312Z" fill="#004CBF"/>
</svg>
