<svg width="50" height="50" viewBox="0 0 50 50" fill="none" xmlns="http://www.w3.org/2000/svg">
<g clip-path="url(#clip0_225_1680)">
<path fill-rule="evenodd" clip-rule="evenodd" d="M48.2378 11.5986L44.7118 10.6457L45.3725 9.20635C45.439 9.06137 45.4596 8.89948 45.4314 8.74247C45.4032 8.58545 45.3277 8.44082 45.2149 8.32803L41.6816 4.79482C41.5689 4.68198 41.4242 4.60639 41.2672 4.57821C41.1102 4.55003 40.9483 4.57062 40.8033 4.63721L39.364 5.29785L38.411 1.77197C38.3571 1.57219 38.2261 1.40198 38.0468 1.29872C37.8674 1.19545 37.6545 1.16757 37.4546 1.22119L37.2916 1.26484C34.6161 1.98164 32.2959 4.60322 32.817 8.29092C30.8333 10.016 29.4778 12.3711 28.8607 15.1868H21.1394C20.5223 12.3711 19.1668 10.016 17.1831 8.29092C17.7041 4.60312 15.384 1.98164 12.7086 1.26484L12.5455 1.22109C12.3457 1.16753 12.1327 1.19543 11.9534 1.29869C11.7741 1.40195 11.6431 1.57212 11.5891 1.77187L10.6361 5.29775L9.19678 4.63711C9.05181 4.57052 8.88992 4.54994 8.73289 4.57811C8.57587 4.60629 8.43124 4.68189 8.31846 4.79473L4.78516 8.32793C4.67236 8.44073 4.59679 8.58535 4.56861 8.74237C4.54044 8.89939 4.561 9.06127 4.62754 9.20625L5.28819 10.6456L1.76231 11.5985C1.56256 11.6525 1.39238 11.7835 1.28913 11.9629C1.18587 12.1422 1.15796 12.3551 1.21153 12.555L1.25518 12.718C1.66221 14.2373 2.68213 15.6414 4.16192 16.4768C3.91468 16.8874 3.78368 17.3574 3.78292 17.8367V43.3929H3.05792C2.85072 43.3929 2.652 43.4752 2.50549 43.6217C2.35898 43.7682 2.27667 43.9669 2.27667 44.1741V46.4342C2.27667 48.3465 3.83243 49.9022 5.74463 49.9022H44.2553C46.1676 49.9022 47.7232 48.3465 47.7232 46.4342V44.1741C47.7232 43.9669 47.6409 43.7682 47.4944 43.6217C47.3479 43.4752 47.1492 43.3929 46.942 43.3929H46.2169V17.8369C46.2169 17.3507 46.081 16.882 45.8378 16.4768C47.3176 15.6414 48.3377 14.2375 48.7447 12.7183L48.7885 12.5552C48.8421 12.3553 48.8142 12.1423 48.711 11.963C48.6077 11.7837 48.4376 11.6526 48.2378 11.5986ZM40.9611 6.28398L43.7257 9.04853L43.375 9.8126L40.1972 6.63477L40.9611 6.28398ZM37.1168 2.97168L37.8432 5.65937C36.5406 6.01445 35.357 6.53086 34.303 7.1915C34.3266 5.05449 35.6154 3.59717 37.1168 2.97168ZM38.4641 7.11113L42.889 11.536C41.8348 15.6518 38.9461 18.4489 34.9022 19.495L30.5053 15.0981C31.5513 11.0545 34.3483 8.16533 38.4641 7.11113ZM18.827 21.5187C19.4444 21.5187 20.0772 21.4887 20.7232 21.4281C20.9044 21.4111 21.074 21.3314 21.2027 21.2027C21.3314 21.074 21.4111 20.9044 21.4281 20.7232C21.4698 20.2784 21.4963 19.8404 21.5092 19.409H28.491C28.5039 19.8404 28.5303 20.2783 28.5721 20.7232C28.5891 20.9044 28.6688 21.074 28.7975 21.2027C28.9262 21.3314 29.0958 21.4111 29.277 21.4281C29.9235 21.4888 30.5554 21.5187 31.1732 21.5187C34.2376 21.5187 36.9324 20.7808 39.1061 19.409H41.995V40.7334H8.00508V19.4091H10.8936C13.0672 20.7809 15.7621 21.5187 18.827 21.5187ZM19.8438 16.9589C19.9557 17.9002 19.9838 18.8901 19.9227 19.9227C18.8901 19.9838 17.9002 19.9557 16.9589 19.8437L19.8438 16.9589ZM30.1563 16.9588L33.0412 19.8437C32.1 19.9557 31.11 19.9837 30.0774 19.9226C30.0162 18.8901 30.0443 17.9001 30.1563 16.9588ZM28.6004 16.7494C28.5584 17.109 28.527 17.4747 28.5072 17.8466H21.4927C21.4733 17.48 21.4422 17.1141 21.3995 16.7494H28.6004ZM19.4948 15.098L15.0981 19.4948C11.0545 18.4485 8.16514 15.6513 7.11114 11.536L11.536 7.11113C15.6517 8.16523 18.4487 11.0545 19.4948 15.098ZM12.8833 2.97168C14.3846 3.59717 15.6734 5.05449 15.697 7.19141C14.643 6.53086 13.4594 6.01445 12.1568 5.65937L12.8833 2.97168ZM9.03887 6.28398L9.80284 6.63467L6.625 9.8125L6.27432 9.04844L9.03887 6.28398ZM2.96202 12.893L5.6626 12.1631C6.01866 13.4668 6.53487 14.6525 7.19708 15.707C5.05186 15.6897 3.58907 14.3987 2.96202 12.893ZM46.1608 46.4343C46.1608 47.4851 45.3061 48.3398 44.2554 48.3398H5.74463C4.69395 48.3398 3.83917 47.4851 3.83917 46.4343V44.9555H17.5189V46.4142C17.5189 46.6214 17.6012 46.8201 17.7477 46.9666C17.8942 47.1131 18.0929 47.1954 18.3001 47.1954H31.6998C31.907 47.1954 32.1057 47.1131 32.2522 46.9666C32.3988 46.8201 32.4811 46.6214 32.4811 46.4142V44.9555H46.1607V46.4343H46.1608ZM19.0814 44.9558H30.9186V45.6329H19.0814V44.9558ZM44.6545 17.8369V43.3931H5.34542V17.8369C5.34542 17.5489 5.46202 17.2756 5.66075 17.074C6.15889 17.1995 6.68985 17.2685 7.25147 17.2685C7.59034 17.2685 7.94083 17.242 8.30079 17.1901C8.49743 17.4168 8.70276 17.6358 8.91631 17.8466H7.22383C7.01663 17.8466 6.81792 17.9289 6.67141 18.0754C6.52489 18.2219 6.44258 18.4206 6.44258 18.6278V41.5146C6.44258 41.7218 6.52489 41.9206 6.67141 42.0671C6.81792 42.2136 7.01663 42.2959 7.22383 42.2959H42.7761C42.9833 42.2959 43.182 42.2136 43.3285 42.0671C43.475 41.9206 43.5573 41.7218 43.5573 41.5146V18.6278C43.5573 18.4206 43.475 18.2219 43.3285 18.0754C43.182 17.9289 42.9833 17.8466 42.7761 17.8466H41.0832C41.2968 17.6358 41.5022 17.4168 41.6988 17.1901C42.0589 17.242 42.4094 17.2685 42.7484 17.2685C43.31 17.2685 43.8408 17.1994 44.339 17.0739C44.5378 17.2755 44.6545 17.5488 44.6545 17.8369ZM42.8028 15.7069C43.4651 14.6524 43.9814 13.4667 44.3374 12.163L47.038 12.8929C46.4109 14.3987 44.9482 15.6896 42.8028 15.7069ZM43.8795 5.01562L48.0286 0.866503C48.1009 0.792624 48.187 0.73381 48.2822 0.693468C48.3773 0.653125 48.4795 0.632054 48.5828 0.631476C48.6862 0.630898 48.7886 0.650823 48.8841 0.690099C48.9797 0.729375 49.0666 0.78722 49.1396 0.860286C49.2127 0.933352 49.2705 1.02019 49.3098 1.11576C49.3491 1.21134 49.369 1.31376 49.3684 1.41709C49.3679 1.52041 49.3468 1.6226 49.3064 1.71773C49.2661 1.81286 49.2073 1.89904 49.1334 1.97129L44.9844 6.12051C44.8318 6.27305 44.6319 6.34932 44.4319 6.34932C44.2319 6.34932 44.032 6.27305 43.8795 6.12051C43.8069 6.04796 43.7494 5.96183 43.7101 5.86705C43.6709 5.77226 43.6507 5.67066 43.6507 5.56807C43.6507 5.46547 43.6709 5.36387 43.7101 5.26908C43.7494 5.1743 43.8069 5.08817 43.8795 5.01562ZM41.9489 4.18994C41.8024 4.04343 41.7201 3.84473 41.7201 3.63755C41.7201 3.43036 41.8024 3.23167 41.9489 3.08516L44.7075 0.326562C44.7798 0.252683 44.866 0.193869 44.9611 0.153526C45.0562 0.113183 45.1584 0.0921127 45.2617 0.0915344C45.3651 0.0909562 45.4675 0.110882 45.563 0.150158C45.6586 0.189433 45.7455 0.247279 45.8185 0.320345C45.8916 0.393411 45.9494 0.480246 45.9887 0.575821C46.028 0.671397 46.0479 0.773814 46.0473 0.877144C46.0468 0.980473 46.0257 1.08266 45.9853 1.17779C45.945 1.27292 45.8862 1.3591 45.8123 1.43135L43.0537 4.18994C42.9012 4.34248 42.7013 4.41875 42.5013 4.41875C42.3013 4.41875 42.1015 4.34248 41.9489 4.18994ZM34.994 17.9774C36.6236 17.9774 37.9494 16.6517 37.9494 15.0221C37.9494 13.3924 36.6236 12.0666 34.994 12.0666C33.3644 12.0666 32.0386 13.3924 32.0386 15.0221C32.0386 16.6516 33.3644 17.9774 34.994 17.9774ZM34.994 13.6291C35.762 13.6291 36.3869 14.2539 36.3869 15.0221C36.3869 15.7901 35.7621 16.4149 34.994 16.4149C34.2259 16.4149 33.6011 15.7901 33.6011 15.0221C33.6011 14.2539 34.2259 13.6291 34.994 13.6291ZM49.6735 5.29238L46.9149 8.05107C46.7624 8.20361 46.5625 8.27988 46.3625 8.27988C46.1625 8.27988 45.9626 8.20361 45.8101 8.05107C45.7375 7.97854 45.68 7.89242 45.6407 7.79764C45.6014 7.70286 45.5812 7.60127 45.5812 7.49868C45.5812 7.39609 45.6014 7.2945 45.6407 7.19972C45.68 7.10494 45.7375 7.01883 45.8101 6.94629L48.5687 4.1876C48.7152 4.04111 48.9139 3.95881 49.1211 3.95881C49.3282 3.95881 49.5269 4.04111 49.6734 4.1876C49.82 4.33409 49.9023 4.53279 49.9023 4.73997C49.9023 4.94715 49.82 5.14586 49.6735 5.29238ZM12.6926 37.2178V33.622C12.6926 33.4148 12.7749 33.2161 12.9214 33.0695C13.0679 32.923 13.2666 32.8407 13.4738 32.8407C13.681 32.8407 13.8797 32.923 14.0263 33.0695C14.1728 33.2161 14.2551 33.4148 14.2551 33.622V36.4365H17.0696C17.2768 36.4365 17.4755 36.5188 17.6221 36.6653C17.7686 36.8119 17.8509 37.0106 17.8509 37.2178C17.8509 37.425 17.7686 37.6237 17.6221 37.7702C17.4755 37.9167 17.2768 37.999 17.0696 37.999H13.4738C13.2666 37.999 13.0679 37.9167 12.9214 37.7702C12.7749 37.6237 12.6926 37.425 12.6926 37.2178ZM37.3073 33.622V37.2178C37.3073 37.425 37.225 37.6237 37.0785 37.7702C36.932 37.9167 36.7333 37.999 36.5261 37.999H32.9303C32.7231 37.999 32.5244 37.9167 32.3778 37.7702C32.2313 37.6237 32.149 37.425 32.149 37.2178C32.149 37.0106 32.2313 36.8119 32.3778 36.6653C32.5244 36.5188 32.7231 36.4365 32.9303 36.4365H35.7448V33.622C35.7448 33.4148 35.8271 33.2161 35.9737 33.0695C36.1202 32.923 36.3189 32.8407 36.5261 32.8407C36.7333 32.8407 36.932 32.923 37.0785 33.0695C37.225 33.2161 37.3073 33.4148 37.3073 33.622ZM12.6926 26.5204V22.9246C12.6926 22.7174 12.7749 22.5187 12.9214 22.3722C13.0679 22.2257 13.2666 22.1434 13.4738 22.1434H17.0696C17.2768 22.1434 17.4755 22.2257 17.6221 22.3722C17.7686 22.5187 17.8509 22.7174 17.8509 22.9246C17.8509 23.1318 17.7686 23.3305 17.6221 23.477C17.4755 23.6235 17.2768 23.7059 17.0696 23.7059H14.2551V26.5204C14.2551 26.7276 14.1728 26.9263 14.0263 27.0728C13.8797 27.2194 13.681 27.3017 13.4738 27.3017C13.2666 27.3017 13.0679 27.2194 12.9214 27.0728C12.7749 26.9263 12.6926 26.7276 12.6926 26.5204ZM32.149 22.9246C32.149 22.7174 32.2313 22.5187 32.3778 22.3722C32.5244 22.2257 32.7231 22.1434 32.9303 22.1434H36.5261C36.7333 22.1434 36.932 22.2257 37.0785 22.3722C37.225 22.5187 37.3073 22.7174 37.3073 22.9246V26.5204C37.3073 26.7276 37.225 26.9263 37.0785 27.0728C36.932 27.2194 36.7333 27.3017 36.5261 27.3017C36.3189 27.3017 36.1202 27.2194 35.9737 27.0728C35.8271 26.9263 35.7448 26.7276 35.7448 26.5204V23.7059H32.9303C32.7231 23.7059 32.5244 23.6235 32.3778 23.477C32.2313 23.3305 32.149 23.1318 32.149 22.9246ZM0.866607 1.97139C0.792728 1.89914 0.733914 1.81296 0.693571 1.71783C0.653228 1.6227 0.632158 1.52051 0.63158 1.41718C0.631001 1.31385 0.650927 1.21144 0.690203 1.11586C0.729479 1.02028 0.787324 0.93345 0.86039 0.860384C0.933456 0.787318 1.02029 0.729473 1.11587 0.690197C1.21144 0.650921 1.31386 0.630995 1.41719 0.631573C1.52052 0.632152 1.62271 0.653222 1.71784 0.693565C1.81297 0.733908 1.89915 0.792722 1.97139 0.866601L6.12051 5.01562C6.19378 5.08801 6.25201 5.17417 6.29185 5.26915C6.33169 5.36412 6.35236 5.46604 6.35267 5.56903C6.35298 5.67203 6.33292 5.77407 6.29365 5.86928C6.25437 5.96449 6.19666 6.051 6.12383 6.12382C6.051 6.19665 5.96449 6.25435 5.86927 6.29362C5.77405 6.33288 5.67201 6.35293 5.56902 6.35262C5.46603 6.3523 5.36411 6.33162 5.26914 6.29177C5.17417 6.25192 5.08801 6.19368 5.01563 6.12041L0.866607 1.97139ZM4.1877 1.43135C4.11382 1.3591 4.05501 1.27292 4.01467 1.17779C3.97432 1.08266 3.95325 0.980473 3.95267 0.877144C3.9521 0.773814 3.97202 0.671397 4.0113 0.575821C4.05057 0.480246 4.10842 0.393411 4.18148 0.320345C4.25455 0.247279 4.34138 0.189433 4.43696 0.150158C4.53254 0.110882 4.63495 0.0909562 4.73828 0.0915344C4.84161 0.0921127 4.9438 0.113183 5.03893 0.153526C5.13406 0.193869 5.22024 0.252683 5.29249 0.326562L8.05108 3.08516C8.12434 3.15754 8.18257 3.2437 8.22242 3.33868C8.26226 3.43365 8.28293 3.53557 8.28324 3.63857C8.28355 3.74156 8.26349 3.8436 8.22421 3.93881C8.18494 4.03402 8.12723 4.12053 8.05439 4.19335C7.98156 4.26618 7.89505 4.32388 7.79984 4.36315C7.70462 4.40241 7.60258 4.42247 7.49959 4.42215C7.39659 4.42183 7.29468 4.40115 7.19971 4.3613C7.10473 4.32145 7.01858 4.26321 6.9462 4.18994L4.1877 1.43135ZM12.0507 15.022C12.0507 16.6516 13.3765 17.9773 15.0062 17.9773C16.6357 17.9773 17.9615 16.6516 17.9615 15.022C17.9615 13.3923 16.6357 12.0665 15.0062 12.0665C13.3765 12.0666 12.0507 13.3924 12.0507 15.022ZM16.399 15.022C16.399 15.79 15.7742 16.4148 15.0062 16.4148C14.2381 16.4148 13.6132 15.79 13.6132 15.022C13.6132 14.2539 14.238 13.629 15.0062 13.629C15.7741 13.6291 16.399 14.2539 16.399 15.022ZM3.08516 8.05107L0.32647 5.29238C0.252591 5.22014 0.193778 5.13396 0.153435 5.03883C0.113092 4.9437 0.0920211 4.84151 0.0914429 4.73818C0.0908647 4.63485 0.11079 4.53243 0.150066 4.43686C0.189342 4.34128 0.247187 4.25445 0.320254 4.18138C0.39332 4.10831 0.480154 4.05047 0.57573 4.01119C0.671305 3.97192 0.773723 3.95199 0.877052 3.95257C0.980382 3.95315 1.08257 3.97422 1.1777 4.01456C1.27283 4.0549 1.35901 4.11372 1.43126 4.1876L4.18995 6.94629C4.26383 7.01853 4.32264 7.10471 4.36298 7.19984C4.40333 7.29497 4.4244 7.39716 4.42497 7.50049C4.42555 7.60382 4.40563 7.70624 4.36635 7.80181C4.32708 7.89739 4.26923 7.98422 4.19616 8.05729C4.1231 8.13036 4.03626 8.1882 3.94069 8.22748C3.84511 8.26675 3.74269 8.28668 3.63937 8.2861C3.53604 8.28552 3.43385 8.26445 3.33872 8.22411C3.24359 8.18377 3.15741 8.12495 3.08516 8.05107ZM25 37.999C29.3714 37.999 32.9278 34.4427 32.9278 30.0712C32.9278 25.6997 29.3714 22.1435 25 22.1435C20.6286 22.1435 17.0723 25.6998 17.0723 30.0713C17.0723 34.4428 20.6286 37.999 25 37.999ZM25 23.706C28.5099 23.706 31.3653 26.5614 31.3653 30.0713C31.3653 33.5812 28.5098 36.4365 25 36.4365C21.4902 36.4365 18.6348 33.5811 18.6348 30.0712C18.6348 26.5613 21.4901 23.706 25 23.706ZM24.2986 32.4323L23.8681 25.8747C23.8681 24.3873 26.1318 24.3873 26.1318 25.8747L25.7013 32.4323C25.7013 33.3539 24.2986 33.3539 24.2986 32.4323ZM25.9024 34.4808C25.9024 34.9778 25.4971 35.3833 25 35.3833C24.5029 35.3833 24.0976 34.9778 24.0976 34.4808C24.0976 33.9837 24.503 33.5783 25 33.5783C25.4971 33.5782 25.9024 33.9837 25.9024 34.4808Z" fill="#004CBF"/>
</g>
<defs>
<clipPath id="clip0_225_1680">
<rect width="50" height="50" fill="white"/>
</clipPath>
</defs>
</svg>
