<svg width="50" height="50" viewBox="0 0 50 50" fill="none" xmlns="http://www.w3.org/2000/svg">
<g clip-path="url(#clip0_225_1689)">
<path d="M25 0C11.193 0 0 11.193 0 25C0 38.807 11.193 50 25 50C38.807 50 50 38.807 50 25C49.9846 11.1996 38.8004 0.0154167 25 0ZM25 48.3333C12.1135 48.3333 1.66667 37.8865 1.66667 25C1.66667 12.1135 12.1135 1.66667 25 1.66667C37.8865 1.66667 48.3333 12.1135 48.3333 25C48.3187 37.8804 37.8804 48.3187 25 48.3333Z" fill="#004CBF"/>
<path d="M44.1419 24.0751V23.9751C44.1244 23.7084 44.1069 23.4407 44.0808 23.184C44.0552 22.9277 44.0283 22.6631 43.9974 22.4182C43.9693 22.2033 43.9408 21.9885 43.9042 21.8351C43.8684 21.5849 43.8208 21.3351 43.7675 21.0718L43.7427 20.9599C43.6992 20.7617 43.6531 20.5582 43.6059 20.3768C43.4774 19.8499 43.3126 19.2932 43.1059 18.6983C43.0501 18.5218 42.9858 18.3549 42.9284 18.2084C42.8451 17.9818 42.7568 17.7559 42.6607 17.5415C42.5424 17.2604 42.4167 16.9825 42.2835 16.7081C42.1696 16.4644 42.0469 16.2249 41.9157 15.99C41.6111 15.4067 41.2733 14.8412 40.9042 14.2965L40.8875 14.2732V14.2692C40.8716 14.246 40.8549 14.2241 40.8382 14.2C40.7254 14.0336 40.6093 13.8694 40.4899 13.7077L40.3735 13.5473C40.2124 13.324 40.0399 13.1083 39.8092 12.8341C39.7712 12.7916 39.7359 12.7469 39.7033 12.7002C39.5664 12.5387 39.4275 12.3789 39.2867 12.2208C39.2367 12.1667 39.1825 12.1143 39.1325 12.0609L40.5949 10.5981L39.4165 9.42021L37.9533 10.8833C37.8874 10.8207 37.8276 10.7594 37.76 10.6974C37.6115 10.5668 37.4633 10.4349 37.2782 10.2807C37.2607 10.2682 37.2424 10.2551 37.2184 10.2359C37.1856 10.2094 37.1539 10.1816 37.1232 10.1526C36.9076 9.9724 36.6915 9.80188 36.484 9.6526L36.4718 9.64323L36.3049 9.5224C36.1117 9.38146 35.92 9.2424 35.7219 9.11094C35.1811 8.74407 34.6199 8.40825 34.0409 8.1051C33.7984 7.97073 33.5559 7.84427 33.3276 7.73844C33.0448 7.5976 32.7625 7.47438 32.4825 7.3551C32.2575 7.25571 32.0291 7.16427 31.7977 7.08094C31.639 7.0199 31.4799 6.95927 31.3342 6.91406C30.7149 6.7 30.1583 6.5349 29.6477 6.41406C29.4324 6.3574 29.2098 6.30896 28.9274 6.2476C28.6776 6.1951 28.4274 6.14906 28.2308 6.12344C28.0249 6.07833 27.8191 6.05104 27.5932 6.02177C27.3433 5.98677 27.0833 5.96073 26.8184 5.93344C26.5531 5.90573 26.2907 5.89073 25.9749 5.87323C25.3435 5.83905 24.7106 5.83905 24.0792 5.87323H23.9852C23.7175 5.89073 23.4493 5.90823 23.1831 5.93427C22.9175 5.9599 22.6652 5.98677 22.3942 6.02417C22.1892 6.05104 21.9832 6.07833 21.8359 6.1125C21.5857 6.14906 21.3359 6.19583 21.0141 6.2626C20.7984 6.31104 20.5757 6.35906 20.3759 6.4124C19.8499 6.53844 19.2924 6.70333 18.6968 6.9124C18.5299 6.96573 18.3692 7.02677 18.2059 7.08906C17.9794 7.1724 17.7527 7.26156 17.5391 7.3576C17.2465 7.48083 16.9641 7.6074 16.7057 7.73521C16.4618 7.84906 16.222 7.9716 15.9868 8.1026C15.8984 8.14896 15.8126 8.20156 15.7251 8.24906C15.236 8.51604 14.7534 8.80323 14.2949 9.11417H14.2834L14.1923 9.17927C14.0277 9.28898 13.8661 9.40308 13.7077 9.52146L13.5457 9.6399C13.4334 9.72323 13.3224 9.80677 13.2076 9.8951C13.0925 9.98333 12.9708 10.0867 12.8365 10.2002C12.8198 10.2165 12.8016 10.232 12.7823 10.2457L12.699 10.3101C12.5508 10.4342 12.4024 10.566 12.2201 10.7268C11.6988 11.205 11.1982 11.7054 10.7198 12.2266C10.5708 12.3919 10.4253 12.5603 10.2832 12.7316C10.2429 12.7873 10.1985 12.8398 10.1509 12.889C9.97156 13.1051 9.80094 13.3207 9.65094 13.5275L9.64313 13.5369V13.5425L9.52511 13.704C9.38438 13.8985 9.24396 14.0909 9.10844 14.2875C8.74141 14.8276 8.40558 15.3883 8.10261 15.9668C7.96834 16.2093 7.84261 16.4518 7.73594 16.6818C7.59479 16.9641 7.47156 17.2449 7.35156 17.5269C7.25658 17.7432 7.16875 17.9627 7.08823 18.1848C7.02354 18.3517 6.95927 18.5184 6.91084 18.6751C6.69834 19.2916 6.53323 19.8474 6.41073 20.3626C6.3599 20.5591 6.31427 20.7626 6.27073 20.9607L6.24427 21.0791C6.19011 21.3294 6.145 21.5841 6.12021 21.7766C6.07261 21.9926 6.04417 22.2074 6.01688 22.4157C5.9828 22.6721 5.95498 22.9292 5.93344 23.1869C5.90827 23.4689 5.88764 23.7514 5.87157 24.0341C5.85323 24.3559 5.83334 24.6766 5.83334 25C5.83334 25.3234 5.84146 25.6466 5.85813 25.9249V26.0249C5.87563 26.2916 5.89313 26.5593 5.91917 26.816C5.94479 27.0723 5.97167 27.3369 6.00261 27.5818C6.03073 27.7967 6.05917 28.0115 6.09584 28.1649C6.13157 28.4151 6.17917 28.6649 6.2325 28.9282L6.25729 29.0401C6.30084 29.2382 6.34688 29.4418 6.39406 29.6232C6.52261 30.1501 6.6874 30.7068 6.89406 31.3017C6.9499 31.4782 7.01417 31.6451 7.07157 31.7916C7.1549 32.0182 7.24323 32.2441 7.33927 32.4585C7.45756 32.7396 7.58333 33.0175 7.71646 33.2919C7.83076 33.5361 7.95375 33.7762 8.08521 34.0117C8.18073 34.196 8.28573 34.3877 8.39073 34.5707L8.8074 35.2967L15.3149 31.5467L14.8951 30.8333C12.8108 27.2237 12.8108 22.7763 14.8951 19.1667C15.9221 17.3946 17.3947 15.922 19.1667 14.895C20.9466 13.8899 22.9559 13.3618 25 13.3618C27.0441 13.3618 29.0534 13.8899 30.8333 14.895C31.4694 15.2723 32.0679 15.7096 32.6208 16.2007L27.2949 21.5268C25.5053 20.3422 23.1099 20.7055 21.7522 22.3674C20.3943 24.0292 20.5159 26.4494 22.0333 27.9667C23.5506 29.4841 25.9708 29.6057 27.6326 28.2479C29.2945 26.8901 29.6578 24.4946 28.4732 22.7051L33.7993 17.3791C37.072 21.121 37.5972 26.532 35.105 30.8333L34.6883 31.5568L41.1958 35.3068L41.6125 34.5809C41.715 34.402 41.8141 34.2211 41.91 34.0385C42.0443 33.7959 42.17 33.5534 42.2767 33.3231C42.4174 33.0408 42.5407 32.76 42.6607 32.4784C42.7561 32.2621 42.8439 32.0425 42.924 31.8201C42.9891 31.6532 43.0534 31.4868 43.1018 31.3302C43.3143 30.7133 43.479 30.1575 43.6015 29.6423C43.6524 29.4458 43.6983 29.2423 43.7419 29.0442L43.7683 28.9258C43.8225 28.6759 43.8676 28.4208 43.8924 28.2283C43.94 28.0127 43.9684 27.7974 43.9957 27.5891C44.03 27.3393 44.0568 27.0768 44.0792 26.8184C44.1016 26.5601 44.1223 26.2924 44.141 25.9708C44.1594 25.649 44.1667 25.3234 44.1667 25C44.1667 24.6766 44.1585 24.3534 44.1419 24.0751ZM41.9849 20.7751C42.0308 20.9533 42.0682 21.1376 42.1118 21.3175L42.135 21.425C42.181 21.639 42.2183 21.8534 42.2607 22.1277C42.2974 22.2941 42.3185 22.4609 42.3441 22.6392C42.3767 22.8699 42.3999 23.1092 42.4276 23.3508C42.441 23.479 42.4507 23.6092 42.4601 23.7342C42.4682 23.8407 42.4752 23.9432 42.4817 24.0331V24.1667H38.3056C38.197 22.393 37.7332 20.6592 36.9418 19.0682L40.5558 16.9849C40.6307 17.1266 40.7059 17.2641 40.78 17.4234C40.905 17.6734 41.0148 17.9232 41.1283 18.1943C41.2135 18.3889 41.2924 18.5862 41.3651 18.7858C41.4169 18.9201 41.4693 19.0523 41.521 19.2143C41.7158 19.7791 41.8669 20.2869 41.9849 20.7751ZM26.6531 7.58344C26.8917 7.6074 27.1308 7.63104 27.3908 7.66677C27.5523 7.68844 27.7123 7.70833 27.9325 7.75427C28.1465 7.78406 28.3617 7.82344 28.6315 7.88083C28.8273 7.92396 29.0282 7.96917 29.2374 8.0225C29.7106 8.1376 30.2176 8.2874 30.8093 8.49167C30.9416 8.53229 31.0672 8.58229 31.2341 8.64667C31.4311 8.71779 31.6257 8.79554 31.8175 8.87979C32.0758 8.98917 32.3274 9.09833 32.6 9.235C32.7383 9.29927 32.8775 9.37583 33.0167 9.44823L30.9333 13.064C29.3391 12.2836 27.6053 11.8289 25.8333 11.7265V7.52156H25.9167C26.1667 7.53906 26.4115 7.5549 26.6532 7.58344H26.6531ZM18.8065 8.63073C18.9325 8.5824 19.0567 8.53229 19.2133 8.48427C19.7822 8.2874 20.2892 8.1376 20.7767 8.01917C20.9716 7.96917 21.1725 7.92396 21.4232 7.86906C21.6381 7.82344 21.8533 7.78573 22.1255 7.74333C22.2875 7.70833 22.4482 7.68844 22.6391 7.66C22.869 7.62813 23.1082 7.605 23.3474 7.58094C23.5868 7.55656 23.8374 7.54073 24.0331 7.52677H24.1667V11.7309C22.3958 11.8319 20.6628 12.2851 19.0691 13.064L16.9857 9.44906C17.1277 9.37417 17.2649 9.29927 17.4251 9.22406C17.675 9.09833 17.9248 8.98927 18.1967 8.87573C18.385 8.7874 18.575 8.71094 18.8066 8.62677L18.8065 8.63073ZM7.6599 22.6318C7.68146 22.4651 7.70261 22.2982 7.74979 22.0675C7.78056 21.8543 7.81843 21.6422 7.86334 21.4315L7.88823 21.3175C7.92844 21.1377 7.97156 20.9533 8.01844 20.7625C8.13313 20.2869 8.28407 19.7791 8.48677 19.1923C8.53073 19.0516 8.58313 18.9193 8.64261 18.7651C8.71414 18.5683 8.79161 18.3737 8.8749 18.1816C8.98521 17.9232 9.09511 17.6725 9.23094 17.3991C9.29479 17.2607 9.37177 17.1207 9.44417 16.9824L13.0582 19.0657C12.2668 20.6576 11.803 22.3922 11.6944 24.1667H7.52073V24.0833C7.53667 23.8333 7.5525 23.5885 7.57646 23.3476C7.60094 23.1067 7.62646 22.8699 7.6599 22.6319V22.6318ZM9.44427 33.0159C9.36927 32.8743 9.29406 32.7368 9.22 32.5774C9.095 32.3274 8.98521 32.0776 8.87167 31.8066C8.78652 31.6119 8.70756 31.4146 8.6349 31.215C8.58313 31.0807 8.53073 30.9484 8.47896 30.7866C8.28417 30.2209 8.13313 29.7131 8.01511 29.2249C7.96917 29.0467 7.93177 28.8624 7.88823 28.6825L7.865 28.575C7.81906 28.361 7.78167 28.1466 7.73927 27.8723C7.70261 27.7059 7.68146 27.5391 7.65594 27.3608C7.62334 27.1301 7.60011 26.8908 7.5724 26.6492C7.55968 26.5216 7.54885 26.3938 7.5399 26.2658C7.53177 26.1593 7.52479 26.0568 7.51834 25.9669V25.8375H11.711C11.8124 27.6099 12.2686 29.3439 13.0526 30.9367L9.44427 33.0159ZM13.8941 17.6257L10.2767 15.5424C10.3475 15.4325 10.4134 15.3206 10.4875 15.2091L10.5091 15.1799C10.6583 14.9626 10.8085 14.7457 10.9851 14.5133C11.1084 14.3427 11.2371 14.1759 11.3708 14.0133C11.4469 13.9352 11.5173 13.8518 11.5817 13.7633C11.7008 13.6202 11.8319 13.4766 11.9474 13.3467C12.3951 12.8594 12.8633 12.3915 13.3508 11.9442C13.4875 11.8242 13.6234 11.7033 13.7223 11.6191L13.8607 11.5117C13.8924 11.486 13.9225 11.4579 13.951 11.4282C14.1379 11.2709 14.3305 11.1205 14.5284 10.9774C14.7599 10.8024 14.9919 10.6441 15.2177 10.4867C15.3219 10.4158 15.4391 10.3593 15.5448 10.2909L17.6281 13.8993C16.1494 14.8825 14.8803 16.149 13.8941 17.6257ZM32.3743 13.8941L34.4576 10.2767C34.5642 10.345 34.6732 10.4094 34.7782 10.4809C35.0081 10.6393 35.2393 10.7983 35.4858 10.9859C35.6775 11.1226 35.861 11.2682 35.9932 11.3757C36.0368 11.4176 36.0824 11.4591 36.1259 11.4933C36.1691 11.5275 36.2093 11.5593 36.2382 11.5808C36.3741 11.6951 36.5101 11.816 36.6594 11.9466C36.6959 11.9808 36.7309 12.0166 36.7684 12.0507L33.8151 15.0041C33.3606 14.6017 32.8792 14.2309 32.3743 13.8941ZM27.5 25C27.5 26.3806 26.3806 27.5 25 27.5C23.6194 27.5 22.5 26.3806 22.5 25C22.5 23.6194 23.6194 22.5 25 22.5C25.3711 22.5017 25.7373 22.5871 26.0709 22.7498L25.426 23.3952C25.2874 23.3558 25.1441 23.335 25 23.3333C24.0796 23.3333 23.3333 24.0796 23.3333 25C23.3333 25.9204 24.0796 26.6667 25 26.6667C25.9204 26.6667 26.6667 25.9204 26.6667 25C26.6648 24.8558 26.6437 24.7126 26.604 24.574L27.2494 23.9291C27.4126 24.2626 27.4983 24.6287 27.5 25ZM35 16.1825L37.9533 13.2292C37.9842 13.2633 38.0176 13.2958 38.0485 13.3292C38.1758 13.4725 38.3032 13.6156 38.396 13.7252C38.4518 13.8042 38.5132 13.879 38.5799 13.949C38.7366 14.136 38.8867 14.3285 39.0299 14.526L39.0409 14.5419C39.2074 14.7632 39.3624 14.9849 39.5223 15.2177C39.5943 15.3227 39.6501 15.4382 39.7184 15.5456L36.1101 17.629C35.7737 17.1219 35.4028 16.6386 35 16.1825ZM42.3442 27.3681C42.3226 27.535 42.3019 27.7019 42.2543 27.9325C42.2235 28.1457 42.1856 28.3578 42.1407 28.5685L42.1159 28.6825C42.076 28.8623 42.0325 29.0467 41.9857 29.2375C41.8709 29.7131 41.72 30.2209 41.5173 30.8077C41.4734 30.9484 41.4209 31.0807 41.3615 31.2349C41.2899 31.4317 41.2125 31.6263 41.1292 31.8184C41.0193 32.0768 40.9091 32.3275 40.7735 32.6009C40.7093 32.7401 40.6323 32.8784 40.5599 33.0176L36.9474 30.9343C37.7301 29.3406 38.1849 27.606 38.2849 25.8333H42.4793V25.9167C42.4633 26.1667 42.4475 26.4115 42.4235 26.6524C42.3991 26.8933 42.3735 27.1301 42.3401 27.3681H42.3442Z" fill="#004CBF"/>
<path d="M15.8333 39.1667H34.1667V34.1667H15.8333V39.1667ZM17.5 35.8333H32.5V37.5H17.5V35.8333Z" fill="#004CBF"/>
</g>
<defs>
<clipPath id="clip0_225_1689">
<rect width="50" height="50" fill="white"/>
</clipPath>
</defs>
</svg>
