<svg width="50" height="50" viewBox="0 0 50 50" fill="none" xmlns="http://www.w3.org/2000/svg">
<g clip-path="url(#clip0_225_1700)">
<path d="M5.83331 12.5C7.21398 12.5 8.33331 11.3808 8.33331 10C8.33185 8.61992 7.21339 7.50146 5.83331 7.5C4.45265 7.5 3.33331 8.61934 3.33331 10C3.33331 11.3807 4.45265 12.5 5.83331 12.5ZM5.83331 9.1667C5.94274 9.1667 6.0511 9.18825 6.1522 9.23013C6.2533 9.27201 6.34517 9.33339 6.42255 9.41077C6.49992 9.48815 6.56131 9.58001 6.60318 9.68111C6.64506 9.78221 6.66661 9.89057 6.66661 10C6.66633 10.2209 6.57844 10.4327 6.42223 10.5889C6.26602 10.7451 6.05423 10.833 5.83331 10.8333C5.61231 10.8333 5.40035 10.7455 5.24408 10.5892C5.08781 10.433 5.00001 10.221 5.00001 10C5.00001 9.779 5.08781 9.56704 5.24408 9.41077C5.40035 9.25449 5.61231 9.1667 5.83331 9.1667ZM30 9.1667H20C19.5398 9.1667 19.1667 9.53975 19.1667 10C19.1667 10.4603 19.5398 10.8333 20 10.8333H30C30.4603 10.8333 30.8333 10.4603 30.8333 10C30.8333 9.53975 30.4603 9.1667 30 9.1667ZM34.1667 9.1667H33.3334C33.1124 9.1667 32.9005 9.25449 32.7442 9.41077C32.5879 9.56704 32.5001 9.779 32.5001 10C32.5001 10.221 32.5879 10.433 32.7442 10.5892C32.9005 10.7455 33.1124 10.8333 33.3334 10.8333H34.1667C34.627 10.8333 35 10.4603 35 10C35 9.53975 34.627 9.1667 34.1667 9.1667ZM15.8333 7.5H14.1666C13.7064 7.5 13.3333 7.87305 13.3333 8.3333C13.3333 8.79355 13.7064 9.1666 14.1666 9.1666H15.8333C16.0543 9.1666 16.2663 9.07881 16.4225 8.92253C16.5788 8.76626 16.6666 8.55431 16.6666 8.3333C16.6666 8.1123 16.5788 7.90034 16.4225 7.74407C16.2663 7.58779 16.0543 7.5 15.8333 7.5ZM15.8333 10.8333H14.1666C13.7064 10.8333 13.3333 11.2063 13.3333 11.6666C13.3333 12.1269 13.7064 12.4999 14.1666 12.4999H15.8333C16.2936 12.4999 16.6666 12.1269 16.6666 11.6666C16.6666 11.2063 16.2936 10.8333 15.8333 10.8333ZM5.83331 27.5C7.21398 27.5 8.33331 26.3807 8.33331 25C8.33185 23.6199 7.21339 22.5015 5.83331 22.5C4.45265 22.5 3.33331 23.6192 3.33331 25C3.33331 26.3808 4.45265 27.5 5.83331 27.5ZM5.83331 24.1667C5.94274 24.1667 6.0511 24.1883 6.1522 24.2301C6.2533 24.272 6.34517 24.3334 6.42255 24.4108C6.49992 24.4881 6.56131 24.58 6.60318 24.6811C6.64506 24.7822 6.66661 24.8906 6.66661 25C6.66633 25.2209 6.57844 25.4327 6.42223 25.5889C6.26602 25.7451 6.05423 25.833 5.83331 25.8333C5.61231 25.8333 5.40035 25.7455 5.24408 25.5892C5.08781 25.433 5.00001 25.221 5.00001 25C5.00001 24.779 5.08781 24.567 5.24408 24.4108C5.40035 24.2545 5.61231 24.1667 5.83331 24.1667ZM30 24.1667H20C19.5398 24.1667 19.1667 24.5397 19.1667 25C19.1667 25.4603 19.5398 25.8333 20 25.8333H30C30.4603 25.8333 30.8333 25.4603 30.8333 25C30.8333 24.5397 30.4603 24.1667 30 24.1667ZM34.1667 24.1667H33.3334C33.1124 24.1667 32.9005 24.2545 32.7442 24.4108C32.5879 24.567 32.5001 24.779 32.5001 25C32.5001 25.221 32.5879 25.433 32.7442 25.5892C32.9005 25.7455 33.1124 25.8333 33.3334 25.8333H34.1667C34.627 25.8333 35 25.4603 35 25C35 24.5397 34.627 24.1667 34.1667 24.1667ZM15.8333 22.5H14.1666C13.7064 22.5 13.3333 22.873 13.3333 23.3333C13.3333 23.7936 13.7064 24.1666 14.1666 24.1666H15.8333C16.2936 24.1666 16.6666 23.7936 16.6666 23.3333C16.6666 22.873 16.2936 22.5 15.8333 22.5ZM15.8333 25.8333H14.1666C13.9456 25.8333 13.7337 25.9211 13.5774 26.0774C13.4211 26.2336 13.3333 26.4456 13.3333 26.6666C13.3333 26.8876 13.4211 27.0996 13.5774 27.2558C13.7337 27.4121 13.9456 27.4999 14.1666 27.4999H15.8333C16.0543 27.4999 16.2663 27.4121 16.4225 27.2558C16.5788 27.0996 16.6666 26.8876 16.6666 26.6666C16.6666 26.4456 16.5788 26.2336 16.4225 26.0774C16.2663 25.9211 16.0543 25.8333 15.8333 25.8333ZM5.83331 42.5C7.21398 42.5 8.33331 41.3808 8.33331 40C8.33185 38.6199 7.21339 37.5015 5.83331 37.5C4.45265 37.5 3.33331 38.6193 3.33331 40C3.33331 41.3807 4.45265 42.5 5.83331 42.5ZM5.83331 39.1667C6.05432 39.1667 6.26627 39.2545 6.42255 39.4108C6.57882 39.567 6.66661 39.779 6.66661 40C6.66633 40.2209 6.57844 40.4327 6.42223 40.5889C6.26602 40.7451 6.05423 40.833 5.83331 40.8333C5.61231 40.8333 5.40035 40.7455 5.24408 40.5892C5.08781 40.433 5.00001 40.221 5.00001 40C5.00001 39.779 5.08781 39.567 5.24408 39.4108C5.40035 39.2545 5.61231 39.1667 5.83331 39.1667ZM30 39.1667H20C19.5398 39.1667 19.1667 39.5397 19.1667 40C19.1667 40.4603 19.5398 40.8333 20 40.8333H30C30.4603 40.8333 30.8333 40.4603 30.8333 40C30.8333 39.5397 30.4603 39.1667 30 39.1667ZM34.1667 39.1667H33.3334C33.1124 39.1667 32.9005 39.2545 32.7442 39.4108C32.5879 39.567 32.5001 39.779 32.5001 40C32.5001 40.221 32.5879 40.433 32.7442 40.5892C32.9005 40.7455 33.1124 40.8333 33.3334 40.8333H34.1667C34.627 40.8333 35 40.4603 35 40C35 39.5397 34.627 39.1667 34.1667 39.1667ZM15.8333 37.5H14.1666C13.9456 37.5 13.7337 37.5878 13.5774 37.7441C13.4211 37.9003 13.3333 38.1123 13.3333 38.3333C13.3333 38.5543 13.4211 38.7663 13.5774 38.9225C13.7337 39.0788 13.9456 39.1666 14.1666 39.1666H15.8333C16.0543 39.1666 16.2663 39.0788 16.4225 38.9225C16.5788 38.7663 16.6666 38.5543 16.6666 38.3333C16.6666 38.1123 16.5788 37.9003 16.4225 37.7441C16.2663 37.5878 16.0543 37.5 15.8333 37.5ZM15.8333 40.8333H14.1666C13.7064 40.8333 13.3333 41.2063 13.3333 41.6666C13.3333 42.1269 13.7064 42.4999 14.1666 42.4999H15.8333C16.2936 42.4999 16.6666 42.1269 16.6666 41.6666C16.6666 41.2063 16.2936 40.8333 15.8333 40.8333Z" fill="#004CBF"/>
<path d="M48.3333 13.3333C49.2534 13.3324 49.999 12.5867 50 11.6666V8.3333C49.9991 7.41318 49.2534 6.66758 48.3333 6.6666H46.6666V0.833301C46.6666 0.373047 46.2936 0 45.8333 0C45.373 0 45 0.373047 45 0.833301V6.6666H43.3333C43.0421 6.66752 42.7562 6.74499 42.5044 6.89125C42.2525 7.03751 42.0436 7.24741 41.8984 7.4999H38.3333V5.8333C38.3324 4.91318 37.5867 4.16758 36.6666 4.1666H1.6666C0.746582 4.16758 0.000878906 4.91328 0 5.8333V14.1666C0.000878906 15.0867 0.746582 15.8323 1.6667 15.8333H36.6667C37.5868 15.8324 38.3324 15.0867 38.3334 14.1666V12.5H41.8985C42.0437 12.7525 42.2526 12.9624 42.5045 13.1087C42.7563 13.2549 43.0422 13.3324 43.3334 13.3333H45V21.6666H43.3333C43.0421 21.6675 42.7562 21.745 42.5044 21.8913C42.2525 22.0375 42.0436 22.2474 41.8984 22.4999H38.3333V20.8332C38.3324 19.9131 37.5867 19.1675 36.6666 19.1665H1.6666C0.746582 19.1676 0.000878906 19.9133 0 20.8333V29.1666C0.000878906 30.0867 0.746582 30.8323 1.6667 30.8333H36.6667C37.5868 30.8324 38.3324 30.0867 38.3334 29.1666V27.5H41.8985C42.0437 27.7525 42.2526 27.9624 42.5045 28.1087C42.7563 28.2549 43.0422 28.3324 43.3334 28.3333H45V36.6666H43.3333C43.0421 36.6675 42.7562 36.745 42.5044 36.8913C42.2525 37.0375 42.0436 37.2474 41.8984 37.4999H38.3333V35.8332C38.3324 34.9131 37.5867 34.1675 36.6666 34.1665H1.6666C0.746582 34.1676 0.000878906 34.9133 0 35.8333V44.1666C0.000878906 45.0867 0.746582 45.8323 1.6667 45.8333H36.6667C37.5868 45.8324 38.3324 45.0867 38.3334 44.1666V42.5H41.8985C42.0437 42.7525 42.2526 42.9624 42.5045 43.1087C42.7563 43.2549 43.0422 43.3324 43.3334 43.3333H45V49.1666C45 49.6269 45.373 49.9999 45.8333 49.9999C46.2936 49.9999 46.6666 49.6269 46.6666 49.1666V43.3333H48.3333C49.2534 43.3324 49.999 42.5867 50 41.6666V38.3333C49.9991 37.4132 49.2534 36.6676 48.3333 36.6666H46.6666V28.3333H48.3333C49.2534 28.3324 49.999 27.5867 50 26.6666V23.3333C49.9991 22.4132 49.2534 21.6676 48.3333 21.6666H46.6666V13.3333H48.3333ZM10 14.1667H1.6667V5.8333H10V14.1667ZM11.6667 14.1667V5.8333H36.6667L36.6671 8.33145L36.6667 8.3333V11.6666L36.6676 11.6708L36.668 14.1666H11.6667V14.1667ZM41.6667 10.8333H38.3334V9.1667H41.6667V10.8333ZM10 29.1667H1.6667V20.8334H10V29.1667ZM11.6667 29.1667V20.8334H36.6667L36.6671 23.3315L36.6667 23.3334V26.6667L36.6676 26.6709L36.668 29.1667H11.6667ZM41.6667 25.8333H38.3334V24.1666H41.6667V25.8333ZM10 44.1667H1.6667V35.8334H10V44.1667ZM11.6667 44.1667V35.8334H36.6667L36.6671 38.3315L36.6667 38.3334V41.6667L36.6676 41.6709L36.668 44.1667H11.6667ZM41.6667 40.8333H38.3334V39.1666H41.6667V40.8333ZM48.3333 38.3333L48.3345 41.6666H43.3333V38.3333H48.3333ZM48.3333 23.3333L48.3345 26.6666H43.3333V23.3333H48.3333ZM43.3333 11.6667V8.3333H48.3333L48.3345 11.6666L43.3333 11.6667Z" fill="#004CBF"/>
</g>
<defs>
<clipPath id="clip0_225_1700">
<rect width="50" height="50" fill="white"/>
</clipPath>
</defs>
</svg>
