<svg width="50" height="50" viewBox="0 0 50 50" fill="none" xmlns="http://www.w3.org/2000/svg">
<g clip-path="url(#clip0_225_1710)">
<path d="M4.99933 5.83477C5.45949 5.83477 5.83252 5.46174 5.83252 5.00158C5.83252 4.54142 5.45949 4.16839 4.99933 4.16839C4.53917 4.16839 4.16614 4.54142 4.16614 5.00158C4.16614 5.46174 4.53917 5.83477 4.99933 5.83477Z" fill="#004CBF"/>
<path d="M28.3295 5.83477C28.7897 5.83477 29.1627 5.46174 29.1627 5.00158C29.1627 4.54142 28.7897 4.16839 28.3295 4.16839C27.8694 4.16839 27.4963 4.54142 27.4963 5.00158C27.4963 5.46174 27.8694 5.83477 28.3295 5.83477Z" fill="#004CBF"/>
<path d="M34.1622 18.3331C33.8806 18.3331 33.6064 18.3606 33.329 18.3756V5.83477C33.3253 2.61508 30.716 0.00585775 27.4963 0.00224495H5.83253C2.61284 0.00585775 0.00371044 2.61508 0 5.83477V35.8308C0.00371044 39.0505 2.61284 41.6597 5.83253 41.6633H20.2249C23.8928 48.483 31.9557 51.6485 39.2836 49.146C46.6116 46.6434 51.054 39.2073 49.7843 31.5686C48.5147 23.9298 41.9057 18.3306 34.1622 18.3331ZM28.887 19.2563C28.141 17.1805 26.1608 15.8062 23.9551 15.8334H22.497C22.276 15.8334 22.0641 15.9212 21.9079 16.0775C21.7516 16.2337 21.6638 16.4457 21.6638 16.6666V24.4831C20.3902 26.1218 19.4529 27.9961 18.9059 29.9982H10.832C5.77248 29.9922 1.67243 25.8922 1.66648 20.8327V11.6672H22.497C26.6884 11.6891 30.3381 14.5338 31.3825 18.5929C30.5339 18.7454 29.6992 18.9672 28.887 19.2563ZM27.3472 19.8971C25.8745 20.6027 24.5195 21.5316 23.3303 22.6509V17.4999H23.9552C25.4891 17.469 26.8642 18.4408 27.3472 19.8971ZM5.83253 1.66863H27.4963C29.796 1.67136 31.6597 3.53498 31.6625 5.83477V15.1002C30.6869 13.5481 29.3355 12.2671 27.7334 11.3757C26.1313 10.4844 24.3303 10.0115 22.497 10.0009H1.66648V5.83477C1.66921 3.53508 3.53283 1.67146 5.83253 1.66863ZM1.66648 35.8308V26.582C2.63877 28.1361 3.98985 29.4177 5.593 30.3067C7.19614 31.1957 8.99882 31.663 10.832 31.6646H18.5484C18.4096 32.4908 18.3368 33.3266 18.331 34.1643C18.3316 34.721 18.3613 35.2772 18.4201 35.8308H9.99867C8.61819 35.8308 7.499 36.95 7.499 38.3305V39.9969H5.83253C3.53283 39.9942 1.66921 38.1306 1.66648 35.8308ZM15.8312 37.4973V39.9969H13.3315V37.4973H15.8312ZM9.16548 38.3305C9.16548 38.1095 9.25326 37.8976 9.40952 37.7413C9.56577 37.585 9.7777 37.4973 9.99867 37.4973H11.6652V39.9969H9.16548V38.3305ZM17.4977 39.9969V37.4973H18.6909C18.8768 38.3504 19.1334 39.1865 19.4583 39.9969H17.4977ZM34.1622 48.3291C26.3392 48.3291 19.9973 41.9873 19.9973 34.1643C19.9973 26.3413 26.3392 19.9995 34.1622 19.9995C41.9851 19.9995 48.327 26.3413 48.327 34.1643C48.3182 41.9837 41.9815 48.3204 34.1622 48.3291Z" fill="#004CBF"/>
<path d="M34.1622 21.666C29.1094 21.668 24.5549 24.7122 22.6208 29.3802C20.6867 34.0481 21.7536 39.4214 25.3242 42.9964C25.4015 43.074 25.4933 43.1355 25.5943 43.1775C25.6954 43.2196 25.8038 43.2413 25.9133 43.2414C26.1342 43.2414 26.3461 43.1535 26.5023 42.9973L28.2696 41.2301C28.4214 41.0729 28.5053 40.8625 28.5034 40.644C28.5015 40.4255 28.4139 40.2165 28.2594 40.0621C28.1049 39.9076 27.896 39.8199 27.6775 39.818C27.459 39.8161 27.2486 39.9001 27.0914 40.0519L25.9357 41.2076C24.4386 39.4648 23.5385 37.2887 23.3669 34.9976H24.9967C25.2177 34.9976 25.4296 34.9098 25.5858 34.7536C25.7421 34.5973 25.8299 34.3854 25.8299 34.1644C25.8299 33.9434 25.7421 33.7315 25.5858 33.5753C25.4296 33.419 25.2177 33.3312 24.9967 33.3312H23.3728C23.5472 31.0413 24.4487 28.867 25.9458 27.1254L27.0923 28.2727C27.2494 28.4245 27.4599 28.5085 27.6784 28.5066C27.8968 28.5047 28.1058 28.417 28.2603 28.2626C28.4148 28.1081 28.5024 27.8991 28.5043 27.6806C28.5062 27.4622 28.4222 27.2517 28.2705 27.0945L27.1239 25.9472C28.8652 24.4504 31.0393 23.5492 33.329 23.3751V24.999C33.329 25.22 33.4168 25.4319 33.573 25.5882C33.7293 25.7444 33.9412 25.8322 34.1622 25.8322C34.3831 25.8322 34.5951 25.7444 34.7513 25.5882C34.9076 25.4319 34.9954 25.22 34.9954 24.999V23.3751C37.285 23.5492 39.459 24.4504 41.2004 25.9472L40.0539 27.0945C39.9737 27.1713 39.9097 27.2632 39.8655 27.365C39.8214 27.4669 39.798 27.5765 39.7968 27.6874C39.7956 27.7984 39.8165 27.9085 39.8584 28.0112C39.9003 28.114 39.9623 28.2073 40.0408 28.2858C40.1193 28.3642 40.2126 28.4262 40.3154 28.4681C40.4181 28.51 40.5282 28.531 40.6392 28.5298C40.7501 28.5286 40.8597 28.5052 40.9615 28.4611C41.0633 28.4169 41.1553 28.3529 41.232 28.2727L42.3786 27.1254C43.8756 28.867 44.7771 31.0413 44.9515 33.3312H43.3276C43.1067 33.3312 42.8947 33.419 42.7385 33.5753C42.5822 33.7315 42.4945 33.9434 42.4945 34.1644C42.4945 34.3854 42.5822 34.5973 42.7385 34.7536C42.8947 34.9098 43.1067 34.9976 43.3276 34.9976H44.9574C44.7863 37.2902 43.8858 39.4679 42.3877 41.2118L41.232 40.0561C41.0749 39.9043 40.8644 39.8203 40.6459 39.8222C40.4275 39.8241 40.2185 39.9118 40.064 40.0663C39.9095 40.2207 39.8219 40.4297 39.82 40.6482C39.8181 40.8667 39.9021 41.0771 40.0539 41.2343C40.6613 41.9291 41.3251 42.5726 42.0386 43.1581C42.1953 43.2365 42.3727 43.2635 42.5457 43.2352C42.7186 43.2069 42.8782 43.1248 43.0018 43.0006C46.5756 39.4257 47.6442 34.0502 45.7093 29.3802C43.7744 24.7104 39.2171 21.6658 34.1622 21.666Z" fill="#004CBF"/>
<path d="M37.8533 25.9154C37.7545 25.8683 37.6474 25.8412 37.5381 25.8355C37.4288 25.8298 37.3194 25.8457 37.2163 25.8823C37.1131 25.9189 37.0182 25.9755 36.9369 26.0488C36.8557 26.1221 36.7896 26.2107 36.7426 26.3095L34.5704 30.8723C32.9077 30.6694 31.3532 31.734 30.9414 33.3577C30.5297 34.9814 31.389 36.6581 32.9476 37.272C34.5062 37.8859 36.2781 37.2456 37.0844 35.7773C37.8906 34.3089 37.4797 32.4702 36.1252 31.4847L38.2449 27.0237C38.3394 26.8247 38.3512 26.5964 38.2778 26.3887C38.2044 26.181 38.0518 26.0109 37.8533 25.9154ZM34.1622 35.8308C33.2418 35.8308 32.4957 35.0847 32.4957 34.1643C32.4957 33.2439 33.2418 32.4978 34.1622 32.4978C35.0826 32.4978 35.8287 33.2439 35.8287 34.1643C35.8287 35.0847 35.0825 35.8308 34.1622 35.8308Z" fill="#004CBF"/>
<path d="M4.99933 37.4972C5.45949 37.4972 5.83252 37.1241 5.83252 36.664C5.83252 36.2038 5.45949 35.8308 4.99933 35.8308C4.53917 35.8308 4.16614 36.2038 4.16614 36.664C4.16614 37.1241 4.53917 37.4972 4.99933 37.4972Z" fill="#004CBF"/>
<path d="M8.33219 17.4999C9.23539 17.4999 9.99866 18.0723 9.99866 18.7498C9.99866 18.9707 10.0864 19.1827 10.2427 19.3389C10.399 19.4952 10.6109 19.5829 10.8319 19.5829C11.0528 19.5829 11.2648 19.4952 11.421 19.3389C11.5773 19.1827 11.665 18.9707 11.665 18.7498C11.5408 17.0286 10.0545 15.7281 8.33219 15.8334C6.60976 15.7281 5.12343 17.0286 4.99933 18.7498C5.12353 20.4709 6.60986 21.7714 8.33219 21.6661C9.23539 21.6661 9.99866 22.2385 9.99866 22.9159C9.99866 23.5934 9.23539 24.1657 8.33219 24.1657C7.42899 24.1657 6.66571 23.5934 6.66571 22.9159C6.66571 22.6949 6.57793 22.483 6.42167 22.3267C6.26542 22.1705 6.05349 22.0827 5.83252 22.0827C5.61154 22.0827 5.39962 22.1705 5.24336 22.3267C5.08711 22.483 4.99933 22.6949 4.99933 22.9159C5.12353 24.6371 6.60986 25.9376 8.33219 25.8322C10.0546 25.9376 11.5409 24.6371 11.665 22.9159C11.5408 21.1947 10.0545 19.8942 8.33219 19.9996C7.42899 19.9996 6.66571 19.4272 6.66571 18.7498C6.66581 18.0723 7.42899 17.4999 8.33219 17.4999ZM16.6645 17.4999C17.5677 17.4999 18.331 18.0723 18.331 18.7498C18.331 18.9707 18.4187 19.1827 18.575 19.3389C18.7312 19.4952 18.9432 19.5829 19.1641 19.5829C19.3851 19.5829 19.597 19.4952 19.7533 19.3389C19.9096 19.1827 19.9973 18.9707 19.9973 18.7498C19.8731 17.0286 18.3868 15.7281 16.6645 15.8334C14.9421 15.7281 13.4557 17.0286 13.3316 18.7498C13.4558 20.4709 14.9421 21.7714 16.6645 21.6661C17.5677 21.6661 18.331 22.2385 18.331 22.9159C18.331 23.5934 17.5677 24.1657 16.6645 24.1657C15.7613 24.1657 14.998 23.5934 14.998 22.9159C14.998 22.6949 14.9102 22.483 14.754 22.3267C14.5977 22.1705 14.3858 22.0827 14.1648 22.0827C13.9438 22.0827 13.7319 22.1705 13.5757 22.3267C13.4194 22.483 13.3316 22.6949 13.3316 22.9159C13.4558 24.6371 14.9421 25.9376 16.6645 25.8322C18.3869 25.9376 19.8732 24.6371 19.9973 22.9159C19.8731 21.1947 18.3868 19.8942 16.6645 19.9996C15.7613 19.9996 14.998 19.4272 14.998 18.7498C14.998 18.0723 15.7613 17.4999 16.6645 17.4999Z" fill="#004CBF"/>
</g>
<defs>
<clipPath id="clip0_225_1710">
<rect width="50" height="50" fill="white"/>
</clipPath>
</defs>
</svg>
