<svg width="50" height="50" viewBox="0 0 50 50" fill="none" xmlns="http://www.w3.org/2000/svg">
<path d="M23.8818 25.8003C23.9163 25.6775 23.9109 25.547 23.8663 25.4275C23.8218 25.3081 23.7404 25.2058 23.634 25.1356C19.9236 22.5402 16.2292 23.8796 14.3859 24.6145C14.3041 24.6474 14.2309 24.6985 14.1717 24.7639C14.1124 24.8293 14.0688 24.9072 14.0441 24.9919L11.799 32.5996C11.7687 32.7023 11.7671 32.8113 11.7944 32.9148C11.8217 33.0183 11.8768 33.1123 11.9538 33.1867C12.0307 33.2611 12.1266 33.313 12.231 33.3368C12.3353 33.3605 12.4442 33.3552 12.5458 33.3215C13.6778 32.9455 17.17 31.3008 20.6964 33.8671C21 34.088 21.4368 33.8876 21.546 33.5284C22.2803 31.1103 23.4892 27.1025 23.8818 25.8003ZM20.6426 32.4739C17.6736 30.4855 14.4319 31.5051 13.2314 31.8861L15.0895 25.5898C17.4941 24.5959 20.3717 24.3887 22.6279 25.8718C22.3961 26.6159 20.8894 31.6639 20.6426 32.4739ZM25.2121 26.267C25.1233 26.2186 25.0249 26.1905 24.924 26.1846C24.823 26.1788 24.7221 26.1954 24.6283 26.2333C24.5345 26.2712 24.4503 26.3293 24.3818 26.4036C24.3132 26.4779 24.2619 26.5665 24.2316 26.663L21.9357 34.0214C21.8886 34.1729 21.8956 34.3362 21.9555 34.4831C22.0155 34.6301 22.1246 34.7517 22.2643 34.8271C23.736 35.625 26.41 37.6223 32.2294 35.4053C32.3325 35.3686 32.4256 35.3084 32.5015 35.2297C32.5775 35.1509 32.6341 35.0556 32.667 34.9513L34.785 27.7967C34.8196 27.6804 34.8226 27.5571 34.7937 27.4393C34.7649 27.3215 34.7052 27.2135 34.6207 27.1264C34.5363 27.0394 34.4302 26.9764 34.3134 26.9439C34.1965 26.9114 34.0731 26.9107 33.9559 26.9417C28.7127 28.3586 26.6648 27.0526 25.2121 26.2669V26.267ZM31.6147 34.3773C26.7088 36.1457 24.4685 34.7061 23.1727 33.9916L25.1648 27.6064C27.6617 29.0523 30.6963 29.0157 33.4155 28.294L31.6147 34.3773Z" fill="#004CBF"/>
<path d="M23.9555 23.8376C24.2686 24.0483 24.6987 23.8532 24.8048 23.4909C25.5663 20.889 26.3913 18.3083 27.2482 15.736C27.2922 15.6046 27.2881 15.4617 27.2367 15.333C27.1852 15.2043 27.0898 15.098 26.9673 15.033C25.4227 14.2183 22.9354 12.4737 17.0595 14.5919C16.971 14.6221 16.8908 14.6726 16.8253 14.7392C16.7597 14.8059 16.7106 14.8869 16.6817 14.9758L14.3355 22.562C14.3036 22.665 14.3007 22.7748 14.3272 22.8794C14.3537 22.9839 14.4086 23.079 14.4858 23.1544C14.5629 23.2297 14.6594 23.2823 14.7645 23.3063C14.8696 23.3303 14.9793 23.3249 15.0815 23.2905C16.4748 22.8218 20.1388 21.2695 23.9554 23.8376H23.9555ZM17.7119 15.611C22.6541 13.927 24.6647 15.1071 25.9819 15.8264C25.4498 17.4158 24.4193 20.5856 23.8872 22.4356C21.3863 20.9776 18.4905 20.9425 15.7879 21.8321L17.7119 15.611ZM28.4822 16.2218C28.1702 16.0016 27.7302 16.1876 27.6191 16.5529L25.283 24.2416C25.2443 24.3684 25.2498 24.5046 25.2986 24.6278C25.3475 24.7511 25.4367 24.8541 25.5517 24.92C27.2206 25.8742 30.4765 27.502 35.5458 25.348C35.6234 25.3147 35.6927 25.2649 35.7491 25.202C35.8055 25.1392 35.8475 25.0648 35.8723 24.9841L38.1986 17.4895C38.2305 17.3869 38.2335 17.2776 38.2075 17.1735C38.1814 17.0694 38.1273 16.9744 38.0509 16.8989C37.9746 16.8235 37.879 16.7704 37.7745 16.7456C37.6701 16.7208 37.5608 16.7252 37.4587 16.7582C37.4587 16.7582 32.404 18.9895 28.4822 16.2218ZM34.8331 24.3785C32.1886 25.5198 29.0782 25.5979 26.5397 24.136L28.5236 17.6071C30.9846 19.0786 34.074 19.0848 36.7445 18.2209L34.8331 24.3785ZM40.388 10.4078L41.2036 9.56553C40.9336 9.28298 40.6532 9.01078 40.3622 8.74893L39.5474 9.59199C39.8388 9.85241 40.119 10.1243 40.388 10.4078Z" fill="#004CBF"/>
<path d="M41.7778 10.2015L40.8599 10.9301C43.0421 13.4553 44.2427 16.6815 44.2422 20.0189V29.981C44.2422 37.7285 37.8686 44.0315 30.0346 44.0315H19.9655C17.3727 44.0354 14.828 43.3313 12.6059 41.9953C10.3838 40.6592 8.56864 38.7419 7.35615 36.45L6.34365 37.0413C7.65983 39.5098 9.62297 41.5736 12.0226 43.0115C14.4223 44.4494 17.168 45.2071 19.9655 45.2034H30.0346C38.5148 45.2034 45.4141 38.3747 45.4141 29.981V20.019C45.4149 16.417 44.1248 12.9339 41.7778 10.2015ZM5.75781 29.981V20.019C5.75781 12.2715 12.1314 5.96846 19.9655 5.96846H30.0346C33.3024 5.96332 36.4725 7.08244 39.0129 9.13799L39.7095 8.19551C36.9673 5.99081 33.5531 4.79134 30.0346 4.79658H19.9655C11.4852 4.79658 4.58594 11.6253 4.58594 20.019V29.981C4.58381 32.1529 5.05329 34.2994 5.96191 36.2722L7.0459 35.8237C6.1956 33.9934 5.75596 31.9992 5.75781 29.981Z" fill="#004CBF"/>
</svg>
