<svg width="50" height="50" viewBox="0 0 50 50" fill="none" xmlns="http://www.w3.org/2000/svg">
<g clip-path="url(#clip0_225_1736)">
<path d="M18.4072 35.5555H28.1431M18.4072 43.7954H28.1431M34.4895 39.6754H15.5106C14.659 39.6754 13.9687 38.9851 13.9687 38.1335V32.9773C13.9687 32.1258 14.659 31.4354 15.5106 31.4354H34.4895C35.341 31.4354 36.0314 32.1258 36.0314 32.9773V38.1335C36.0314 38.9851 35.341 39.6754 34.4895 39.6754ZM34.4895 47.9154H15.5106C14.659 47.9154 13.9687 47.2251 13.9687 46.3735V41.2174C13.9687 40.3658 14.659 39.6755 15.5106 39.6755H34.4895C35.341 39.6755 36.0314 40.3658 36.0314 41.2174V46.3735C36.0314 47.2251 35.341 47.9154 34.4895 47.9154Z" stroke="#004CBF" stroke-width="1.5" stroke-miterlimit="10" stroke-linecap="round" stroke-linejoin="round"/>
<path d="M17.6338 31.4352V22.1578L11.916 16.4391H1.71484C1.17187 16.4391 0.732422 16.8795 0.732422 17.4215V38.6949C0.732422 39.2379 1.17187 39.6764 1.71484 39.6764H16.6514C16.668 39.6764 16.6855 39.6764 16.7021 39.6754" stroke="#004CBF" stroke-width="1.5" stroke-miterlimit="10" stroke-linecap="round" stroke-linejoin="round"/>
<path d="M46.2398 39.6764H48.2852C48.8281 39.6764 49.2676 39.2379 49.2676 38.6949V22.1578L43.5488 16.4391H33.3486C32.8057 16.4391 32.3662 16.8795 32.3662 17.4215V31.4352M33.2979 39.6754C33.3145 39.6764 33.332 39.6764 33.3486 39.6764H42.8196M11.9155 21.1754V16.4394L17.6338 22.1576H12.8979C12.3554 22.1577 11.9155 21.7178 11.9155 21.1754Z" stroke="#004CBF" stroke-width="1.5" stroke-miterlimit="10" stroke-linecap="round" stroke-linejoin="round"/>
<path d="M3.6911 23.5548H7.19559M3.6911 26.2381H14.6751M3.6911 28.9214H10.6921M35.3249 23.5548H39.2025M35.3249 26.2381H46.3089M39.2025 28.9214H46.3089M15.1396 2.08457H10.9243C10.1105 2.08457 9.45087 2.74424 9.45087 3.55801V11.6613C9.45087 12.4751 10.1105 13.1348 10.9243 13.1348C11.7381 13.1348 12.3977 12.4751 12.3977 11.6613V5.03144H35.6984V9.2334H34.4008C33.8889 9.2334 33.6341 9.85361 33.998 10.2135L36.7852 12.9692C36.8925 13.0752 37.0372 13.1347 37.188 13.1347C37.3388 13.1347 37.4835 13.0752 37.5907 12.9692L40.3779 10.2135C40.7419 9.85361 40.4871 9.2334 39.9752 9.2334H38.6454V3.55801C38.6454 2.74424 37.9857 2.08457 37.172 2.08457H18.574M43.5493 21.1754V16.4394L49.2676 22.1576H44.5316C43.9891 22.1577 43.5493 21.7178 43.5493 21.1754ZM18.8303 31.4354H31.1696V29.8175C31.1696 29.1784 30.6516 28.6604 30.0126 28.6604H19.9874C19.3483 28.6604 18.8304 29.1785 18.8304 29.8175L18.8303 31.4354Z" stroke="#004CBF" stroke-width="1.5" stroke-miterlimit="10" stroke-linecap="round" stroke-linejoin="round"/>
</g>
<defs>
<clipPath id="clip0_225_1736">
<rect width="50" height="50" fill="white"/>
</clipPath>
</defs>
</svg>
